<svg width="500" height="333" viewBox="0 0 500 333" fill="none" xmlns="http://www.w3.org/2000/svg">
<path d="M461.58 207.272L452.833 207.459L448.393 207.532C446.907 207.565 445.413 207.532 443.927 207.572H443.633V207.272L443.593 199.8V199.467H443.927L452.753 199.507C455.7 199.507 458.64 199.58 461.58 199.613H461.767V199.8C461.767 201.065 461.713 202.324 461.68 203.569L461.58 207.272ZM461.58 207.272L461.487 203.51C461.453 202.271 461.413 201.045 461.4 199.82L461.58 200.006C458.64 200.04 455.7 200.113 452.753 200.113L443.927 200.153L444.26 199.82V207.272L443.96 206.979C445.413 206.979 446.867 206.979 448.327 207.013L452.667 207.126L461.58 207.272Z" fill="#EBEBEB"/>
<path d="M451.733 216.67L442.987 216.856L438.54 216.929C437.06 216.929 435.567 216.929 434.08 216.969H433.787V216.67V209.217V208.884H434.12L442.947 208.931C445.887 208.931 448.833 209.004 451.773 209.037H451.96V209.217C451.96 210.483 451.907 211.741 451.873 212.987L451.733 216.67ZM451.733 216.67L451.64 212.907C451.607 211.668 451.567 210.443 451.553 209.217L451.733 209.404C448.793 209.437 445.847 209.51 442.907 209.51L434.08 209.55L434.413 209.217V216.67L434.113 216.377C435.567 216.377 437.02 216.377 438.48 216.41L442.86 216.49L451.733 216.67Z" fill="#EBEBEB"/>
<path d="M471.427 216.67L462.68 216.856L458.24 216.929C456.753 216.929 455.26 216.929 453.773 216.969H453.48V216.67L453.44 209.217V208.884H453.773L462.6 208.931C465.547 208.931 468.487 209.004 471.427 209.037H471.613V209.217C471.613 210.483 471.553 211.741 471.527 212.987L471.427 216.67ZM471.427 216.67L471.333 212.907C471.333 211.668 471.26 210.443 471.247 209.217L471.427 209.404C468.487 209.437 465.547 209.51 462.6 209.51L453.773 209.55L454.107 209.217V216.67L453.807 216.377C455.267 216.377 456.713 216.377 458.173 216.41L462.56 216.49L471.427 216.67Z" fill="#EBEBEB"/>
<path d="M209.86 118.595L201.113 118.781L196.673 118.854C195.187 118.854 193.693 118.854 192.207 118.854H191.913V118.555L191.873 111.102V110.769H192.207L201.033 110.809C203.98 110.809 206.92 110.882 209.86 110.916H210.047V111.095C210.047 112.361 209.987 113.613 209.953 114.858L209.86 118.595ZM209.86 118.595L209.767 114.825C209.767 113.586 209.693 112.361 209.68 111.142L209.86 111.322C206.92 111.322 203.98 111.428 201.033 111.428L192.207 111.475L192.54 111.142L192.507 118.595L192.207 118.295C193.66 118.295 195.113 118.295 196.573 118.335L200.96 118.408L209.86 118.595Z" fill="#EBEBEB"/>
<path d="M200 127.992L191.253 128.178L186.807 128.252C185.327 128.252 183.833 128.252 182.347 128.285H182.053V127.985L182 120.546V120.213H182.333L191.16 120.253C194.1 120.253 197.047 120.326 199.987 120.359H200.173V120.546C200.173 121.811 200.12 123.063 200.087 124.309L200 127.992ZM200 127.992L199.907 124.222C199.873 122.983 199.833 121.758 199.82 120.539L200 120.719C197.06 120.752 194.113 120.826 191.173 120.826L182.347 120.872L182.68 120.539L182.667 127.992L182.367 127.692C183.82 127.692 185.273 127.692 186.733 127.732L191.113 127.805L200 127.992Z" fill="#EBEBEB"/>
<path d="M219.707 127.992L210.96 128.178L206.52 128.252C205.033 128.252 203.547 128.252 202.053 128.285H201.76V127.985L201.72 120.546V120.213H202.053L210.88 120.253C213.827 120.253 216.767 120.326 219.707 120.359H219.893V120.546C219.893 121.811 219.833 123.063 219.807 124.309L219.707 127.992ZM219.707 127.992L219.613 124.222C219.613 122.983 219.54 121.758 219.527 120.539L219.707 120.719C216.767 120.752 213.827 120.826 210.88 120.826L202.053 120.872L202.387 120.539L202.353 127.992L202.053 127.692C203.513 127.692 204.96 127.692 206.42 127.732L210.807 127.805L219.707 127.992Z" fill="#EBEBEB"/>
<path d="M65.92 167.905L57.1733 168.092L52.7267 168.165C51.2467 168.165 49.7533 168.165 48.2667 168.198H48V167.899V160.446V160.113H48.3333L57.16 160.153C60.1 160.153 63.0467 160.226 65.9867 160.26H66.1733V160.439C66.1733 161.705 66.12 162.957 66.0867 164.202L65.92 167.905ZM65.92 167.905L65.8267 164.136C65.8267 162.897 65.7533 161.671 65.74 160.453L65.92 160.633C62.98 160.666 60.0333 160.739 57.0933 160.739L48.2667 160.786L48.6 160.453L48.5667 167.905L48.2667 167.606C49.72 167.606 51.1733 167.606 52.6333 167.645L57.0133 167.719L65.92 167.905Z" fill="#EBEBEB"/>
<path d="M358.573 118.588L349.827 118.774L345.387 118.848C343.9 118.881 342.407 118.848 340.92 118.881H340.627V118.581L340.587 111.129V110.796H340.92L349.747 110.836C352.693 110.836 355.633 110.916 358.573 110.949H358.76V111.129C358.76 112.394 358.707 113.653 358.673 114.892L358.573 118.588ZM358.573 118.588L358.48 114.825C358.447 113.58 358.407 112.354 358.393 111.135L358.573 111.315C355.633 111.348 352.693 111.422 349.747 111.428L340.92 111.468L341.253 111.135L341.22 118.588L340.92 118.288C342.373 118.288 343.827 118.288 345.287 118.328L349.673 118.401L358.573 118.588Z" fill="#EBEBEB"/>
<path d="M460.56 46.207L451.813 46.3935L447.367 46.4668C445.887 46.4668 444.393 46.4668 442.907 46.5068H442.613V46.207V38.7545V38.4215H442.947L451.773 38.4615C454.713 38.4615 457.66 38.5414 460.6 38.5747H460.787V38.7545C460.787 40.0199 460.733 41.2786 460.7 42.5174L460.56 46.207ZM460.56 46.207L460.467 42.4441C460.433 41.1987 460.393 39.9733 460.38 38.7545L460.56 38.9343C457.62 38.9343 454.673 39.0409 451.733 39.0476L442.907 39.0875L443.24 38.7545L443.207 46.207L442.907 45.9073C444.36 45.9073 445.813 45.9073 447.273 45.9473L451.653 46.0206L460.56 46.207Z" fill="#EBEBEB"/>
<path d="M470.407 55.6043L461.66 55.7908L457.22 55.8641C455.733 55.8974 454.24 55.8641 452.753 55.8974H452.46V55.5977L452.42 48.1451V47.8121H452.753L461.58 47.8521C464.527 47.8521 467.467 47.932 470.407 47.9653H470.593V48.1451C470.593 49.4105 470.533 50.6693 470.5 51.908L470.407 55.6043ZM470.407 55.6043L470.313 51.8414C470.313 50.596 470.24 49.3706 470.227 48.1518L470.407 48.3316C467.467 48.3649 464.527 48.4382 461.58 48.4448L452.753 48.4848L453.087 48.1518V55.6043L452.787 55.3046C454.24 55.3046 455.693 55.3046 457.153 55.3446L461.54 55.4179L470.407 55.6043Z" fill="#EBEBEB"/>
<path d="M46.2267 46.2136L37.4733 46.4001L33.0333 46.4734C31.5533 46.4734 30.06 46.4734 28.5733 46.5133H28.2733V46.2136V38.7611V38.4281H28.6133L37.44 38.4747C40.38 38.4747 43.32 38.548 46.2667 38.5813H46.4467V38.7611C46.4467 40.0265 46.3867 41.2852 46.36 42.5307L46.2267 46.2136ZM46.2267 46.2136L46.1267 42.4507C46.1267 41.2053 46.0533 39.9799 46.04 38.7611L46.2267 38.9409C43.28 38.9809 40.34 39.0475 37.4 39.0541L28.5733 39.0941L28.9067 38.7611L28.8667 46.2136L28.5733 45.9539C30.0267 45.9539 31.4733 45.9539 32.9333 45.9539L37.32 46.0272L46.2267 46.2136Z" fill="#EBEBEB"/>
<path d="M262.453 138.654C261.635 139.426 260.621 139.959 259.52 140.193C258.853 140.366 258.113 140.466 257.407 140.592H254.993C254 140.439 252.993 140.319 252.027 140.126C248.414 139.352 244.992 137.867 241.96 135.757C233.975 130.484 227.248 123.522 222.253 115.364C220.579 112.673 219.426 109.69 218.853 106.573C218.707 105.754 218.593 104.928 218.467 104.102V101.691C218.667 100.766 218.827 99.8266 219.073 98.9142C219.316 98.0578 219.776 97.2782 220.407 96.6498C220.527 96.7563 220.633 96.8429 220.74 96.9495C224.58 100.781 228.422 104.613 232.267 108.445C232.391 108.548 232.48 108.688 232.521 108.844C232.561 109.001 232.552 109.166 232.493 109.317C232.201 110.267 232.162 111.276 232.379 112.245C232.597 113.215 233.064 114.111 233.733 114.845C237.013 118.566 240.524 122.076 244.247 125.354C244.989 126.028 245.894 126.495 246.873 126.711C247.851 126.928 248.87 126.885 249.827 126.586C250.107 126.513 250.307 126.467 250.547 126.706C254.471 130.649 258.404 134.583 262.347 138.508C262.367 138.528 262.393 138.588 262.453 138.654Z" fill="#EBEBEB"/>
<path d="M270 130.043V130.842C269.652 131.343 269.276 131.823 268.873 132.281C267.687 133.513 266.46 134.705 265.253 135.91L264.88 136.263L253.027 124.429C254.58 122.897 256.127 121.332 257.727 119.807C257.9 119.646 258.104 119.521 258.326 119.441C258.549 119.36 258.785 119.325 259.022 119.338C259.258 119.35 259.489 119.41 259.702 119.513C259.915 119.617 260.104 119.762 260.26 119.94C261.153 120.806 262.02 121.691 262.927 122.564C264.987 124.628 267.06 126.68 269.1 128.758C269.433 129.162 269.734 129.592 270 130.043Z" fill="#EBEBEB"/>
<path d="M238.927 101.751C237.46 103.17 235.96 104.555 234.507 105.927L222.747 94.1856C223.007 93.9525 223.307 93.7061 223.58 93.4397C224.66 92.3674 225.72 91.2685 226.82 90.2163C227.267 89.8246 227.736 89.4599 228.227 89.124H229.033C229.483 89.3998 229.911 89.7093 230.313 90.0498C233.193 92.9002 236.062 95.764 238.92 98.6412C240 99.7201 240 100.692 238.927 101.751Z" fill="#EBEBEB"/>
<path d="M41.84 108.285H118.993V59.3872H41.84V108.285Z" fill="#EBEBEB"/>
<path d="M133.427 108.285H118.993V93.2666L133.427 108.285Z" fill="#EBEBEB"/>
<path d="M110.06 67.8387H50.7667V68.7711H110.06V67.8387Z" fill="white"/>
<path d="M81.4133 72.8604H50.7667V73.7928H81.4133V72.8604Z" fill="white"/>
<path d="M98.7133 82.897H50.7667V83.8294H98.7133V82.897Z" fill="white"/>
<path d="M110.06 87.912H50.7667V88.8444H110.06V87.912Z" fill="white"/>
<path d="M110.06 92.9269H50.7667V93.8593H110.06V92.9269Z" fill="white"/>
<path d="M71.8333 97.9486H50.7667V98.881H71.8333V97.9486Z" fill="white"/>
<path d="M458.16 127.812H381.007V170.936H458.16V127.812Z" fill="#DBDBDB"/>
<path d="M366.573 170.942H381.007V155.924L366.573 170.942Z" fill="#DBDBDB"/>
<path d="M441.733 150.329H390.113V151.262H441.733V150.329Z" fill="white"/>
<path d="M431.12 155.351H390.113V156.283H431.12V155.351Z" fill="white"/>
<path d="M434.213 140.293H390.113V141.225H434.213V140.293Z" fill="white"/>
<path d="M447.693 135.278H390.113V136.21H447.693V135.278Z" fill="white"/>
<path d="M435.373 160.366H390.113V161.298H435.373V160.366Z" fill="white"/>
<path d="M419.18 81.9779H277.507V88.185H419.18V81.9779Z" fill="#EBEBEB"/>
<path d="M291.66 88.1917H285.447V108.718H291.66V88.1917Z" fill="#EBEBEB"/>
<path d="M291.66 88.1917H285.447V94.5386H291.66V88.1917Z" fill="#DBDBDB"/>
<path d="M411.24 88.1917H405.027V108.718H411.24V88.1917Z" fill="#EBEBEB"/>
<path d="M411.24 88.1917H405.027V94.5386H411.24V88.1917Z" fill="#DBDBDB"/>
<path d="M313.927 81.9779V42.4242H303.953V81.9779H313.927Z" fill="#C7C7C7"/>
<path d="M313.927 44.6553V40.3063H303.953V44.6553H313.927Z" fill="#DBDBDB"/>
<path d="M313.92 51.8413V50.2296H303.947V51.8413H313.92Z" fill="#DBDBDB"/>
<path d="M315.167 76.7964V72.4474H303.953V76.7964H315.167Z" fill="#DBDBDB"/>
<path d="M320.893 81.9779V35.8374H313.927V81.9779H320.893Z" fill="#DBDBDB"/>
<path d="M319.473 57.922V40.1731H315.293V57.922H319.473Z" fill="#EBEBEB"/>
<path d="M370.446 77.0493L337.6 44.6115L332.702 49.561L365.548 81.9988L370.446 77.0493Z" fill="#C7C7C7"/>
<path d="M361.778 70.4161L349.143 57.9382L346.205 60.9079L358.84 73.3858L361.778 70.4161Z" fill="#DBDBDB"/>
<path d="M332.72 81.9912V46.9396H320.887V81.9912H332.72Z" fill="#A6A6A6"/>
<path d="M332.72 78.2683V75.0049H320.887V78.2683H332.72Z" fill="#C7C7C7"/>
<path d="M332.72 72.867V71.6016H320.887V72.867H332.72Z" fill="#C7C7C7"/>
<path d="M303.953 81.9913V49.0509H295.78V81.9913H303.953Z" fill="#A6A6A6"/>
<path d="M303.953 78.4947V75.4244H295.78V78.4947H303.953Z" fill="#C7C7C7"/>
<path d="M303.953 58.9077V55.8374H295.78V58.9077H303.953Z" fill="#C7C7C7"/>
<path d="M303.953 62.2044V61.0122H295.78V62.2044H303.953Z" fill="#C7C7C7"/>
<path d="M404.287 66.6333L403.4 68.9843L402.853 70.4162L401.96 72.7738L398.48 81.9846H379.66L376.167 72.7738L375.273 70.4162L374.733 68.9843L373.84 66.6333L380.787 56.5168L377.187 49.8501H400.96L397.34 56.5168L404.287 66.6333Z" fill="#DBDBDB"/>
<path d="M404.287 66.6333L403.4 68.9843H374.733L373.84 66.6333H404.287Z" fill="#A6A6A6"/>
<path d="M402.853 70.4161L401.96 72.7738H376.167L375.273 70.4161H402.853Z" fill="#A6A6A6"/>
<path d="M37.2133 261.492L90.4133 261.332L143.607 261.272L250 261.165L356.393 261.272L409.587 261.332L462.787 261.492L409.587 261.658L356.393 261.718L250 261.825L143.607 261.718L90.4133 261.658L37.2133 261.492Z" fill="#263238"/>
<path d="M244.227 261.478H326L309.7 166.726H248.547L244.227 261.478Z" fill="#DBDBDB"/>
<path d="M244.227 261.478H251.4L255.42 166.726H248.547L244.227 261.478Z" fill="#A6A6A6"/>
<path d="M315.28 185.301C324.533 205.947 346.893 240.213 356.9 231.721C371.867 219.027 382 190.949 386 179.594C388.247 173.233 355.813 162.591 353.827 168.365C351 176.57 346.567 193.719 344 196.15C342.667 197.422 332.04 182.524 324 175.458C312.393 165.275 312.327 178.708 315.28 185.301Z" fill="#AD6359"/>
<path d="M394.1 170.037C391.213 176.523 380.1 187.492 376.407 189.111C372.713 190.729 353.207 173.127 353.613 168.984C354.02 164.842 365.66 143.143 372.107 139.813C378.553 136.483 397.093 163.31 394.1 170.037Z" fill="#AD6359"/>
<path d="M355.14 164.429C355.14 164.429 355.607 155.198 353.273 147.392C351.313 140.832 347.667 131.315 351.153 130.13C358.327 127.699 367.42 151.442 367.42 151.442C367.42 151.442 369.753 162.564 362.867 165.601C358.547 167.506 355.14 164.429 355.14 164.429Z" fill="#AD6359"/>
<path d="M363.227 146.92C363.693 150.656 367.833 147.965 367.833 147.965C367.833 147.965 362.813 153.293 364.787 156.936C366.707 160.459 371.587 157.03 371.94 156.79C371.673 157.076 367.193 162.071 369.56 165.548C372.02 169.157 376.327 164.882 376.607 164.602C376.44 164.942 374.347 169.544 376.747 171.781C380.867 175.611 386.547 163.996 390.92 162.697C390.92 162.697 393.973 169.843 394.1 170.023C394.1 170.023 399.733 159.074 397.653 153.28C397.362 152.433 396.79 151.712 396.033 151.233C395.275 150.755 394.377 150.549 393.487 150.649C393.487 150.649 395.693 147.319 393.92 144.522C393 143.09 389.92 143.277 389.92 143.277C389.92 143.277 391.573 140.539 389.84 138.155C388.46 136.244 385.56 136.73 385.56 136.73C385.56 136.73 385.927 133.36 383.887 131.868C379.74 128.858 362.22 138.921 363.227 146.92Z" fill="#AD6359"/>
<path d="M385.06 136.75C385.12 136.717 385.06 136.63 385.027 136.65C378.453 138.555 371.82 142.644 367.593 148.085C367.453 148.265 367.68 148.565 367.873 148.398C373.333 143.636 378.5 139.86 385.06 136.75Z" fill="#263238"/>
<path d="M389.96 143.19C390.033 143.157 389.96 143.037 389.9 143.057C383.133 145.055 375.793 149.89 371.653 156.716C371.513 156.95 371.62 157.303 371.807 157.049C374.9 152.734 384.04 145.967 389.96 143.19Z" fill="#263238"/>
<path d="M376.48 165.168C380.7 158.774 386.547 154.372 393.207 150.716C393.287 150.669 393.207 150.556 393.133 150.576C389.387 151.475 385.387 154.246 382.467 156.67C379.703 158.863 377.565 161.743 376.267 165.021C376.207 165.168 376.393 165.315 376.48 165.168Z" fill="#263238"/>
<path d="M367.7 147.959C367.533 148.172 368.033 148.178 367.873 148.398C367.207 149.317 363.64 155.211 365.273 157.056C366.607 158.528 369.467 157.782 370.467 157.056L372.967 155.251L371.247 157.842C370.473 158.977 369.887 160.23 369.513 161.552C369.306 162.154 369.23 162.793 369.288 163.426C369.347 164.06 369.539 164.674 369.853 165.228C370.148 165.741 370.61 166.137 371.163 166.35C371.715 166.562 372.324 166.577 372.887 166.393C374.141 165.962 375.263 165.217 376.147 164.229L378.68 161.565L377.16 164.895C376.735 165.816 376.428 166.787 376.247 167.785C376.043 168.724 376.119 169.701 376.467 170.596C376.639 170.99 376.917 171.329 377.27 171.575C377.623 171.82 378.037 171.963 378.467 171.988C379.44 171.889 380.365 171.515 381.133 170.909C382.817 169.624 384.397 168.21 385.86 166.68C386.627 165.934 387.393 165.181 388.2 164.462C388.958 163.705 389.866 163.115 390.867 162.73C389.916 163.212 389.069 163.875 388.373 164.682C387.633 165.448 386.927 166.247 386.22 167.053C384.831 168.716 383.291 170.248 381.62 171.628C380.724 172.388 379.626 172.871 378.46 173.02C377.817 173.026 377.186 172.847 376.643 172.503C376.1 172.159 375.669 171.666 375.4 171.082C374.933 169.983 374.806 168.771 375.033 167.599C375.213 166.485 375.538 165.399 376 164.369L377.013 165.035C375.986 166.219 374.667 167.115 373.187 167.632C372.357 167.897 371.461 167.864 370.653 167.539C369.873 167.197 369.213 166.629 368.76 165.907C368.363 165.205 368.12 164.426 368.046 163.622C367.973 162.818 368.071 162.008 368.333 161.245C368.759 159.798 369.424 158.431 370.3 157.203L371.08 157.962C369.747 158.828 366.653 160.013 364.327 157.995C361.753 154.872 366.72 148.971 367.7 147.959Z" fill="#263238"/>
<path d="M367.833 147.965C367.113 148.252 366.353 148.43 365.58 148.491C365.269 148.523 364.956 148.472 364.672 148.342C364.389 148.212 364.145 148.008 363.967 147.752C363.653 147.136 363.525 146.442 363.6 145.754C363.64 144.995 363.72 144.202 363.84 143.383C363.332 144.052 362.973 144.822 362.787 145.641C362.658 146.083 362.619 146.546 362.67 147.003C362.722 147.46 362.863 147.903 363.087 148.305C363.378 148.723 363.79 149.043 364.267 149.224C364.726 149.374 365.218 149.392 365.687 149.277C366.523 149.077 367.274 148.618 367.833 147.965Z" fill="#263238"/>
<path d="M351.853 168.984L385.613 192.474C385.613 192.474 365.447 234.212 352.987 234.099C340.527 233.986 322.527 202.724 316.32 189.211C310.113 175.698 313.813 164.249 326.373 176.557C338.933 188.864 343.433 193.939 343.84 193.773C344.6 193.466 351.853 168.984 351.853 168.984Z" fill="#9DA8EA"/>
<path d="M385.613 192.474C385.613 192.474 371.613 221.418 359.753 231.035C357.373 232.967 355.087 234.119 352.987 234.092C340.527 233.986 322.527 202.717 316.287 189.211C312.427 180.846 312.393 173.273 315.9 171.642C318.067 170.636 321.567 171.875 326.347 176.577C339.013 188.971 343.4 193.953 343.813 193.786C344.6 193.466 351.86 168.991 351.86 168.991L385.613 192.474Z" fill="#9DA8EA"/>
<path d="M364.72 226.107C364.307 226.587 363.887 227.053 363.467 227.506C359.668 229.895 355.405 231.455 350.96 232.081C349.734 232.216 348.5 232.265 347.267 232.228L346.5 231.748C347.972 231.837 349.448 231.799 350.913 231.635C352.667 231.443 354.393 231.046 356.053 230.449L357.313 230.036L358.533 229.524C358.94 229.351 359.36 229.204 359.753 229.004L360.933 228.405C362.246 227.725 363.511 226.958 364.72 226.107ZM339.107 189.337C335.254 191.088 331.741 193.502 328.727 196.47C326.772 198.394 324.964 200.462 323.32 202.657C323.4 202.804 323.487 202.957 323.58 203.103C325.244 200.872 327.078 198.772 329.067 196.823C331.592 194.344 334.47 192.25 337.607 190.609L338.787 190.01C339.003 189.9 339.226 189.802 339.453 189.717L339.107 189.337ZM368.267 191.462C365.065 189.896 361.715 188.654 358.267 187.752C357.907 187.666 357.547 187.579 357.18 187.506C356.947 187.452 356.707 187.399 356.473 187.359C353.559 186.749 350.568 186.596 347.607 186.906C347.173 186.966 346.747 187.033 346.313 187.113C346.267 187.266 346.213 187.426 346.167 187.572C346.66 187.486 347.16 187.412 347.66 187.353C350.409 187.063 353.185 187.177 355.9 187.692L356.627 187.825C357.14 187.932 357.653 188.045 358.167 188.172C361.586 189.052 364.909 190.27 368.087 191.808C372.847 194.141 377.464 196.754 381.913 199.634C381.98 199.52 382.04 199.407 382.093 199.301C377.645 196.415 373.028 193.798 368.267 191.462ZM371.767 182.844C366.362 183.067 361.095 184.618 356.433 187.359L355.86 187.692C354.683 188.397 353.545 189.166 352.453 189.997C346.74 194.339 342.18 199.92 337.84 205.534C335.667 208.352 333.533 211.189 331.28 213.933C331.12 214.132 330.953 214.326 330.787 214.525L331.04 214.892C331.233 214.665 331.427 214.439 331.613 214.226C333.88 211.475 336.02 208.638 338.2 205.827C342.54 200.233 347.093 194.692 352.747 190.409C353.972 189.476 355.254 188.619 356.587 187.845C356.767 187.732 356.953 187.626 357.14 187.526C358.693 186.655 360.311 185.907 361.98 185.288L363.227 184.835C363.64 184.689 364.073 184.589 364.5 184.462L365.773 184.109L367.107 183.849C368.828 183.462 370.589 183.278 372.353 183.303H372.433L371.767 182.844ZM330.333 180.519C328.004 181.553 325.57 182.333 323.073 182.844L321.773 183.097C321.34 183.177 320.9 183.203 320.44 183.263L319.107 183.416L317.773 183.47C316.556 183.554 315.333 183.532 314.12 183.403L314.24 183.843C319.875 184.254 325.523 183.237 330.66 180.886C330.587 180.759 330.46 180.639 330.333 180.519ZM320.72 172.248C318.359 173.85 315.911 175.319 313.387 176.65C313.387 176.83 313.387 177.01 313.387 177.196C316.08 175.789 318.685 174.219 321.187 172.494C321.027 172.408 320.873 172.321 320.72 172.248Z" fill="white"/>
<path d="M377.633 196.39C376.74 195.651 375.84 194.932 374.933 194.212C373.093 192.76 371.253 191.315 369.413 189.877C365.747 187.019 362 184.262 358.227 181.552C356.087 180.007 353.98 178.381 351.773 176.936C351.763 176.928 351.751 176.923 351.738 176.919C351.725 176.916 351.712 176.915 351.699 176.917C351.686 176.919 351.674 176.924 351.662 176.93C351.651 176.937 351.641 176.946 351.633 176.956C351.625 176.967 351.62 176.979 351.616 176.991C351.613 177.004 351.612 177.017 351.614 177.03C351.616 177.043 351.621 177.056 351.627 177.067C351.634 177.078 351.643 177.088 351.653 177.096C353.407 178.641 355.287 180.053 357.107 181.525C358.927 182.997 360.733 184.475 362.58 185.914C366.251 188.764 369.967 191.559 373.727 194.299C374.773 195.071 375.807 195.884 376.893 196.61C377.447 196.983 377.973 197.396 378.533 197.755C379.093 198.115 379.693 198.421 380.24 198.828C380.252 198.835 380.267 198.837 380.281 198.834C380.295 198.832 380.308 198.824 380.317 198.813C380.326 198.801 380.33 198.787 380.33 198.773C380.329 198.759 380.323 198.745 380.313 198.734C379.4 197.969 378.547 197.136 377.633 196.39Z" fill="#263238"/>
<path d="M344.1 193.027C342.811 196.506 341.751 200.066 340.927 203.683C340.487 205.468 340.14 207.273 339.8 209.071C339.44 210.858 339.2 212.667 339.08 214.485C339.08 214.552 339.18 214.552 339.193 214.485C339.753 212.747 340.167 210.936 340.567 209.157C340.967 207.379 341.42 205.588 341.82 203.829C342.627 200.246 343.573 196.697 344.273 193.093C344.278 193.082 344.28 193.07 344.279 193.058C344.279 193.046 344.276 193.034 344.272 193.022C344.267 193.011 344.259 193.001 344.251 192.993C344.242 192.985 344.231 192.978 344.22 192.974C344.209 192.969 344.196 192.967 344.184 192.967C344.172 192.968 344.16 192.97 344.149 192.975C344.138 192.98 344.128 192.987 344.119 192.996C344.111 193.005 344.104 193.015 344.1 193.027Z" fill="#263238"/>
<path opacity="0.1" d="M359.753 231.035C357.373 232.967 355.087 234.119 352.987 234.092C340.527 233.986 322.527 202.717 316.287 189.211C312.427 180.846 312.393 173.273 315.9 171.642L359.753 231.035Z" fill="black"/>
<path d="M340.427 261.478H259.38C258.487 259.84 271.767 188.924 299.1 168.951C305.167 164.522 315.927 167.372 318.913 171.681C333.953 193.333 340.427 261.478 340.427 261.478Z" fill="#9DA8EA"/>
<path d="M336.213 229.997C334.19 229.281 332.207 228.456 330.273 227.526C327.56 226.227 324.94 224.788 322.333 223.27L321.953 223.043C319.287 221.465 316.62 219.793 314.007 218.108L313.633 217.869L311.86 216.723C305.86 212.88 299.953 208.924 293.547 205.847C290.38 204.265 287.017 203.11 283.547 202.411C281.805 202.1 280.032 202.002 278.267 202.118C277.827 202.118 277.393 202.211 276.933 202.271C276.633 202.331 276.333 202.371 276.027 202.431C276.073 202.324 276.113 202.224 276.167 202.118C276.407 202.071 276.653 202.031 276.893 201.978C277.333 201.925 277.78 201.858 278.227 201.825C280.009 201.705 281.8 201.801 283.56 202.111C287.067 202.804 290.466 203.962 293.667 205.554C300.107 208.631 306.053 212.587 312.04 216.417L313.8 217.542L314.18 217.782C316.847 219.494 319.513 221.192 322.28 222.797L322.66 223.023C325.193 224.495 327.773 225.894 330.427 227.153C332.28 228.038 334.178 228.828 336.113 229.517L336.213 229.997ZM329 196.184L328.727 196.443C323.587 201.445 319.747 207.546 316.127 213.646C315.362 214.947 314.593 216.246 313.82 217.542C313.76 217.656 313.7 217.762 313.633 217.869C312.653 219.52 311.667 221.165 310.64 222.784C309.74 224.209 308.8 225.614 307.8 226.973C307.707 227.099 307.62 227.226 307.527 227.346C306.515 228.711 305.424 230.017 304.26 231.255C303.047 232.541 301.707 233.702 300.26 234.718L299.72 235.098C299.54 235.225 299.34 235.325 299.153 235.438L298.013 236.104C297.228 236.5 296.417 236.845 295.587 237.136C292.224 238.252 288.703 238.821 285.16 238.821C281.629 238.807 278.11 238.407 274.667 237.629C271.333 236.923 268.1 235.977 264.84 235.031C264.84 235.138 264.787 235.245 264.753 235.344C268.007 236.297 271.273 237.256 274.593 237.969C278.078 238.763 281.639 239.174 285.213 239.194C288.797 239.196 292.357 238.625 295.76 237.502C296.61 237.211 297.438 236.861 298.24 236.457L299.407 235.791C299.604 235.686 299.795 235.57 299.98 235.444L300.533 235.058C302.002 234.031 303.362 232.857 304.593 231.555C305.834 230.228 306.996 228.829 308.073 227.366C308.173 227.239 308.26 227.119 308.347 226.993C309.293 225.701 310.187 224.375 311.013 223.03C312.047 221.412 313.013 219.767 314.013 218.122L314.207 217.795L316.52 213.893C320.147 207.799 323.987 201.751 329.073 196.81L329.16 196.73C329.1 196.537 329.047 196.357 329 196.184ZM332.847 212.001C332.333 212.667 331.813 213.293 331.287 213.933C329.079 216.705 326.613 219.26 323.92 221.565C323.387 221.985 322.853 222.404 322.3 222.797L321.953 223.043C321.182 223.587 320.373 224.077 319.533 224.509L318.953 224.822C318.76 224.928 318.547 225.002 318.347 225.095L317.133 225.614C316.306 225.913 315.46 226.155 314.6 226.34C312.534 226.782 310.426 227.005 308.313 227.006H307.8C306.547 227.006 305.293 226.906 304.047 226.773C300.528 226.331 297.07 225.502 293.733 224.302C290.4 223.15 287.113 221.731 283.847 220.306C280.595 218.837 277.256 217.571 273.847 216.517C272.84 216.23 271.847 215.977 270.78 215.791L270.68 216.077C271.72 216.27 272.753 216.517 273.76 216.81C277.149 217.868 280.469 219.135 283.7 220.606C286.967 222.011 290.233 223.436 293.6 224.602C296.965 225.811 300.453 226.651 304 227.106C305.173 227.239 306.347 227.326 307.52 227.346C307.693 227.346 307.86 227.346 308.033 227.346C310.272 227.382 312.507 227.172 314.7 226.72C315.576 226.526 316.44 226.279 317.287 225.981L318.527 225.448C318.733 225.354 318.94 225.281 319.14 225.175L319.733 224.855C320.644 224.391 321.517 223.859 322.347 223.263L322.693 223.017C323.2 222.651 323.7 222.264 324.193 221.871C326.913 219.557 329.405 216.988 331.633 214.199C332.078 213.653 332.522 213.1 332.967 212.541C332.927 212.367 332.887 212.181 332.847 212.001ZM324.473 182.531C324.007 182.644 323.54 182.75 323.073 182.844L321.773 183.097C321.34 183.177 320.9 183.203 320.44 183.263L319.107 183.416L317.773 183.47C316.013 183.584 314.245 183.49 312.507 183.19C309.779 182.719 307.137 181.846 304.667 180.599L304 180.273C303.533 180.033 303.073 179.78 302.62 179.52C299.568 177.73 296.705 175.637 294.073 173.273L293.78 173.566C296.436 175.956 299.324 178.075 302.4 179.893C302.72 180.08 303.067 180.26 303.373 180.433L304.04 180.766C306.676 182.147 309.509 183.116 312.44 183.636C316.503 184.206 320.637 183.98 324.613 182.97C324.587 182.824 324.527 182.677 324.473 182.531ZM319.727 172.907C316.186 175.279 312.408 177.277 308.453 178.868C307.019 179.426 305.552 179.895 304.06 180.273L303.433 180.433C301.7 180.835 299.94 181.109 298.167 181.252L296.833 181.339C296.393 181.372 295.953 181.339 295.5 181.339H294.167L292.833 181.232C291.227 181.139 289.636 180.873 288.087 180.439C287.993 180.566 287.9 180.693 287.813 180.826C293.138 182.161 298.712 182.141 304.027 180.766L304.693 180.599C306.023 180.247 307.332 179.821 308.613 179.321C312.588 177.719 316.386 175.711 319.947 173.327L319.727 172.907ZM339.667 254.512C339 254.512 338.28 254.572 337.587 254.592H337.533L337.127 254.625C333.71 254.982 330.39 255.969 327.333 257.536C325.146 258.677 323.057 259.995 321.087 261.478H321.507C323.387 260.088 325.375 258.849 327.453 257.775C330.536 256.203 333.888 255.225 337.333 254.892H337.58H337.74C338.407 254.892 339.033 254.818 339.673 254.825C339.687 254.705 339.68 254.612 339.667 254.512ZM340.013 257.576C339.289 256.656 338.54 255.753 337.767 254.865C337.693 254.772 337.613 254.685 337.533 254.599L337.26 254.279C334.931 251.567 332.252 249.175 329.293 247.166C327.792 246.187 326.175 245.398 324.48 244.815C324.06 244.675 323.62 244.555 323.193 244.435C322.767 244.315 322.32 244.222 321.86 244.162C320.98 243.996 320.08 243.983 319.193 243.896C315.609 243.765 312.034 244.333 308.667 245.568C305.331 246.835 302.145 248.465 299.167 250.429C293.833 253.859 288.973 257.895 283.78 261.478H284C289.167 257.955 294 253.992 299.28 250.636C302.247 248.685 305.422 247.07 308.747 245.821C312.08 244.602 315.619 244.043 319.167 244.176C320.04 244.269 320.933 244.282 321.8 244.449C322.24 244.509 322.66 244.635 323.093 244.722C323.527 244.808 323.947 244.955 324.36 245.095C326.031 245.673 327.623 246.456 329.1 247.426C332.033 249.421 334.685 251.8 336.987 254.499C337.027 254.545 337.067 254.585 337.1 254.632L337.333 254.892C338.267 255.977 339.18 257.083 340.06 258.222C340.067 258.008 340.04 257.802 340 257.576H340.013Z" fill="white"/>
<path d="M288.34 177.642C271.84 196.71 249.6 230.389 258.687 237.835C273.627 250.076 317.26 257.149 327.273 258.335C331.593 258.854 340.247 230.642 337.36 226.993C334.473 223.343 288.34 220.766 288.027 217.935C287.847 216.33 294.853 202.371 299.36 185.248C304.54 165.508 292.987 172.268 288.34 177.642Z" fill="#AD6359"/>
<path d="M329.8 224.668C329.8 224.668 343.04 224.569 351.7 224.908C356.533 225.095 364.787 226.16 368.273 227.925C373.487 230.556 393.607 244.908 390.233 249.857C387.173 254.332 371.453 239.813 371.453 239.813C371.453 239.813 388.613 253.067 383.94 257.795C379.267 262.524 363.687 243.756 363.687 243.756C363.687 243.756 381.02 257.742 375.427 261.871C371.2 264.968 356.133 248.771 356.133 248.771C356.133 248.771 370.94 260.912 366.733 264.289C362.067 268.018 347.233 253.939 347.233 253.939C335.1 260.719 326.567 258.987 320.567 257.036C319.16 256.537 329.8 224.668 329.8 224.668Z" fill="#AD6359"/>
<path d="M365.813 234.852C367.887 236.337 369.993 237.822 371.927 239.514C373.86 241.205 375.733 242.904 377.507 244.742C381.847 249.244 383.86 252.734 383.707 252.534C380.213 247.745 373.387 241.691 371.453 240.026C369.52 238.361 367.673 236.61 365.747 234.951C365.7 234.878 365.767 234.818 365.813 234.852Z" fill="#263238"/>
<path d="M359.68 241.718C362.24 243.716 364.86 245.621 367.333 247.745C369.807 249.87 373.153 252.934 375.467 255.211C375.64 255.384 375.467 255.717 375.28 255.551C372.88 253.366 369.313 250.383 366.887 248.225C364.46 246.067 362.12 243.823 359.627 241.765C359.587 241.758 359.64 241.685 359.68 241.718Z" fill="#263238"/>
<path d="M353.333 246.66C357.407 249.53 360.947 253.147 364.333 256.776C364.507 256.956 364.333 256.983 364.12 256.81C360.527 253.38 357.727 250.662 353.233 246.82C353.18 246.74 353.267 246.6 353.333 246.66Z" fill="#263238"/>
<path d="M327.94 224.249C333.98 224.209 351.72 224.162 357.747 224.628C363.08 225.035 367.473 226.18 371.947 229.137C381.547 235.478 387.733 242.924 389.28 245.121C390.213 246.453 391.567 248.604 390.333 250.096C388.82 251.908 383.253 250.136 377.38 244.828C377.167 244.635 377.3 244.515 377.52 244.695C385.767 251.355 389.047 250.596 389.907 249.457C390.467 248.718 389.907 247.459 389.427 246.46C388.624 245.046 387.642 243.741 386.507 242.577C382.719 238.529 378.528 234.876 374 231.675C369.148 228.057 363.369 225.889 357.333 225.421C351.16 224.915 334.08 225.075 327.913 224.482C327.787 224.442 327.807 224.256 327.94 224.249Z" fill="#263238"/>
<path d="M384.92 255.131C384.58 253.486 383.393 251.981 382.453 250.622C381.311 248.913 380 247.322 378.54 245.874C378.48 245.814 378.367 245.874 378.427 245.967C379.67 247.42 380.826 248.945 381.887 250.536C382.451 251.411 382.963 252.318 383.42 253.253C383.853 254.152 384.367 255.191 384.14 256.217C383.713 258.175 381.22 258.128 379.747 257.602C378.792 257.243 377.873 256.797 377 256.27C375.811 255.513 374.683 254.665 373.627 253.733C373.54 253.653 373.3 253.686 373.393 253.773C375.593 255.864 379.76 260.213 383.16 258.621C383.813 258.333 384.345 257.828 384.666 257.191C384.987 256.555 385.077 255.827 384.92 255.131Z" fill="#263238"/>
<path d="M330 222.957L314.14 258.921C314.14 258.921 258.713 246.42 255.5 235.911C252.287 225.401 269.653 197.283 285.327 179.727C300.74 162.477 303.02 174.179 299.187 187.519C295.353 200.859 289.067 216.237 289.767 217.389C290.467 218.541 330 222.957 330 222.957Z" fill="#9DA8EA"/>
<path d="M293.333 205.394C293.293 205.494 293.26 205.601 293.22 205.701C290.141 204.188 286.878 203.082 283.513 202.411C281.772 202.1 279.999 202.002 278.233 202.118C277.793 202.118 277.36 202.211 276.9 202.271C276.44 202.331 276.033 202.404 275.607 202.524C274.74 202.71 273.92 203.043 273.073 203.303C269.807 204.545 266.81 206.404 264.247 208.778L264.667 208.052C267.112 205.895 269.925 204.196 272.973 203.037C273.827 202.77 274.66 202.431 275.54 202.244C275.973 202.124 276.42 202.071 276.873 201.978C277.327 201.885 277.76 201.858 278.207 201.825C279.99 201.705 281.78 201.801 283.54 202.111C286.933 202.775 290.226 203.879 293.333 205.394ZM322.667 223.023L322.287 222.797L320.767 221.898L319.847 221.791C320.513 222.211 321.24 222.637 321.94 223.043L322.32 223.27C324.32 224.435 326.32 225.554 328.373 226.6L328.533 226.234C326.56 225.215 324.607 224.142 322.667 223.023ZM311.847 220.819C311.447 221.485 311.04 222.151 310.627 222.784C309.727 224.209 308.787 225.614 307.787 226.973C307.693 227.099 307.607 227.226 307.513 227.346C306.501 228.711 305.411 230.017 304.247 231.255C303.033 232.541 301.693 233.701 300.247 234.718L299.707 235.098C299.527 235.225 299.327 235.324 299.14 235.438L298 236.104C297.214 236.5 296.404 236.845 295.573 237.136C292.21 238.252 288.69 238.821 285.147 238.821C281.62 238.806 278.106 238.406 274.667 237.629C271.193 236.89 267.787 235.884 264.367 234.892C261.333 234.012 258.28 233.127 255.16 232.547C255.16 232.654 255.16 232.76 255.16 232.86C258.247 233.44 261.267 234.332 264.287 235.205C267.7 236.204 271.12 237.203 274.607 237.968C278.091 238.763 281.653 239.174 285.227 239.194C288.81 239.196 292.371 238.625 295.773 237.502C296.623 237.211 297.451 236.861 298.253 236.457L299.42 235.791C299.617 235.686 299.809 235.57 299.993 235.444L300.547 235.058C302.015 234.031 303.376 232.857 304.607 231.555C305.848 230.228 307.01 228.829 308.087 227.366C308.187 227.239 308.273 227.119 308.36 226.993C309.307 225.701 310.2 224.375 311.027 223.03C311.48 222.324 311.92 221.605 312.36 220.892L311.847 220.819ZM323.127 222.151C322.853 222.364 322.573 222.577 322.287 222.777L321.94 223.023C321.168 223.567 320.36 224.057 319.52 224.489L318.94 224.802C318.747 224.908 318.533 224.981 318.333 225.075L317.12 225.594C316.293 225.893 315.446 226.135 314.587 226.32C312.52 226.762 310.413 226.985 308.3 226.986H307.787C306.533 226.986 305.28 226.886 304.033 226.753C300.515 226.311 297.056 225.482 293.72 224.282C290.387 223.13 287.1 221.711 283.833 220.286C280.582 218.817 277.242 217.551 273.833 216.497C270.413 215.518 266.767 214.985 263.227 215.677C262.1 215.904 261.01 216.282 259.987 216.803C259.92 216.936 259.853 217.076 259.793 217.209C260.889 216.626 262.063 216.204 263.28 215.957C266.76 215.291 270.36 215.811 273.747 216.79C277.136 217.847 280.456 219.115 283.687 220.586C286.953 221.991 290.22 223.416 293.587 224.582C296.956 225.799 300.447 226.646 304 227.106C305.173 227.239 306.347 227.326 307.52 227.346C307.693 227.346 307.86 227.346 308.033 227.346C310.272 227.382 312.507 227.172 314.7 226.72C315.577 226.526 316.44 226.279 317.287 225.98L318.527 225.448C318.733 225.354 318.94 225.281 319.14 225.175L319.733 224.855C320.644 224.391 321.517 223.859 322.347 223.263L322.693 223.017C323.04 222.764 323.36 222.497 323.733 222.231L323.127 222.151ZM294.1 173.24C293.813 172.987 293.533 172.74 293.253 172.481L292.893 172.714L293.827 173.546C295.997 175.488 298.315 177.258 300.76 178.841C300.76 178.675 300.76 178.508 300.76 178.348C298.42 176.821 296.198 175.12 294.113 173.26L294.1 173.24ZM298.153 181.232L296.82 181.319C296.38 181.352 295.94 181.319 295.487 181.319H294.153L292.82 181.212C291.057 181.107 289.312 180.798 287.62 180.293C286.88 180.073 286.147 179.82 285.427 179.527L285.267 179.707L285.113 179.88C285.891 180.205 286.685 180.488 287.493 180.726C291.716 181.852 296.125 182.097 300.447 181.445C300.447 181.279 300.493 181.119 300.52 180.952C299.78 181.099 298.973 181.192 298.167 181.252L298.153 181.232ZM319.193 243.876C315.608 243.751 312.032 244.326 308.667 245.568C305.331 246.835 302.145 248.465 299.167 250.429C297.5 251.508 295.873 252.64 294.267 253.806L294.527 253.879C296.087 252.754 297.667 251.668 299.287 250.636C302.254 248.685 305.429 247.07 308.753 245.821C312.087 244.602 315.626 244.043 319.173 244.176C319.633 244.222 320.093 244.249 320.553 244.289L320.68 244.009C320.207 243.969 319.7 243.943 319.207 243.896L319.193 243.876Z" fill="white"/>
<path d="M307.78 252.973C308.32 251.948 308.84 250.922 309.36 249.89C310.404 247.799 311.444 245.703 312.48 243.603C314.533 239.434 316.48 235.211 318.353 230.949C319.427 228.538 320.593 226.154 321.56 223.696C321.571 223.671 321.573 223.643 321.563 223.618C321.554 223.592 321.535 223.571 321.51 223.56C321.485 223.548 321.457 223.547 321.431 223.556C321.406 223.566 321.385 223.585 321.373 223.61C320.22 225.641 319.22 227.765 318.153 229.85C317.087 231.935 316 233.999 314.973 236.104C312.929 240.273 310.947 244.475 309.027 248.711C308.487 249.897 307.9 251.069 307.413 252.281C307.16 252.9 306.867 253.5 306.62 254.126C306.373 254.752 306.187 255.391 305.953 256.01C305.95 256.017 305.949 256.024 305.948 256.031C305.948 256.039 305.949 256.046 305.951 256.053C305.954 256.059 305.958 256.066 305.963 256.071C305.968 256.076 305.973 256.081 305.98 256.084C305.987 256.087 305.994 256.089 306.001 256.089C306.008 256.089 306.015 256.088 306.022 256.086C306.029 256.083 306.035 256.079 306.041 256.074C306.046 256.07 306.05 256.064 306.053 256.057C306.593 255.025 307.227 254.026 307.78 252.973Z" fill="#263238"/>
<path d="M315.333 256.45L314.22 258.967L314.187 259.047H314.08C308.833 258.075 303.62 256.909 298.44 255.611C293.26 254.312 288.12 252.84 283.033 251.202C277.929 249.59 272.922 247.682 268.04 245.488C265.59 244.387 263.224 243.109 260.96 241.665C259.83 240.929 258.762 240.103 257.767 239.194C256.74 238.314 255.953 237.189 255.48 235.924C256.07 237.112 256.931 238.146 257.993 238.941C259.046 239.748 260.163 240.468 261.333 241.092C263.649 242.378 266.04 243.523 268.493 244.522C273.393 246.553 278.427 248.285 283.487 249.91C288.547 251.535 293.653 253.047 298.773 254.499C303.893 255.95 309.033 257.389 314.18 258.768L314.047 258.834L315.333 256.45Z" fill="#263238"/>
<path d="M329.367 224.355L329.92 222.924L329.98 223.023C324.42 222.657 318.867 222.211 313.313 221.631C307.76 221.052 302.24 220.419 296.72 219.594C295.34 219.38 293.96 219.154 292.58 218.888C291.913 218.748 291.2 218.615 290.487 218.415C290.307 218.361 290.133 218.308 289.94 218.235C289.829 218.199 289.722 218.152 289.62 218.095C289.542 218.053 289.468 218.004 289.4 217.949C289.328 217.888 289.267 217.816 289.22 217.735C289.193 217.683 289.168 217.63 289.147 217.576C289.143 217.549 289.143 217.522 289.147 217.496C289.12 217.242 289.133 216.986 289.187 216.736C289.22 216.557 289.253 216.363 289.3 216.197C290.007 213.433 290.9 210.822 291.807 208.205C293.62 202.937 295.593 197.735 297.673 192.567C296.067 197.895 294.42 203.223 292.78 208.551C291.993 211.215 291.127 213.879 290.52 216.543C290.48 216.71 290.46 216.863 290.427 217.023C290.393 217.183 290.427 217.369 290.393 217.302C290.386 217.267 290.372 217.233 290.353 217.203C290.353 217.136 290.233 217.069 290.26 217.083C290.287 217.096 290.227 217.083 290.26 217.083L290.427 217.149L290.867 217.289C291.533 217.462 292.2 217.589 292.867 217.722C294.2 217.968 295.593 218.182 296.96 218.388C299.707 218.801 302.458 219.189 305.213 219.554L313.487 220.666C319 221.398 324.513 222.184 330.027 222.99H330.127L330.087 223.077L329.367 224.355Z" fill="#263238"/>
<path d="M298.267 195.977C297.875 196.917 297.381 197.81 296.793 198.641C296.241 199.491 295.567 200.256 294.793 200.912C295.3 200.026 295.84 199.187 296.413 198.355C296.97 197.516 297.589 196.722 298.267 195.977Z" fill="#263238"/>
<path d="M314.42 183.676C309.713 185.008 301.233 178.128 297.753 172.394C297.513 172.001 298.46 155.804 298.313 152.574C298.313 151.908 318.807 156.57 318.807 156.57C318.807 156.57 317.12 163.43 317.413 169.058C317.433 169.537 318.96 182.384 314.42 183.676Z" fill="#AD6359"/>
<path d="M298 162.717C307.593 169.484 316.94 166.886 317.333 166.766C317.491 163.333 317.966 159.922 318.753 156.577C318.753 156.577 298.22 151.915 298.253 152.581C298.373 154.092 298.207 158.461 298 162.717Z" fill="#263238"/>
<path d="M318.707 143.23C319.233 148.012 323.067 151.515 327.26 151.049C331.453 150.583 334.433 146.34 333.927 141.565C333.42 136.79 329.573 133.28 325.373 133.746C321.173 134.212 318.18 138.455 318.707 143.23Z" fill="#455A64"/>
<path d="M316.28 143.803C316.867 149.131 321.127 153.014 325.793 152.501C330.46 151.988 333.793 147.266 333.187 141.945C332.58 136.623 328.347 132.734 323.673 133.247C319 133.76 315.693 138.488 316.28 143.803Z" fill="#C7C7C7"/>
<path d="M295.473 128.238C293.233 135.418 296.907 156.21 301.993 160.872C309.373 167.632 321.52 168.345 327.28 159.474C332.867 150.869 327.6 123.863 321.907 119.62C313.527 113.36 298.78 117.642 295.473 128.238Z" fill="#AD6359"/>
<path d="M312.767 141.292C312.767 141.245 312.673 141.379 312.687 141.438C312.993 142.824 313.12 144.469 311.947 145.175C311.907 145.175 311.947 145.268 311.947 145.248C313.473 144.735 313.287 142.557 312.767 141.292Z" fill="#263238"/>
<path d="M311.24 140.073C308.96 140.333 309.647 144.875 311.76 144.635C313.873 144.396 313.153 139.86 311.24 140.073Z" fill="#263238"/>
<path d="M320.86 140.2C320.86 140.146 320.98 140.253 320.987 140.313C321.153 141.725 321.587 143.31 322.927 143.59C322.967 143.59 322.98 143.67 322.927 143.67C321.333 143.683 320.793 141.565 320.86 140.2Z" fill="#263238"/>
<path d="M321.893 138.528C324.133 138.015 324.993 142.524 322.92 143.004C320.847 143.483 320 138.974 321.893 138.528Z" fill="#263238"/>
<path d="M309.133 138.268C309.705 138.005 310.262 137.709 310.8 137.383C311.43 137.153 311.966 136.722 312.327 136.157C312.405 135.957 312.414 135.737 312.354 135.531C312.294 135.325 312.167 135.145 311.993 135.018C311.614 134.819 311.188 134.726 310.76 134.747C310.332 134.768 309.918 134.903 309.56 135.138C308.756 135.5 308.117 136.148 307.767 136.956C307.697 137.145 307.683 137.35 307.728 137.546C307.773 137.742 307.874 137.921 308.019 138.06C308.165 138.199 308.347 138.293 308.545 138.33C308.743 138.367 308.948 138.346 309.133 138.268Z" fill="#263238"/>
<path d="M323.333 135.991C322.704 135.96 322.076 135.895 321.453 135.797C320.784 135.823 320.126 135.626 319.58 135.238C319.43 135.083 319.336 134.882 319.313 134.667C319.291 134.452 319.34 134.236 319.453 134.053C319.733 133.727 320.093 133.481 320.498 133.339C320.903 133.198 321.339 133.166 321.76 133.247C322.64 133.283 323.474 133.647 324.1 134.266C324.234 134.414 324.322 134.598 324.354 134.795C324.386 134.992 324.359 135.195 324.278 135.377C324.197 135.56 324.065 135.715 323.897 135.824C323.729 135.933 323.533 135.991 323.333 135.991Z" fill="#263238"/>
<path d="M313.54 154.472C313.927 154.752 314.333 155.138 314.873 155.138C315.395 155.05 315.893 154.853 316.333 154.559C316.341 154.549 316.353 154.543 316.365 154.542C316.378 154.54 316.39 154.544 316.4 154.552C316.41 154.56 316.416 154.571 316.417 154.584C316.418 154.596 316.415 154.609 316.407 154.619C316.249 154.927 316.009 155.186 315.714 155.368C315.419 155.55 315.08 155.648 314.733 155.651C314.436 155.621 314.153 155.503 313.923 155.312C313.693 155.121 313.525 154.866 313.44 154.579C313.38 154.512 313.48 154.432 313.54 154.472Z" fill="#263238"/>
<path d="M314.38 150.043C314.822 150.545 315.362 150.95 315.968 151.233C316.574 151.516 317.232 151.671 317.9 151.688C318.486 151.711 319.072 151.651 319.64 151.508C319.75 151.488 319.857 151.457 319.96 151.415C320.062 151.389 320.162 151.358 320.26 151.322C320.333 151.297 320.396 151.249 320.439 151.186C320.483 151.122 320.504 151.046 320.5 150.969C320.496 150.921 320.485 150.874 320.467 150.829V150.709C320.327 149.624 319.973 147.992 319.973 147.992C320.4 148.132 322.56 148.731 322.44 148.172C321.453 143.51 320.353 138.368 318.387 133.966C318.373 133.937 318.35 133.914 318.321 133.9C318.292 133.887 318.259 133.885 318.228 133.894C318.198 133.902 318.171 133.922 318.154 133.949C318.136 133.975 318.129 134.008 318.133 134.039C318.907 138.535 320.467 142.864 321.32 147.359C320.551 147.134 319.754 147.02 318.953 147.02C318.807 147.086 319.693 150.156 319.713 150.649C319.718 150.667 319.718 150.685 319.713 150.703C317.927 151.209 316.473 150.869 314.52 149.917C314.373 149.85 314.28 149.943 314.38 150.043Z" fill="#263238"/>
<path d="M318.913 151.055C318.439 151.917 317.75 152.642 316.913 153.16C316.446 153.426 315.909 153.542 315.373 153.493C314.207 153.366 314.04 152.341 314.093 151.428C314.138 150.943 314.238 150.465 314.393 150.003C315.749 150.826 317.333 151.194 318.913 151.055Z" fill="#263238"/>
<path d="M316.907 153.18C316.44 153.446 315.902 153.562 315.367 153.513C314.2 153.387 314.033 152.361 314.087 151.448C315.333 151.369 316.627 152.008 316.907 153.18Z" fill="#FF99BA"/>
<path opacity="0.2" d="M298.887 135.624C298.067 137.689 296.38 142.537 295.42 142.877C294.507 136.137 294.473 130.023 296.147 126.267C296.839 124.716 297.81 123.305 299.013 122.104C299.153 123.909 299.76 133.466 298.887 135.624Z" fill="#263238"/>
<path d="M316.92 125.987C316.349 126.976 315.534 127.801 314.552 128.384C313.57 128.967 312.455 129.288 311.313 129.317C310.151 129.348 309 129.081 307.97 128.542C306.94 128.004 306.064 127.212 305.427 126.24C305.423 126.234 305.418 126.229 305.413 126.224C305.407 126.22 305.401 126.217 305.394 126.215C305.387 126.213 305.38 126.213 305.373 126.214C305.366 126.215 305.359 126.217 305.353 126.22C305.347 126.224 305.342 126.228 305.338 126.234C305.333 126.24 305.33 126.246 305.328 126.253C305.326 126.26 305.326 126.267 305.327 126.274C305.328 126.281 305.33 126.287 305.333 126.294C305.913 127.378 306.779 128.283 307.836 128.911C308.894 129.539 310.103 129.866 311.333 129.857C312.538 129.789 313.705 129.405 314.714 128.745C315.724 128.084 316.542 127.17 317.087 126.094C317.101 126.072 317.106 126.045 317.1 126.019C317.094 125.994 317.079 125.971 317.057 125.957C317.035 125.943 317.008 125.938 316.982 125.944C316.956 125.95 316.934 125.965 316.92 125.987Z" fill="#263238"/>
<path d="M330.827 115.271C329.866 113.502 328.31 112.129 326.433 111.395C323.833 110.37 321.227 111.056 318.647 111.795C318.633 111.795 318.619 111.8 318.609 111.81C318.599 111.82 318.593 111.834 318.593 111.848C318.593 111.862 318.599 111.876 318.609 111.886C318.619 111.896 318.633 111.901 318.647 111.901C320.84 111.282 323.107 110.783 325.347 111.462C327.201 112.016 328.807 113.192 329.893 114.792C330.953 116.448 331.381 118.431 331.098 120.376C330.815 122.322 329.841 124.101 328.353 125.388C327.476 126.107 326.462 126.639 325.371 126.951C324.281 127.264 323.138 127.351 322.013 127.206C321.927 127.206 321.887 127.326 321.98 127.339C323.511 127.599 325.085 127.427 326.524 126.842C327.963 126.258 329.21 125.284 330.125 124.03C331.041 122.777 331.588 121.293 331.706 119.746C331.824 118.198 331.508 116.649 330.793 115.271H330.827Z" fill="#263238"/>
<path d="M294.867 132.388C294.867 132.388 290.047 126.2 292.38 121.732C293.713 119.194 299.453 118.495 299.453 118.495C299.453 118.495 300.787 115.558 305.327 113.653C309.867 111.748 315.993 112.867 315.993 112.867C315.993 112.867 320.067 109.484 324.733 111.162C331.24 113.506 332.067 122.637 326.627 126.567C322.8 129.331 316.48 126.627 316.48 126.627C315.947 126.793 310.947 131.135 305.853 126.893C305.853 126.893 302.953 130.543 299.493 128.944C299.166 129.921 298.547 130.775 297.72 131.39C296.893 132.006 295.897 132.354 294.867 132.388Z" fill="#263238"/>
<path d="M299.813 145.188C299.813 145.188 295.02 138.528 291.993 140.253C288.967 141.978 292.66 151.655 296.233 152.907C296.682 153.104 297.166 153.209 297.656 153.215C298.146 153.22 298.633 153.127 299.086 152.941C299.539 152.754 299.95 152.478 300.294 152.129C300.638 151.78 300.907 151.365 301.087 150.909L299.813 145.188Z" fill="#AD6359"/>
<path d="M293.113 143.01C293.053 143.01 293.047 143.084 293.113 143.103C295.64 144.089 296.993 146.394 297.953 148.791C297.193 147.872 296.173 147.379 294.94 148.285C294.873 148.332 294.94 148.432 295.007 148.418C295.446 148.278 295.917 148.277 296.358 148.414C296.798 148.551 297.185 148.82 297.467 149.184C297.941 149.804 298.346 150.474 298.673 151.182C298.793 151.402 299.193 151.275 299.107 151.022V150.962C299.107 147.726 296.553 143.283 293.113 143.01Z" fill="#263238"/>
<path d="M295.82 140.526C295.82 140.526 293.227 130.203 295.247 123.876C297.493 116.843 305.967 109.957 315.98 112.88C315.98 112.88 304.867 114.312 299.467 123.59C296.987 127.852 299.367 140.16 299.367 140.16L295.82 140.526Z" fill="#C7C7C7"/>
<path d="M306.58 144.003C307.593 149.331 304.64 154.352 299.973 155.245C295.307 156.137 290.693 152.581 289.673 147.253C288.653 141.925 291.613 136.903 296.28 136.011C300.947 135.118 305.56 138.688 306.58 144.003Z" fill="#C7C7C7"/>
<path d="M304.06 144.176C304.973 148.951 302.313 153.5 298.12 154.279C293.927 155.058 289.78 151.848 288.867 147.079C287.953 142.311 290.607 137.755 294.8 136.976C298.993 136.197 303.14 139.394 304.06 144.176Z" fill="#455A64"/>
<path d="M39.5333 261.478H121.307L105 166.726H43.8533L39.5333 261.478Z" fill="#DBDBDB"/>
<path d="M39.5333 261.478H46.7L50.7267 166.726H43.8533L39.5333 261.478Z" fill="#A6A6A6"/>
<path d="M88 125.401C80.4067 132.947 78.2267 145.381 78.2267 145.381C78.2267 145.381 70.9467 157.895 72.98 164.695C73.5178 166.623 74.5158 168.392 75.8882 169.85C77.2607 171.308 78.9667 172.412 80.86 173.067L80.14 169.311C80.14 169.311 82.58 174.139 90.7333 176.084C98.8867 178.028 109.673 175.524 115.287 172.687C118.614 171.023 121.453 168.527 123.527 165.441L121.427 170.902C121.427 170.902 129.34 170.623 134.04 162.211C138.74 153.799 125.24 141.711 124.093 139.107C122.947 136.503 121.493 117.529 101.513 120.799C101.54 120.752 93.2533 120.206 88 125.401Z" fill="#263238"/>
<path d="M78 172.527C75.92 170.975 73.8667 169.197 72.72 166.999C71.4696 164.721 71.0257 162.088 71.46 159.527C72.0133 156.457 73.6333 153.746 75.2067 151.102C76.78 148.458 78.6733 145.774 80.2533 142.997C80.34 142.844 80.1067 142.717 80 142.837C78.2248 144.92 76.5688 147.101 75.04 149.37C73.476 151.446 72.1604 153.696 71.12 156.077C70.1476 158.269 69.8282 160.695 70.2 163.063C70.5933 164.989 71.4489 166.79 72.6933 168.311C74.1667 170.143 76.0267 171.315 77.8933 172.694C78 172.78 78.1133 172.614 78 172.527Z" fill="#263238"/>
<path d="M135.753 153.513C133.353 146.527 127.087 142.091 123.24 135.997C121.173 132.7 119.567 129.051 116.873 126.187C116.8 126.107 116.667 126.234 116.733 126.314C118.947 128.891 120.227 131.994 121.827 134.972C123.531 137.901 125.523 140.654 127.773 143.19C131.733 147.932 136.473 153.546 135.567 160.186C135.147 163.25 133.333 166.646 130.187 167.599C130.067 167.639 130.14 167.839 130.26 167.785C131.501 167.288 132.627 166.543 133.571 165.596C134.514 164.649 135.254 163.52 135.747 162.278C136.807 159.452 136.809 156.34 135.753 153.513Z" fill="#263238"/>
<path d="M136.04 155.391C136.256 152.745 135.646 150.097 134.293 147.812C132.913 145.561 130.747 143.936 128.58 142.484C126.08 140.826 123.447 139.247 121.86 136.617C121.793 136.503 121.633 136.617 121.693 136.73C124.213 141.072 129.027 143.097 132.247 146.753C135.947 150.929 135.953 157.01 133.407 161.785C131.788 164.696 129.504 167.183 126.74 169.044C126.693 169.044 126.74 169.144 126.793 169.111C131.507 166.02 135.66 161.265 136.04 155.391Z" fill="#263238"/>
<path d="M105.827 187.219C126.06 198.315 150.28 212.241 165.12 208.964C171.7 207.512 201.247 168.818 202.5 164.342C203.573 160.499 176.82 145.028 173.833 148.058C168.793 153.14 155.167 181.751 153.167 182.231C151.167 182.71 134.18 179.267 116.5 176.077C99.4867 173.027 91.78 179.52 105.827 187.219Z" fill="#EB9481"/>
<path d="M199.627 169.164C201.933 166.26 211.347 152.021 213.073 147.472C214.8 142.924 218.84 129.49 215.493 127.799C212.147 126.107 210.667 129.937 210.667 129.937C210.667 129.937 211.473 123.989 207.947 122.611C204.42 121.232 202.287 127.273 202.287 127.273C202.287 127.273 202.667 121.105 199.047 119.947C195.427 118.788 194.307 125.275 194.307 125.275C194.307 125.275 194.92 119.654 191.547 119.947C187.493 120.34 187.547 130.836 185.253 135.711C184.733 136.816 173.113 157.409 173.113 157.409L199.627 169.164Z" fill="#EB9481"/>
<path d="M194.387 124.748C194.387 132.467 193.053 135.851 189.053 142.284C188.973 142.404 189.14 142.551 189.24 142.431C193.773 136.49 196.053 132.494 194.787 124.728C194.7 124.349 194.387 124.382 194.387 124.748Z" fill="#263238"/>
<path d="M202.247 126.667C201.58 134.659 200.153 138.362 196.413 145.414C196.36 145.514 196.527 145.614 196.587 145.514C200.833 138.908 203.02 134.858 202.647 126.766C202.667 126.4 202.28 126.3 202.247 126.667Z" fill="#263238"/>
<path d="M210.44 130.29C209.22 138.002 207.847 142.104 203.34 148.485C203.328 148.499 203.319 148.516 203.314 148.534C203.309 148.551 203.307 148.57 203.309 148.589C203.31 148.607 203.316 148.625 203.325 148.642C203.334 148.658 203.346 148.673 203.36 148.684C203.374 148.696 203.391 148.705 203.409 148.71C203.427 148.716 203.446 148.718 203.464 148.716C203.483 148.714 203.501 148.708 203.517 148.7C203.534 148.691 203.548 148.679 203.56 148.664C208.793 142.604 210.547 137.502 210.673 130.349C210.667 129.87 210.52 129.803 210.44 130.29Z" fill="#263238"/>
<path d="M167.387 159.74C167.387 159.74 166.82 150.09 167.513 145.794C168.207 141.498 176.667 126.433 180 128.072C184.34 130.196 181.167 139.853 178.993 144.382C178.993 144.382 189.033 149.271 188.26 156.697C187.487 164.122 167.387 159.74 167.387 159.74Z" fill="#EB9481"/>
<path d="M181.027 129.044C183.587 133.833 180.36 139.594 178.573 144.142C178.544 144.208 178.531 144.28 178.536 144.352C178.541 144.423 178.562 144.493 178.6 144.554C178.637 144.616 178.689 144.668 178.75 144.705C178.812 144.742 178.882 144.764 178.953 144.768C183.027 147.099 188.093 151.575 188.527 156.503C188.527 156.533 188.539 156.562 188.56 156.583C188.581 156.605 188.61 156.617 188.64 156.617C188.67 156.617 188.699 156.605 188.72 156.583C188.741 156.562 188.753 156.533 188.753 156.503C189.007 151.175 184.387 146.353 179.767 144.082C181.66 139.42 184.653 133.526 181.1 129.018C181.053 128.998 181.013 129.018 181.027 129.044Z" fill="#263238"/>
<path d="M148.353 180.652L124 201.045C124 201.045 109.133 193.32 98.1533 184.442C87.1733 175.564 99.3333 171.249 118.187 174.412C137.04 177.576 148.353 180.652 148.353 180.652Z" fill="#9DA8EA"/>
<path d="M119.507 184.748C118.817 183.807 118.018 182.951 117.127 182.198C118.113 184.315 119.538 186.199 121.307 187.725C120.829 186.664 120.224 185.665 119.507 184.748ZM98.1733 184.455L98.4667 184.682C98.66 184.475 98.8533 184.256 99.0333 184.016C98.7267 184.156 98.44 184.302 98.16 184.482L98.1733 184.455ZM138.94 184.589C137.788 184.42 136.62 184.384 135.46 184.482C136.548 184.892 137.68 185.176 138.833 185.328C139.985 185.502 141.153 185.54 142.313 185.441C141.221 185.027 140.085 184.741 138.927 184.589H138.94ZM130.787 176.703C130.772 177.148 130.787 177.593 130.833 178.035C130.996 177.635 131.134 177.226 131.247 176.81L130.787 176.703Z" fill="white"/>
<path d="M118.547 196.69C123.5 191.935 128.793 187.519 134.16 183.217C135.68 182.005 137.227 180.819 138.827 179.68C138.873 179.647 138.933 179.68 138.887 179.74C136.367 182.064 133.747 184.282 131.14 186.513C128.533 188.744 125.893 190.976 123.22 193.14C121.707 194.365 120.2 195.591 118.667 196.783C118.573 196.83 118.487 196.75 118.547 196.69Z" fill="#263238"/>
<path d="M134.347 192.381L123.993 201.039C123.993 201.039 109.127 193.32 98.1467 184.442C94.2467 181.292 93.2667 178.721 94.46 176.85L134.347 192.381Z" fill="#263238"/>
<path d="M129.333 261.398H51.7267C51.7267 261.398 68.5867 196.35 84.1933 178.035C84.54 177.616 84.9 177.216 85.26 176.843C85.3333 176.756 85.4 176.696 85.4733 176.623C86.6815 175.334 88.0881 174.246 89.64 173.4C89.9133 173.253 90.1867 173.113 90.4733 172.994C96.4733 170.23 102.833 172.521 107.413 176.437C108.867 177.676 125.32 199.081 126.747 207.213C128.007 214.412 123.14 222.144 123.14 222.144L129.333 261.398Z" fill="#9DA8EA"/>
<path d="M111.513 219.36C108.209 219.682 104.933 220.25 101.713 221.059C100.113 221.485 98.5533 221.978 96.9867 222.504C96.2067 222.77 95.4267 223.01 94.64 223.243C93.8209 223.509 92.9725 223.675 92.1133 223.736C92.0974 223.736 92.0821 223.742 92.0709 223.754C92.0596 223.765 92.0533 223.78 92.0533 223.796C92.0533 223.812 92.0596 223.827 92.0709 223.838C92.0821 223.85 92.0974 223.856 92.1133 223.856C92.9272 223.89 93.7425 223.868 94.5533 223.789C95.334 223.692 96.1069 223.54 96.8667 223.336C98.4933 222.917 100.093 222.431 101.713 222.004C104.98 221.139 108.24 220.273 111.56 219.64C111.597 219.634 111.63 219.613 111.652 219.583C111.674 219.552 111.683 219.514 111.677 219.477C111.67 219.44 111.65 219.407 111.619 219.385C111.589 219.363 111.55 219.354 111.513 219.36Z" fill="#263238"/>
<path d="M119.713 222.218C116.986 221.956 114.246 221.847 111.507 221.891C110.173 221.925 108.78 222.031 107.413 222.171C106.747 222.244 106.08 222.324 105.467 222.411C104.853 222.497 104.053 222.697 103.34 222.784C103.267 222.784 103.267 222.91 103.34 222.904C104.007 222.844 104.707 222.904 105.387 222.87L107.433 222.797C108.767 222.757 110.16 222.724 111.527 222.664C114.26 222.551 116.987 222.464 119.72 222.437C119.867 222.444 119.853 222.231 119.713 222.218Z" fill="#263238"/>
<path d="M76.82 193.327C76.4533 192.86 76.08 192.401 75.6733 191.995L75.3867 192.594C75.6533 193.007 75.94 193.413 76.2333 193.806C76.924 194.74 77.7228 195.59 78.6133 196.337C78.1267 195.271 77.5254 194.262 76.82 193.327ZM85.8267 176.264C85.6909 177.304 85.6685 178.356 85.76 179.4C86.1742 178.308 86.454 177.17 86.5933 176.011C86.5933 175.837 86.64 175.658 86.66 175.484C86.38 175.731 86.1 175.991 85.8267 176.264ZM109.38 197.935C108.965 199.026 108.678 200.161 108.527 201.319C108.359 202.472 108.321 203.64 108.413 204.802C108.832 203.713 109.114 202.576 109.253 201.418C109.436 200.267 109.479 199.097 109.38 197.935ZM94.5467 235.444C94.1358 236.531 93.8539 237.662 93.7067 238.814C93.5376 239.967 93.5018 241.136 93.6 242.298C94.3924 240.105 94.7149 237.77 94.5467 235.444ZM69.3333 207.126C68.9263 208.221 68.6445 209.358 68.4933 210.516C68.3236 211.667 68.2879 212.833 68.3867 213.993C68.7947 212.901 69.0743 211.765 69.22 210.609C69.3947 209.457 69.4328 208.288 69.3333 207.126ZM90.2 202.371C89.0479 202.202 87.8802 202.166 86.72 202.264C87.8082 202.674 88.9401 202.958 90.0933 203.11C91.2448 203.285 92.4129 203.323 93.5733 203.223C92.4888 202.802 91.359 202.507 90.2067 202.344L90.2 202.371ZM118.12 234.339C116.966 234.17 115.796 234.134 114.633 234.232C116.828 235.024 119.166 235.346 121.493 235.178C120.407 234.767 119.278 234.481 118.127 234.325L118.12 234.339ZM66 231.269C64.8677 231.105 63.721 231.064 62.58 231.149H62.5133H62.5733C63.6502 231.546 64.7684 231.82 65.9067 231.968C67.0587 232.137 68.2264 232.173 69.3867 232.074C68.2927 231.676 67.1563 231.405 66 231.269ZM95.28 258.768C94.1279 258.599 92.9602 258.563 91.8 258.661C93.997 259.454 96.3371 259.774 98.6667 259.6C97.5643 259.194 96.4191 258.914 95.2533 258.768H95.28ZM63.7867 255.398C62.6324 255.229 61.4625 255.193 60.3 255.291C61.3889 255.696 62.5208 255.976 63.6733 256.124C64.8267 256.303 65.9978 256.338 67.16 256.23C66.0625 255.823 64.9216 255.544 63.76 255.398H63.7867ZM96.04 185.814C95.1009 186.512 94.2443 187.314 93.4867 188.205C94.5504 187.721 95.5566 187.12 96.4867 186.413C97.424 185.718 98.2745 184.913 99.02 184.016C97.9635 184.504 96.9641 185.107 96.04 185.814ZM104.347 221.465C103.41 222.153 102.559 222.951 101.813 223.843C102.874 223.362 103.874 222.759 104.793 222.044C105.732 221.358 106.583 220.56 107.327 219.667C106.267 220.154 105.267 220.762 104.347 221.478V221.465ZM75.22 243.257C74.2777 243.943 73.4245 244.744 72.68 245.641C73.7365 245.153 74.7359 244.55 75.66 243.843C76.5972 243.148 77.4536 242.35 78.2133 241.465C77.143 241.938 76.1372 242.544 75.22 243.27V243.257ZM123.593 211.908C122.903 210.967 122.104 210.111 121.213 209.357C122.199 211.474 123.624 213.359 125.393 214.885C124.914 213.828 124.31 212.833 123.593 211.921V211.908ZM113.667 252.248C112.971 251.311 112.173 250.456 111.287 249.697C111.754 250.766 112.357 251.771 113.08 252.687C113.769 253.625 114.568 254.477 115.46 255.225C114.974 254.169 114.372 253.171 113.667 252.248ZM84.44 220.519C83.7481 219.58 82.9494 218.724 82.06 217.969C82.5327 219.036 83.1374 220.041 83.86 220.959C84.5468 221.898 85.346 222.751 86.24 223.496C85.7545 222.439 85.1507 221.441 84.44 220.519Z" fill="white"/>
<path d="M82.6067 178.541C67.68 190.563 29.4533 238.202 38.0733 249.211C46.6933 260.22 103.987 255.205 120.62 249.996C125.567 248.451 112.073 217.089 106.727 215.644C102.273 214.439 77.58 221.731 77.1 220.306C76.56 218.694 83.2 209.777 91.64 190.456C101.373 168.172 89.2 173.233 82.6067 178.541Z" fill="#EB9481"/>
<path d="M133.693 213.027C145.1 214.359 147.827 216.43 158.047 212.434C164.753 209.817 169.307 212.967 164.4 218.621C156.4 227.872 141.307 229.277 135.94 228.238L133.693 213.027Z" fill="#EB9481"/>
<path d="M101.7 216.044C101.7 216.044 115.853 212.387 128.147 212.587C136.653 212.727 155.12 215.091 167.653 237.143C170.627 242.371 171.153 251.935 163.187 245.135C157.533 240.319 155.407 235.558 151.607 233.353C151.607 233.353 150.827 245.588 145.467 248.365C140.779 250.786 135.924 252.872 130.94 254.605C130.412 253.767 129.94 252.895 129.527 251.994C129.527 251.994 124.273 254.112 116.193 251.175L101.7 216.044Z" fill="#EB9481"/>
<path d="M136.247 214.019C139.58 217.003 146.46 223.436 150.247 230.669C154.487 238.701 160.487 255.311 154.52 258.381C150.147 260.632 147.293 254.485 147.293 254.485C147.293 254.485 148.327 261.878 143.96 263.043C139.96 264.109 138.033 259.221 138.033 259.221C138.033 259.221 137.887 263.809 133.833 264.096C128.953 264.429 130.06 254.772 124.82 250.836C123.64 249.95 136.247 214.019 136.247 214.019Z" fill="#EB9481"/>
<path d="M141.033 233.766C143.7 237.096 147.773 246.154 147.427 254.365C147.427 254.552 147.273 254.645 147.247 254.472C145.996 247.361 143.885 240.428 140.96 233.826C140.952 233.816 140.948 233.804 140.95 233.791C140.951 233.779 140.957 233.767 140.967 233.759C140.976 233.751 140.989 233.748 141.001 233.749C141.014 233.75 141.025 233.756 141.033 233.766Z" fill="#263238"/>
<path d="M133.04 238.242C135.04 241.338 138.833 250.896 138.193 259.187C138.193 259.374 138.027 259.454 138.007 259.28C137.126 252.11 135.433 245.063 132.96 238.275C132.96 238.266 132.963 238.256 132.968 238.249C132.973 238.241 132.98 238.235 132.989 238.231C132.997 238.228 133.007 238.227 133.016 238.228C133.025 238.23 133.033 238.235 133.04 238.242Z" fill="#263238"/>
<path d="M151.627 233.3C154.96 235.298 156.82 237.649 159.3 240.533C160.512 241.977 161.803 243.353 163.167 244.655C164.42 245.821 166.267 247.572 168.147 246.74C169.193 246.274 169.48 245.021 169.567 243.982C169.649 242.814 169.478 241.642 169.067 240.546C169.067 240.493 169.147 240.453 169.167 240.513C169.576 241.48 169.845 242.5 169.967 243.543C170.125 244.523 169.983 245.528 169.56 246.427C168.52 248.265 166.12 247.919 164.613 246.953C163.722 246.336 162.894 245.634 162.14 244.855C161.4 244.129 160.693 243.37 160.007 242.597C158.6 240.999 157.287 239.327 155.9 237.722C154.541 236.191 153.085 234.75 151.54 233.406C151.48 233.353 151.56 233.26 151.627 233.3Z" fill="#263238"/>
<path d="M155.867 247.859C155.473 245.574 152.647 235.757 151.527 233.366C151.52 233.354 151.518 233.339 151.521 233.326C151.525 233.312 151.534 233.3 151.547 233.293C151.559 233.286 151.574 233.284 151.587 233.288C151.601 233.292 151.613 233.301 151.62 233.313C153.733 236.69 156.4 244.888 156.867 247.412C157.333 249.937 157.78 253.06 157.133 255.544C156.16 259.287 153.493 259.354 152.527 259.301C151.385 259.217 150.305 258.747 149.467 257.969C148.511 256.973 147.768 255.795 147.28 254.505C147.28 254.445 147.34 254.392 147.373 254.452C148.293 256.264 150.073 258.282 152.18 258.541C152.646 258.613 153.123 258.592 153.581 258.477C154.039 258.363 154.469 258.158 154.847 257.875C155.638 257.119 156.128 256.101 156.227 255.011C156.517 252.624 156.396 250.205 155.867 247.859Z" fill="#263238"/>
<path d="M138.193 259.187C138.6 259.767 139.273 261.598 140.893 262.371C141.457 262.691 142.09 262.871 142.738 262.893C143.386 262.915 144.029 262.779 144.613 262.497C145.727 261.807 146.528 260.71 146.847 259.44C147.116 257.815 147.261 256.172 147.28 254.525C147.28 254.445 147.38 254.439 147.387 254.525C147.594 256.312 147.531 258.119 147.2 259.887C147.043 260.579 146.75 261.233 146.337 261.811C145.923 262.388 145.399 262.878 144.793 263.25C144.152 263.6 143.427 263.765 142.698 263.729C141.968 263.692 141.263 263.455 140.66 263.043C140.053 262.624 138.293 260.726 137.993 259.234C138 259.187 138.173 259.161 138.193 259.187Z" fill="#263238"/>
<path d="M125.333 250.249C125.815 250.783 126.234 251.371 126.58 252.001C126.973 252.667 127.347 253.3 127.7 253.966C128.402 255.312 128.963 256.727 129.373 258.188C129.8 259.653 130.133 261.252 131.14 262.457C131.611 263.053 132.258 263.486 132.989 263.694C133.72 263.902 134.499 263.875 135.213 263.616C135.97 263.316 136.599 262.763 136.993 262.051C137.45 261.284 137.756 260.436 137.893 259.554C137.89 259.545 137.889 259.537 137.89 259.528C137.892 259.52 137.895 259.512 137.9 259.505C137.904 259.497 137.911 259.492 137.919 259.488C137.926 259.484 137.935 259.482 137.943 259.482C137.952 259.482 137.96 259.484 137.968 259.488C137.976 259.492 137.982 259.497 137.987 259.505C137.992 259.512 137.995 259.52 137.996 259.528C137.997 259.537 137.996 259.545 137.993 259.554C137.936 260.354 137.798 261.146 137.58 261.918C137.328 262.612 136.898 263.227 136.333 263.703C135.741 264.154 135.036 264.435 134.295 264.512C133.554 264.59 132.806 264.462 132.133 264.142C130.64 263.476 129.8 261.971 129.28 260.479C128.7 258.821 128.313 257.109 127.653 255.471C127.313 254.605 126.987 253.739 126.573 252.907C126.16 252.074 125.587 251.209 125.24 250.316C125.2 250.263 125.28 250.19 125.333 250.249Z" fill="#263238"/>
<path d="M120.127 252.314C122.234 252.618 124.366 252.723 126.493 252.627C126.56 252.627 126.6 252.82 126.533 252.834C125.479 253.031 124.406 253.114 123.333 253.08C122.246 253.034 121.172 252.825 120.147 252.461C120.06 252.414 120.06 252.301 120.127 252.314Z" fill="#263238"/>
<path d="M54.6667 227.439C58.2304 225.721 61.9133 224.261 65.6867 223.07C69.4206 221.904 73.2353 221.013 77.1 220.406C79.3067 220.04 81.52 219.78 83.7667 219.507C83.8333 219.507 83.8467 219.6 83.7667 219.607C79.8835 220.235 76.0394 221.084 72.2533 222.151C68.4844 223.177 64.7378 224.271 61.0133 225.434C58.9067 226.1 56.8267 226.846 54.74 227.572C54.6667 227.626 54.6 227.486 54.6667 227.439Z" fill="#263238"/>
<path d="M51.42 207.466L83.0133 210.896C83.0133 210.896 91.0733 196.244 95.2667 182.744C99.46 169.244 87.5533 171.868 73.64 184.955C59.7267 198.042 51.42 207.466 51.42 207.466Z" fill="#9DA8EA"/>
<path d="M51.42 207.466L83.0133 210.896C83.0133 210.896 91.0733 196.244 95.2667 182.744C99.46 169.244 87.5533 171.868 73.64 184.955C59.7267 198.042 51.42 207.466 51.42 207.466Z" fill="#9DA8EA"/>
<path d="M85.88 175.824C85.8833 175.857 85.8833 175.891 85.88 175.924C85.7108 177.077 85.675 178.246 85.7733 179.407C86.1875 178.315 86.4673 177.177 86.6067 176.017C86.6067 175.817 86.66 175.624 86.68 175.424L85.88 175.824ZM69.3333 207.126C69.044 207.853 68.8208 208.604 68.6667 209.37L69.3333 209.437C69.4066 208.668 69.4066 207.895 69.3333 207.126ZM58.3733 200.02L58.0667 200.34C58.4133 200.34 58.7333 200.34 59.1133 200.28C58.86 200.18 58.62 200.093 58.3733 200.02ZM86.7267 202.238C86.9133 202.311 87.1067 202.384 87.3 202.444C87.3345 202.357 87.3746 202.273 87.42 202.191C87.1933 202.198 86.96 202.211 86.7267 202.238ZM76.82 193.327C76.1245 192.39 75.3262 191.535 74.44 190.776C74.9088 191.846 75.5114 192.853 76.2333 193.773C76.924 194.707 77.7229 195.557 78.6133 196.304C78.1246 195.25 77.5233 194.251 76.82 193.327Z" fill="white"/>
<path d="M81.7333 210.603C81.9067 210.603 83.0667 210.603 83.0667 210.603C83.2067 210.196 85.9267 203.943 86.5933 202.611C87.9667 199.873 89.5 197.209 90.9933 194.539C91.04 194.452 91.1733 194.539 91.1267 194.599C90.0733 196.93 89.06 199.261 87.9867 201.605C88.2533 201.292 88.52 200.979 88.78 200.659C89.3067 199.993 89.7867 199.327 90.2867 198.621C90.3333 198.561 90.4267 198.621 90.3933 198.694C89.9162 199.658 89.3132 200.554 88.6 201.358C88.2972 201.712 87.9697 202.044 87.62 202.351C87.5333 202.544 87.4467 202.744 87.3533 202.93C86.6867 204.262 83.4 210.976 83.28 210.969L81.76 210.782C81.6467 210.809 81.6467 210.596 81.7333 210.603Z" fill="#263238"/>
<path d="M57.3733 202.104C64.2267 202.564 71.06 203.503 77.8533 204.569C79.7822 204.875 81.6978 205.223 83.6 205.614C83.6533 205.614 83.6533 205.707 83.6 205.701C80.1867 205.401 76.78 204.962 73.3733 204.542C69.9667 204.122 66.5333 203.669 63.1267 203.13C61.2067 202.837 59.28 202.544 57.3667 202.218C57.2867 202.224 57.2867 202.098 57.3733 202.104Z" fill="#263238"/>
<path d="M93.6867 173.893C93.8067 175.278 98.9667 184.908 105.147 185.501C107.147 185.687 108.687 174.758 108.687 174.758L108.98 173.979L113.133 163.043L101.067 152.621L99.3133 151.222C99.3133 151.222 98.3733 154.286 97.2467 158.115C97.1933 158.295 97.1333 158.475 97.08 158.661C97.0267 158.848 96.9467 159.081 96.8867 159.281C96.7133 159.853 96.5333 160.433 96.3733 161.019C96.2467 161.465 96.12 161.898 96 162.351C95.88 162.804 95.76 163.283 95.6267 163.749C94.7496 167.082 94.1015 170.471 93.6867 173.893Z" fill="#EB9481"/>
<path d="M97.2467 158.115C97.9338 161.451 99.3391 164.598 101.365 167.337C103.391 170.077 105.99 172.343 108.98 173.979L113.133 163.043L101.067 152.621L99.3133 151.222C99.3133 151.222 98.3733 154.286 97.2467 158.115Z" fill="#263238"/>
<path d="M116.787 146.247C117.847 150.909 122.047 153.979 126.167 153.054C130.287 152.128 132.76 147.566 131.7 142.877C130.64 138.188 126.44 135.138 122.32 136.071C118.2 137.003 115.727 141.552 116.787 146.247Z" fill="#455A64"/>
<path d="M114.433 147.086C115.62 152.301 120.287 155.691 124.873 154.659C129.46 153.626 132.207 148.558 131.027 143.336C129.847 138.115 125.173 134.732 120.593 135.764C116.013 136.796 113.253 141.858 114.433 147.086Z" fill="#C7C7C7"/>
<path d="M127.913 140.413C133.513 160.16 122.307 165.721 118.04 166.946C114.167 168.038 100.847 171.262 93.2333 152.194C85.62 133.127 93.04 124.282 101.76 121.319C110.48 118.355 122.313 120.659 127.913 140.413Z" fill="#EB9481"/>
<path d="M121.033 137.929C120.564 137.975 120.092 137.995 119.62 137.989C119.124 138.083 118.61 138.011 118.16 137.782C118.032 137.683 117.94 137.544 117.899 137.388C117.858 137.231 117.87 137.065 117.933 136.916C118.103 136.642 118.344 136.418 118.63 136.268C118.916 136.118 119.237 136.048 119.56 136.064C120.217 135.991 120.877 136.164 121.413 136.55C121.529 136.647 121.614 136.775 121.659 136.918C121.704 137.062 121.707 137.216 121.667 137.361C121.627 137.507 121.546 137.637 121.434 137.738C121.321 137.838 121.182 137.905 121.033 137.929Z" fill="#263238"/>
<path d="M108 142.524C108.453 142.384 108.898 142.219 109.333 142.031C109.827 141.922 110.272 141.656 110.6 141.272C110.678 141.13 110.707 140.967 110.683 140.807C110.659 140.647 110.583 140.499 110.467 140.386C110.202 140.2 109.893 140.088 109.571 140.061C109.249 140.034 108.925 140.094 108.633 140.233C108.001 140.423 107.462 140.841 107.12 141.405C107.05 141.538 107.02 141.689 107.033 141.839C107.047 141.989 107.104 142.131 107.197 142.25C107.29 142.368 107.415 142.457 107.558 142.506C107.7 142.554 107.854 142.561 108 142.524Z" fill="#263238"/>
<path d="M112 146.007C112 145.954 111.913 146.1 111.933 146.154C112.36 147.486 112.6 149.084 111.533 149.877C111.5 149.877 111.533 149.963 111.567 149.95C112.98 149.317 112.607 147.186 112 146.007Z" fill="#263238"/>
<path d="M110.387 144.942C108.173 145.395 109.24 149.777 111.293 149.357C113.347 148.938 112.24 144.562 110.387 144.942Z" fill="#263238"/>
<path d="M109.58 145.381C109.26 145.727 108.987 146.254 108.54 146.413C108.093 146.573 107.5 146.234 107.047 145.874C107 145.841 106.967 145.874 106.98 145.947C107.173 146.786 107.707 147.572 108.64 147.479C109.573 147.386 109.9 146.507 109.9 145.608C109.907 145.441 109.713 145.248 109.58 145.381Z" fill="#263238"/>
<path d="M119.793 143.603C119.793 143.55 119.92 143.643 119.927 143.696C120.207 145.068 120.753 146.593 122.093 146.753C122.133 146.753 122.147 146.826 122.093 146.833C120.547 146.973 119.84 144.942 119.793 143.603Z" fill="#263238"/>
<path d="M120.667 141.898C122.813 141.232 124 145.561 122 146.194C120 146.826 118.873 142.464 120.667 141.898Z" fill="#263238"/>
<path d="M121.667 141.931C122.073 142.064 122.527 142.391 122.947 142.304C123.367 142.218 123.653 141.638 123.833 141.099C123.833 141.045 123.9 141.099 123.913 141.099C124.167 141.925 124.133 142.864 123.373 143.243C122.613 143.623 121.953 143.023 121.527 142.251C121.447 142.144 121.5 141.858 121.667 141.931Z" fill="#263238"/>
<path d="M115.08 156.956C115.467 157.216 115.88 157.622 116.413 157.536C116.923 157.425 117.405 157.21 117.827 156.903C117.835 156.893 117.846 156.887 117.859 156.886C117.871 156.885 117.884 156.888 117.893 156.896C117.903 156.904 117.909 156.916 117.91 156.928C117.912 156.941 117.908 156.953 117.9 156.963C117.756 157.271 117.531 157.534 117.249 157.725C116.968 157.916 116.64 158.028 116.3 158.048C116.002 158.034 115.716 157.93 115.479 157.75C115.241 157.571 115.062 157.325 114.967 157.043C114.92 156.97 115.02 156.923 115.08 156.956Z" fill="#263238"/>
<path d="M119.553 150.19C119.553 150.19 120.347 152.141 120.593 153.093C120.593 153.187 117.313 154.785 115.193 152.827C115.171 152.812 115.156 152.789 115.151 152.763C115.146 152.736 115.152 152.709 115.167 152.687C115.182 152.665 115.205 152.65 115.231 152.645C115.257 152.64 115.285 152.646 115.307 152.661C116.736 153.181 118.296 153.225 119.753 152.787C119.753 152.507 118.273 149.49 118.42 149.457C119.178 149.333 119.949 149.31 120.713 149.39C119.167 145.281 116.98 141.452 115.507 137.329C115.494 137.299 115.492 137.264 115.503 137.233C115.514 137.202 115.537 137.176 115.566 137.16C115.595 137.144 115.629 137.14 115.661 137.148C115.693 137.155 115.722 137.175 115.74 137.203C118.32 141.059 120.2 145.754 121.9 149.957C122.127 150.469 120 150.256 119.553 150.19Z" fill="#263238"/>
<path d="M119.747 153.247C119.393 154.13 118.819 154.91 118.08 155.511C117.665 155.822 117.165 155.999 116.647 156.017C115.507 156.017 115.207 155.078 115.167 154.192C115.151 153.723 115.189 153.254 115.28 152.794C116.682 153.418 118.248 153.577 119.747 153.247Z" fill="#263238"/>
<path d="M118.08 155.511C117.665 155.822 117.165 155.999 116.647 156.017C115.507 156.017 115.207 155.078 115.167 154.192C116.333 153.986 117.667 154.439 118.08 155.511Z" fill="#FF99BA"/>
<path d="M94.1867 151.535C98.0133 151.781 98.4533 143.037 98.4533 143.037C98.4533 143.037 114.453 139.314 115.027 126.074C115.027 126.074 118.313 134.292 127.027 137.569C127.027 137.569 125.58 123.183 113.967 121.079C113.967 121.079 99.4467 116.776 92.1467 128.525C84.8467 140.273 91.62 151.368 94.1867 151.535Z" fill="#263238"/>
<path d="M115.027 125.095C115.343 127.115 115.222 129.179 114.673 131.149C114.155 133.151 113.224 135.022 111.94 136.643C111.625 137.051 111.284 137.438 110.92 137.802L110.387 138.368C110.2 138.541 110 138.701 109.8 138.868C109.4 139.187 109.013 139.534 108.6 139.833C108.187 140.133 107.733 140.38 107.267 140.646C107.047 140.772 106.833 140.912 106.6 141.032L105.933 141.352L104.54 141.985C103.58 142.318 102.607 142.597 101.64 142.864C102.54 142.404 103.473 142.038 104.36 141.578L105.66 140.846L106.327 140.479C106.533 140.346 106.727 140.193 106.927 140.047C107.327 139.754 107.727 139.467 108.133 139.187C108.54 138.908 108.867 138.521 109.233 138.222L109.787 137.736L110.28 137.189C110.619 136.84 110.937 136.471 111.233 136.084C112.445 134.54 113.385 132.801 114.013 130.942C114.335 130.009 114.58 129.051 114.747 128.079C114.924 127.094 115.018 126.096 115.027 125.095Z" fill="#263238"/>
<path d="M97.04 151.329C97.04 151.329 91.4267 145.874 88.8733 147.999C86.32 150.123 91.38 158.608 94.9733 159.207C95.4287 159.317 95.9014 159.333 96.3632 159.255C96.825 159.177 97.2663 159.007 97.6605 158.754C98.0547 158.502 98.3937 158.172 98.6571 157.785C98.9205 157.398 99.1029 156.962 99.1933 156.503L97.04 151.329Z" fill="#EB9481"/>
<path d="M90.3867 150.39C90.3743 150.39 90.3624 150.394 90.3537 150.403C90.3449 150.412 90.34 150.424 90.34 150.436C90.34 150.448 90.3449 150.46 90.3537 150.469C90.3624 150.478 90.3743 150.483 90.3867 150.483C92.9267 150.982 94.58 152.927 95.8867 155.018C95.02 154.286 93.9733 153.993 92.9667 155.018C92.9133 155.078 92.9667 155.158 93.0533 155.131C93.4427 154.922 93.8873 154.838 94.3264 154.89C94.7656 154.942 95.1778 155.129 95.5067 155.424C96.054 155.92 96.5457 156.474 96.9733 157.076C97.12 157.269 97.48 157.076 97.3533 156.856L97.32 156.803C96.8 153.846 93.66 150.076 90.3867 150.39Z" fill="#263238"/>
<path d="M93.2 148.551C93.2 148.551 89.56 138.861 90.82 132.534C92.22 125.488 100.96 117.449 110.953 120.459C110.953 120.459 99.0667 122.238 94.8667 131.781C92.9333 136.177 96.5867 147.812 96.5867 147.812L93.2 148.551Z" fill="#C7C7C7"/>
<path d="M98.8139 162.362C103.226 160.989 105.532 155.802 103.965 150.777C102.398 145.752 97.5517 142.791 93.14 144.163C88.7282 145.536 86.4219 150.723 87.9888 155.748C89.5556 160.774 94.4021 163.735 98.8139 162.362Z" fill="#C7C7C7"/>
<path d="M101.56 151.182C102.967 155.698 100.893 160.36 96.8933 161.592C92.8933 162.824 88.5733 160.166 87.16 155.651C85.7467 151.135 87.8267 146.473 91.8267 145.235C95.8267 143.996 100.153 146.693 101.56 151.182Z" fill="#455A64"/>
<path d="M108.933 174.046L105.267 183.29L93.7333 171.668L90.5 175.424C90.5 175.424 101.833 193.926 101.873 193.087L105.647 185.095L111.167 190.603L110.667 176.736L108.933 174.046Z" fill="#EBEBEB"/>
<path d="M111.333 183.743C111.167 181.458 111.073 179.141 110.807 176.863C110.807 176.783 110.667 176.75 110.647 176.863C110.2 179.074 110.86 187.832 110.86 189.93C110.633 189.69 105.747 185.081 105.7 185.155C104.88 186.42 102.113 192.228 101.927 192.754C100.133 189.817 92.5467 178.235 90.4333 175.438C90.4207 175.425 90.4042 175.417 90.3864 175.415C90.3686 175.412 90.3506 175.416 90.3352 175.425C90.3198 175.435 90.308 175.449 90.3016 175.465C90.2952 175.482 90.2946 175.501 90.3 175.518C91.88 178.621 101.68 193.906 101.82 193.866C103.278 191.126 104.595 188.315 105.767 185.441C106.593 186.447 111.527 191.648 111.54 191.309C111.602 188.785 111.533 186.259 111.333 183.743Z" fill="#263238"/>
<path d="M175.653 112.454C175.253 116.285 173.795 119.93 171.442 122.981C169.089 126.033 165.934 128.371 162.328 129.735C158.722 131.1 154.808 131.436 151.022 130.707C147.236 129.978 143.727 128.213 140.887 125.608L130.473 127.133L135.687 118.142C134.507 115.217 134.008 112.063 134.229 108.917C134.45 105.772 135.384 102.718 136.961 99.9866C138.538 97.2552 140.716 94.918 143.331 93.1518C145.945 91.3857 148.928 90.237 152.053 89.7927C155.178 89.3484 158.363 89.6201 161.367 90.5873C164.371 91.5544 167.115 93.1917 169.393 95.3751C171.67 97.5585 173.42 100.231 174.51 103.19C175.601 106.149 176.003 109.317 175.687 112.454H175.653Z" fill="white"/>
<path d="M175.653 112.454C175.25 116.287 173.797 119.935 171.453 122.997C170.302 124.526 168.927 125.873 167.373 126.993C165.84 128.154 164.15 129.094 162.353 129.784C160.556 130.486 158.669 130.934 156.747 131.116C155.787 131.203 154.822 131.221 153.86 131.169C152.894 131.146 151.93 131.046 150.98 130.869C147.14 130.179 143.569 128.433 140.667 125.828L140.913 125.901L130.513 127.499L129.76 127.612L130.14 126.946L135.333 117.935V118.295C134.112 115.315 133.593 112.094 133.816 108.881C134.039 105.669 134.999 102.55 136.62 99.7669C138.239 96.994 140.466 94.6236 143.133 92.8339C145.799 91.0706 148.829 89.9329 151.997 89.5062C155.165 89.0794 158.389 89.3746 161.427 90.3697C164.427 91.3939 167.161 93.0755 169.427 95.2914C171.696 97.4958 173.435 100.186 174.514 103.158C175.592 106.131 175.982 109.309 175.653 112.454ZM175.653 112.454C175.986 109.323 175.594 106.158 174.509 103.202C173.424 100.246 171.674 97.5787 169.394 95.4051C167.114 93.2316 164.365 91.61 161.358 90.6654C158.352 89.7208 155.168 89.4783 152.053 89.9568C148.967 90.4199 146.028 91.5817 143.46 93.3534C140.917 95.1355 138.792 97.449 137.233 100.133C135.699 102.827 134.797 105.834 134.594 108.926C134.39 112.019 134.892 115.117 136.06 117.989L136.133 118.175L136.033 118.342L130.793 127.319L130.42 126.767L140.84 125.308H140.987L141.087 125.408C143.879 128.012 147.341 129.787 151.087 130.536C152.016 130.723 152.959 130.836 153.907 130.876C154.854 130.942 155.806 130.942 156.753 130.876C158.654 130.728 160.525 130.318 162.313 129.657C164.112 129.01 165.804 128.099 167.333 126.953C168.897 125.841 170.278 124.493 171.427 122.957C173.777 119.912 175.24 116.277 175.653 112.454Z" fill="#263238"/>
<path d="M164.04 113.44C165.432 113.44 166.56 112.313 166.56 110.922C166.56 109.532 165.432 108.405 164.04 108.405C162.648 108.405 161.52 109.532 161.52 110.922C161.52 112.313 162.648 113.44 164.04 113.44Z" fill="#263238"/>
<path d="M155.007 113.44C156.398 113.44 157.527 112.313 157.527 110.922C157.527 109.532 156.398 108.405 155.007 108.405C153.615 108.405 152.487 109.532 152.487 110.922C152.487 112.313 153.615 113.44 155.007 113.44Z" fill="#263238"/>
<path d="M145.98 113.44C147.372 113.44 148.5 112.313 148.5 110.922C148.5 109.532 147.372 108.405 145.98 108.405C144.588 108.405 143.46 109.532 143.46 110.922C143.46 112.313 144.588 113.44 145.98 113.44Z" fill="#263238"/>
<path d="M382.667 112.454C382.267 116.285 380.809 119.93 378.456 122.981C376.103 126.033 372.947 128.371 369.341 129.735C365.736 131.1 361.821 131.436 358.035 130.707C354.249 129.978 350.74 128.213 347.9 125.608L337.487 127.133L342.693 118.142C341.508 115.216 341.006 112.059 341.224 108.91C341.442 105.761 342.374 102.703 343.951 99.9674C345.528 97.2321 347.707 94.8914 350.324 93.1226C352.941 91.3538 355.927 90.2034 359.055 89.7586C362.183 89.3138 365.371 89.5863 368.378 90.5555C371.385 91.5246 374.132 93.165 376.41 95.3521C378.688 97.5393 380.437 100.216 381.526 103.179C382.615 106.142 383.014 109.314 382.693 112.454H382.667Z" fill="white"/>
<path d="M382.667 112.454C382.261 116.287 380.808 119.934 378.467 122.997C377.881 123.755 377.251 124.478 376.58 125.161C375.886 125.825 375.151 126.446 374.38 127.019C372.848 128.183 371.158 129.123 369.36 129.81C367.565 130.513 365.68 130.961 363.76 131.142C362.798 131.23 361.831 131.248 360.867 131.195C359.9 131.172 358.937 131.072 357.987 130.896C354.15 130.192 350.586 128.434 347.693 125.821L347.94 125.894L337.54 127.492L336.787 127.606L337.167 126.94L342.347 117.929V118.288C341.126 115.308 340.607 112.088 340.829 108.875C341.051 105.663 342.008 102.545 343.627 99.7601C345.248 96.9869 347.477 94.6166 350.147 92.8271C352.812 91.0638 355.842 89.9261 359.01 89.4993C362.179 89.0726 365.402 89.3678 368.44 90.3628C371.441 91.3863 374.175 93.068 376.44 95.2846C378.711 97.4888 380.452 100.179 381.531 103.154C382.609 106.128 382.998 109.308 382.667 112.454ZM382.667 112.454C382.999 109.323 382.608 106.158 381.523 103.202C380.437 100.246 378.687 97.5785 376.407 95.405C374.127 93.2314 371.378 91.6098 368.371 90.6652C365.365 89.7206 362.182 89.4782 359.067 89.9566C355.981 90.4197 353.041 91.5815 350.473 93.3532C347.93 95.1354 345.806 97.4488 344.247 100.133C342.702 102.826 341.79 105.834 341.58 108.931C341.384 112.021 341.883 115.116 343.04 117.989L343.12 118.175L343.02 118.342L337.78 127.319L337.407 126.766L347.827 125.308H347.973L348.073 125.408C350.856 128.006 354.307 129.781 358.04 130.536C358.97 130.722 359.913 130.836 360.86 130.876C361.808 130.942 362.759 130.942 363.707 130.876C365.607 130.728 367.478 130.317 369.267 129.657C371.065 129.008 372.756 128.097 374.287 126.953C375.846 125.838 377.225 124.491 378.373 122.957C380.75 119.921 382.237 116.285 382.667 112.454Z" fill="#263238"/>
<path d="M371.02 113.44C372.412 113.44 373.54 112.313 373.54 110.922C373.54 109.532 372.412 108.405 371.02 108.405C369.628 108.405 368.5 109.532 368.5 110.922C368.5 112.313 369.628 113.44 371.02 113.44Z" fill="#263238"/>
<path d="M361.993 113.44C363.385 113.44 364.513 112.313 364.513 110.922C364.513 109.532 363.385 108.405 361.993 108.405C360.602 108.405 359.473 109.532 359.473 110.922C359.473 112.313 360.602 113.44 361.993 113.44Z" fill="#263238"/>
<path d="M355.487 110.922C355.488 111.421 355.341 111.908 355.065 112.323C354.789 112.738 354.396 113.061 353.936 113.253C353.475 113.444 352.968 113.495 352.479 113.399C351.99 113.303 351.54 113.063 351.187 112.711C350.834 112.36 350.593 111.911 350.496 111.423C350.398 110.934 350.447 110.428 350.638 109.967C350.828 109.507 351.151 109.113 351.566 108.836C351.981 108.559 352.468 108.412 352.967 108.411C353.634 108.411 354.274 108.676 354.746 109.147C355.219 109.617 355.485 110.256 355.487 110.922Z" fill="#263238"/>
<path d="M141.2 259.853H136.74V262.764H141.2V259.853Z" fill="#455A64"/>
<path d="M146.987 259.66H142.527V262.57H146.987V259.66Z" fill="#455A64"/>
<path d="M152.773 259.467H148.313V262.377H152.773V259.467Z" fill="#455A64"/>
<path d="M158.553 259.274H154.093V262.184H158.553V259.274Z" fill="#455A64"/>
<path d="M164.34 259.081H159.88V261.991H164.34V259.081Z" fill="#455A64"/>
<path d="M170.127 258.894H165.667V261.805H170.127V258.894Z" fill="#455A64"/>
<path d="M175.907 258.701H171.447V261.611H175.907V258.701Z" fill="#455A64"/>
<path d="M181.693 258.508H177.233V261.418H181.693V258.508Z" fill="#455A64"/>
<path d="M187.473 258.315H183.013V261.225H187.473V258.315Z" fill="#455A64"/>
<path d="M188.567 264.435H135.647V260.892L188.567 259.42V264.435Z" fill="#37474F"/>
<path d="M240.22 250.476H152.86L166.753 185.501H254.113L240.22 250.476Z" fill="#455A64"/>
<path d="M243.453 250.476H156.087L169.98 185.501H257.347L243.453 250.476Z" fill="#37474F"/>
<path d="M214.267 214.226C213.999 215.705 213.231 217.047 212.092 218.029C210.953 219.011 209.511 219.573 208.007 219.62C207.328 219.641 206.653 219.508 206.034 219.232C205.414 218.955 204.865 218.541 204.428 218.022C203.991 217.503 203.677 216.892 203.511 216.234C203.344 215.577 203.329 214.89 203.467 214.226C203.732 212.746 204.497 211.402 205.636 210.419C206.774 209.435 208.216 208.873 209.72 208.824C210.4 208.802 211.076 208.934 211.697 209.211C212.318 209.488 212.869 209.902 213.307 210.422C213.744 210.942 214.058 211.554 214.225 212.213C214.391 212.872 214.405 213.56 214.267 214.226Z" fill="#263238"/>
<path d="M218.747 267.446H175.78V264.109L218.747 262.724V267.446Z" fill="#455A64"/>
<path d="M230.427 267.439H207.353L193.46 231.029H216.533L230.427 267.439Z" fill="#455A64"/>
<path d="M234.22 267.439H211.153L197.26 231.029H220.327L234.22 267.439Z" fill="#263238"/>
<path d="M134 268.331H89.72C85.94 268.331 91.4067 257.575 105.207 253.453C119.007 249.33 138.367 264.295 134 268.331Z" fill="#37474F"/>
<path d="M116.667 268.331C116.696 267.106 116.898 265.891 117.267 264.722C117.622 263.54 118.121 262.406 118.753 261.345C119.387 260.278 120.18 259.314 121.107 258.488C122.025 257.668 123.081 257.016 124.227 256.563C123.753 256.95 123.213 257.229 122.78 257.649L122.113 258.228L121.487 258.894C120.668 259.751 119.95 260.698 119.347 261.718C118.734 262.738 118.207 263.807 117.773 264.915C117.329 266.028 116.959 267.169 116.667 268.331Z" fill="#263238"/>
<path d="M121.88 258.095C124.515 258.928 127.008 260.156 129.273 261.738C130.42 262.529 131.458 263.468 132.36 264.529C133.307 265.584 133.882 266.919 134 268.331C133.633 267.029 132.929 265.846 131.96 264.901C131.015 263.94 129.982 263.071 128.873 262.304C127.773 261.512 126.62 260.799 125.447 260.1C124.273 259.4 123.093 258.741 121.88 258.095Z" fill="#263238"/>
<path d="M345.773 259.853H341.313V262.764H345.773V259.853Z" fill="#455A64"/>
<path d="M351.56 259.66H347.1V262.57H351.56V259.66Z" fill="#455A64"/>
<path d="M357.347 259.467H352.887V262.377H357.347V259.467Z" fill="#455A64"/>
<path d="M363.127 259.274H358.667V262.184H363.127V259.274Z" fill="#455A64"/>
<path d="M368.913 259.081H364.453V261.991H368.913V259.081Z" fill="#455A64"/>
<path d="M374.7 258.894H370.24V261.805H374.7V258.894Z" fill="#455A64"/>
<path d="M380.48 258.701H376.02V261.611H380.48V258.701Z" fill="#455A64"/>
<path d="M386.267 258.508H381.807V261.418H386.267V258.508Z" fill="#455A64"/>
<path d="M392.053 258.315H387.593V261.225H392.053V258.315Z" fill="#455A64"/>
<path d="M393.147 264.435H340.227V260.892L393.147 259.42V264.435Z" fill="#37474F"/>
<path d="M444.793 250.476H357.433L371.327 185.501H458.687L444.793 250.476Z" fill="#455A64"/>
<path d="M448.027 250.476H360.667L374.56 185.501H461.92L448.027 250.476Z" fill="#37474F"/>
<path d="M418.84 214.226C418.572 215.704 417.806 217.045 416.668 218.027C415.53 219.009 414.089 219.571 412.587 219.62C411.907 219.642 411.232 219.51 410.611 219.234C409.991 218.958 409.441 218.544 409.003 218.025C408.566 217.506 408.251 216.894 408.085 216.236C407.918 215.578 407.902 214.89 408.04 214.226C408.306 212.746 409.072 211.403 410.21 210.42C411.348 209.437 412.79 208.874 414.293 208.824C414.973 208.802 415.649 208.934 416.271 209.211C416.892 209.488 417.442 209.902 417.88 210.422C418.318 210.942 418.632 211.554 418.798 212.213C418.964 212.872 418.979 213.56 418.84 214.226Z" fill="#263238"/>
<path d="M423.32 267.446H380.353V264.109L423.32 262.724V267.446Z" fill="#455A64"/>
<path d="M435 267.439H411.927L398.033 231.029H421.107L435 267.439Z" fill="#455A64"/>
<path d="M438.8 267.439H415.727L401.833 231.029H424.907L438.8 267.439Z" fill="#263238"/>
<path d="M338.593 268.331H294.293C290.513 268.331 295.98 257.575 309.78 253.453C323.58 249.33 342.94 264.295 338.593 268.331Z" fill="#37474F"/>
<path d="M321.207 268.331C321.239 267.106 321.441 265.892 321.807 264.722C322.165 263.541 322.664 262.407 323.293 261.345C323.931 260.281 324.724 259.318 325.647 258.488C326.565 257.668 327.621 257.016 328.767 256.563C328.293 256.95 327.753 257.229 327.32 257.649L326.653 258.228L326.027 258.894C325.204 259.749 324.483 260.697 323.88 261.718C323.267 262.738 322.741 263.807 322.307 264.915C321.864 266.028 321.497 267.169 321.207 268.331Z" fill="#263238"/>
<path d="M326.453 258.095C329.088 258.928 331.581 260.156 333.847 261.738C334.994 262.531 336.034 263.469 336.94 264.529C337.884 265.577 338.464 266.901 338.593 268.305C338.224 267.002 337.518 265.819 336.547 264.875C335.602 263.914 334.569 263.044 333.46 262.277C332.367 261.485 331.207 260.772 330.033 260.073C328.86 259.374 327.673 258.741 326.453 258.095Z" fill="#263238"/>
</svg>
