<svg width="57" height="65" viewBox="0 0 57 65" fill="none" xmlns="http://www.w3.org/2000/svg">
<g clip-path="url(#clip0_1_506)">
<path d="M49.6299 23.315C45.7883 20.6989 41.956 18.0735 38.1367 15.4277C37.7208 15.1383 37.4392 15.1494 37.0178 15.4054C33.2228 17.7006 29.4109 19.9641 25.6178 22.2574C25.1982 22.5116 24.9054 22.5209 24.4821 22.263C20.6927 19.9641 16.8809 17.6968 13.0914 15.3962C12.6569 15.1327 12.3772 15.155 11.9725 15.4333C8.15137 18.0791 4.31905 20.7063 0.481138 23.3243C0.132406 23.5617 0 23.8085 0 24.2223C0.0167839 28.5082 0.00186556 32.7923 0.0298387 37.0764C0.0317036 37.3918 0.205137 37.7926 0.443841 38.0078C6.84036 43.8022 13.2555 49.5762 19.6688 55.352C21.4517 56.957 23.2326 58.56 25.0602 60.2039C25.2411 60.0518 25.3642 59.9608 25.4761 59.8569C27.0258 58.4617 28.5736 57.0646 30.1233 55.6675C31.8185 54.1405 33.5118 52.6135 35.207 51.0846C34.5543 50.8509 34.1347 50.1699 34.1477 49.5465C34.1645 48.6541 34.931 48.0047 35.6135 48.0084C36.5963 48.014 37.2695 48.4073 37.4448 49.066C40.9881 45.8673 44.5295 42.6686 48.069 39.4662C48.6285 38.9615 49.1879 38.455 49.7493 37.9466C49.9675 37.7481 50.0999 37.3584 50.1017 37.056C50.1241 32.7923 50.1111 28.5286 50.1279 24.2668C50.1279 23.8382 50.0029 23.5655 49.6318 23.3113L49.6299 23.315ZM12.5208 19.9289C12.5133 20.081 12.3455 20.2629 12.2019 20.363C9.78314 22.0385 7.36066 23.7065 4.92514 25.3615C4.77595 25.4635 4.48689 25.5285 4.34143 25.458C3.74467 25.1759 3.17588 24.8345 2.49893 24.4579C5.85757 22.1498 9.13975 19.8955 12.5357 17.5633C12.5357 18.4409 12.5543 19.1849 12.5226 19.927L12.5208 19.9289ZM27.9526 44.0508H22.1417C22.8018 42.1342 23.4489 40.2529 24.0961 38.3771C22.3636 37.3009 21.8134 36.2341 22.2517 34.8333C22.6284 33.631 23.8089 32.8276 25.1572 32.8628C26.4085 32.8925 27.5498 33.7553 27.8706 34.9112C28.251 36.2953 27.6542 37.4197 25.9945 38.3622C26.6491 40.2584 27.2943 42.1268 27.9563 44.0508H27.9526Z" fill="#FF5972"/>
<path d="M36.9581 0H13.1549L12.1758 0.935118L11.1874 1.88694V5.01142C11.18 7.59413 11.1856 10.1768 11.1874 12.7595C11.1874 12.9636 11.2117 13.1696 11.2247 13.3663H16.2468V5.00585L33.9165 4.98359V13.3774H38.9424C38.9424 10.5405 38.948 7.76668 38.9424 4.99101C38.9424 4.98544 38.9424 4.98173 38.9424 4.97802L38.9293 1.88137L37.9614 0.936974L36.9581 0Z" fill="#FF5972"/>
<path d="M56.9849 43.5164C56.9831 42.893 56.9141 42.2529 56.6343 41.6721C55.8847 40.1266 54.5364 39.4809 52.8337 39.4772C51.2449 39.4735 49.6579 39.4698 48.069 39.4698C43.5895 39.4661 39.1101 39.4716 34.6288 39.4716C34.1123 39.4716 33.6013 39.4995 33.0847 39.5663C31.9471 39.7091 30.1251 41.1879 30.1289 42.6054C30.1438 46.96 30.1736 51.3146 30.1214 55.6692L30.1158 56.1628C30.099 57.4838 31.4063 59.085 32.7117 59.5099C33.1369 59.6472 33.5621 59.675 33.9836 59.6732H35.2405C35.2909 59.6769 35.3449 59.6806 35.399 59.6861C35.4997 59.6973 35.5818 59.6936 35.6526 59.6732H37.773C37.7805 59.7771 37.7749 59.8828 37.7506 59.9849C37.6536 60.4097 37.6238 60.8588 37.5212 61.2744C37.4056 61.7456 37.469 62.2169 37.359 62.6845C37.1968 63.3802 37.1837 64.1075 37.0867 65C39.7498 63.1724 42.1946 61.4543 44.7756 59.6713H47.53C47.6009 59.6861 47.6792 59.6824 47.7687 59.6824C49.5478 59.6806 51.3269 59.6546 53.106 59.6917C54.1485 59.714 54.9839 59.2984 55.7224 58.6917C56.6754 57.9087 56.9831 56.8233 56.9868 55.6729C57.0073 51.6189 57.0017 47.5667 56.9849 43.5127V43.5164ZM35.813 51.1643C35.5967 51.1829 35.3934 51.1532 35.2069 51.0883H35.2051C34.5524 50.8545 34.1328 50.1735 34.1458 49.5501C34.1626 48.6577 34.9291 48.0083 35.6116 48.012C36.5944 48.0176 37.2676 48.4109 37.4429 49.0696C37.4728 49.1791 37.4877 49.2959 37.4877 49.4221C37.4951 50.5298 36.8909 51.1588 35.8093 51.1643H35.813ZM43.3303 51.1922C42.6385 51.1792 41.8105 50.45 41.9 49.5798C41.9074 48.5928 42.5545 48.0157 43.7014 48.0584C44.6898 48.0955 45.2269 48.8043 45.1915 49.6132C45.1486 50.6559 44.4548 51.2089 43.3303 51.1903V51.1922ZM51.2057 51.1105C50.3404 51.2478 49.6094 50.3183 49.5739 49.6633C49.531 48.8562 50.3292 48.051 50.995 48.0658C52.1214 48.0881 52.8095 48.6503 52.8319 49.565C52.8524 50.3535 52.0635 51.2089 51.2057 51.1105Z" fill="#4A5FD7"/>
</g>
<defs>
<clipPath id="clip0_1_506">
<rect width="57" height="65" fill="white"/>
</clipPath>
</defs>
</svg>
