<svg width="555" height="426" viewBox="0 0 555 426" fill="none" xmlns="http://www.w3.org/2000/svg">
<g clip-path="url(#clip0_1_151)">
<path d="M423.45 143.366C382.482 102.345 316.057 102.345 275.089 143.366L268.481 137.855C226.893 103.15 165.364 104.92 126.96 143.126C85.7528 184.128 85.673 250.817 126.721 291.917L250.417 415.771C264.038 429.41 286.127 429.41 299.748 415.771L423.401 291.96C423.401 291.96 423.432 291.929 423.45 291.917C464.418 250.897 464.418 184.386 423.45 143.366Z" fill="#FF0B2F"/>
<path d="M210.019 184.049C204.878 184.049 200.712 179.877 200.712 174.729V74.466C200.712 33.4086 234.078 0 275.083 0C316.088 0 349.454 33.4086 349.454 74.466V97.2156C349.454 102.364 345.287 106.535 340.146 106.535C335.004 106.535 330.838 102.364 330.838 97.2156V74.466C330.838 43.6807 305.822 18.6334 275.076 18.6334C244.33 18.6334 219.315 43.6807 219.315 74.466V174.735C219.315 179.883 215.149 184.055 210.007 184.055L210.019 184.049Z" fill="#9DA8EA"/>
<path opacity="0.2" d="M208.467 53.8788C208.32 53.8788 208.173 53.8543 208.025 53.8051C207.289 53.5594 206.884 52.7607 207.129 52.0235C216.848 22.5959 244.159 2.82593 275.089 2.82593C296.49 2.82593 316.609 12.3361 330.279 28.9237C330.776 29.5258 330.691 30.4166 330.089 30.9081C329.488 31.4057 328.598 31.3197 328.101 30.7177C314.965 14.7874 295.643 5.64582 275.083 5.64582C245.373 5.64582 219.137 24.6417 209.805 52.9082C209.608 53.4979 209.056 53.8788 208.467 53.8788Z" fill="#9DA8EA"/>
<path d="M200.712 99.9802V174.729C200.712 179.877 204.878 184.049 210.019 184.049C215.161 184.049 219.327 179.877 219.327 174.729V101.061C213.149 100.207 206.927 99.8511 200.718 99.9802H200.712Z" fill="#8793D6"/>
<path d="M406.939 140.755C370.53 104.299 311.498 104.299 275.089 140.755L269.382 135.994C232.679 105.368 178.396 106.474 144.159 139.833C106.823 176.209 106.516 236.005 143.232 272.768L260.16 389.845C268.401 398.096 281.764 398.096 290.011 389.845L406.896 272.811C406.896 272.811 406.927 272.786 406.939 272.774C443.348 236.318 443.348 177.211 406.939 140.755Z" fill="#FF8AA9"/>
<path d="M406.461 140.651C370.18 104.324 311.363 104.324 275.083 140.651L270.548 136.866C233.759 106.173 178.948 106.296 144.625 139.735C107.424 175.982 107.117 235.562 143.705 272.19L260.737 389.372C268.658 397.304 281.501 397.304 289.416 389.372L406.411 272.227C406.411 272.227 406.442 272.202 406.454 272.19C442.735 235.863 442.735 176.971 406.454 140.644L406.461 140.651Z" fill="#FF5972"/>
<path opacity="0.15" d="M275.567 154.516C274.831 154.516 274.089 154.265 273.481 153.761L263.455 145.399C247.957 132.467 228.347 125.341 208.246 125.341C187.004 125.341 167.161 133.278 152.362 147.697C151.074 148.957 149.006 148.926 147.754 147.636C146.496 146.346 146.527 144.275 147.816 143.022C163.836 127.411 185.299 118.816 208.246 118.816C229.868 118.816 250.957 126.477 267.628 140.386L275.365 146.843L278.31 143.894C294.993 127.19 317.174 117.987 340.772 117.987C364.369 117.987 386.55 127.184 403.233 143.894C404.509 145.166 404.509 147.236 403.233 148.508C401.957 149.786 399.895 149.786 398.625 148.508C383.175 133.039 362.627 124.518 340.778 124.518C318.928 124.518 298.38 133.039 282.93 148.508L277.88 153.564C277.248 154.197 276.414 154.523 275.573 154.523L275.567 154.516Z" fill="#9DA8EA"/>
<path opacity="0.15" d="M301.19 206.374C300.754 206.374 300.325 206.153 300.079 205.754C294.674 196.993 285.329 191.765 275.083 191.765C264.836 191.765 256.227 196.612 250.742 204.74C250.337 205.336 249.527 205.496 248.932 205.09C248.337 204.685 248.177 203.874 248.582 203.278C254.552 194.431 264.462 189.154 275.083 189.154C286.237 189.154 296.41 194.849 302.294 204.378C302.675 204.992 302.485 205.797 301.871 206.178C301.656 206.307 301.423 206.374 301.19 206.374Z" fill="#9DA8EA"/>
<path d="M301.982 313.524L288.164 244.538C296.613 239.789 301.834 230.881 301.834 221.174C301.834 206.405 289.833 194.388 275.083 194.388C260.332 194.388 248.331 206.405 248.331 221.174C248.331 230.887 253.558 239.795 262.001 244.538L248.184 313.524H301.975H301.982Z" fill="#FF8AA9"/>
<path d="M301.184 221.168C301.184 206.737 289.495 195.033 275.083 195.033C260.67 195.033 248.981 206.737 248.981 221.168C248.981 231.127 254.546 239.783 262.737 244.194L248.981 312.873H301.184L287.428 244.194C295.613 239.783 301.184 231.127 301.184 221.168Z" fill="#42292F"/>
<g style="mix-blend-mode:multiply" opacity="0.7">
<path d="M275.083 199.665C288.722 199.665 299.908 210.146 301.067 223.509C301.135 222.734 301.184 221.96 301.184 221.168C301.184 206.737 289.495 195.033 275.083 195.033C260.67 195.033 248.981 206.737 248.981 221.168C248.981 221.954 249.03 222.734 249.098 223.509C250.257 210.152 261.443 199.665 275.083 199.665Z" fill="#999999"/>
<path d="M262.737 248.826C262.455 248.673 262.185 248.507 261.909 248.341L248.987 312.867H249.914L262.737 248.82V248.826Z" fill="#999999"/>
<path d="M287.434 248.826L300.257 312.873H301.184L288.262 248.347C287.986 248.507 287.716 248.679 287.434 248.832V248.826Z" fill="#999999"/>
</g>
<path d="M185.311 375.058L156.326 342.227L156.24 342.128C151.46 336.71 144.895 333.527 137.759 333.159C130.623 332.796 123.77 335.29 118.462 340.193C108.05 349.814 106.731 365.947 115.1 377.122C105.86 387.732 105.547 403.386 114.45 413.75C119.254 419.347 125.905 422.627 133.182 423.002C140.318 423.364 147.171 420.87 152.479 415.961L184.74 386.165C186.268 384.752 187.17 382.823 187.274 380.722C187.379 378.621 186.685 376.606 185.305 375.045L185.311 375.058ZM132.12 411.599C128.279 411.403 124.77 409.701 122.23 406.808C117.573 401.5 117.935 392.985 123.058 387.431L132.574 377.116L124.346 367.993C121.825 365.197 120.542 361.579 120.732 357.8C120.923 354.022 122.567 350.557 125.359 348.032C128.157 345.501 131.771 344.217 135.538 344.407C139.25 344.598 142.68 346.208 145.171 348.917L173.217 380.022L142.287 407.981C139.489 410.512 135.875 411.796 132.108 411.606L132.12 411.599Z" fill="#E86D93"/>
<path d="M135.685 341.711C140.109 341.938 144.183 343.855 147.184 347.111L147.312 347.252L177.028 380.206L144.103 409.972C140.772 412.982 136.471 414.518 131.985 414.284C127.414 414.051 123.236 412.023 120.211 408.577C114.658 402.243 115.039 392.149 121.088 385.594L122.279 384.304L128.942 377.079L122.358 369.78C116.149 362.894 116.695 352.234 123.567 346.017C126.899 343.007 131.2 341.471 135.685 341.704M136.231 330.947C129.188 330.585 122.009 332.919 116.358 338.024C105.062 348.235 104.172 365.683 114.37 376.993L113.179 378.283C103.54 388.733 102.749 404.995 112.124 415.679C117.247 421.515 124.267 424.667 131.427 425.029C138.471 425.392 145.65 423.057 151.301 417.952L187.741 385.01C190.207 382.78 190.404 378.971 188.176 376.501L155.283 340.027C155.283 340.027 155.277 340.021 155.27 340.015C150.172 334.357 143.263 331.31 136.219 330.947H136.231Z" fill="#FF8AA9"/>
<path opacity="0.2" d="M125.488 421.97C125.432 421.97 125.377 421.958 125.322 421.939C120.825 420.563 116.787 417.94 113.646 414.358C106.976 406.752 105.682 395.276 110.431 385.803C110.596 385.471 111.001 385.336 111.333 385.502C111.664 385.668 111.799 386.073 111.633 386.405C107.13 395.399 108.344 406.273 114.658 413.473C117.64 416.871 121.463 419.353 125.721 420.661C126.077 420.772 126.273 421.147 126.169 421.503C126.077 421.804 125.794 421.994 125.494 421.976L125.488 421.97ZM111.308 367.372C111.044 367.36 110.799 367.188 110.707 366.918C107.332 357.18 110.087 346.429 117.714 339.53C122.776 334.953 129.316 332.624 136.133 332.968C139.502 333.14 142.741 333.951 145.754 335.377C146.091 335.536 146.233 335.936 146.073 336.274C145.913 336.611 145.515 336.759 145.177 336.593C142.324 335.241 139.256 334.473 136.06 334.314C129.605 333.982 123.408 336.194 118.61 340.525C111.382 347.055 108.78 357.241 111.977 366.469C112.1 366.819 111.909 367.2 111.56 367.323C111.474 367.354 111.388 367.366 111.308 367.36V367.372Z" fill="#9DA8EA"/>
<path d="M183.667 360.356C179.752 360.153 176.42 363.17 176.218 367.09L174.886 393.175C174.684 397.095 177.696 400.431 181.611 400.633C185.526 400.836 188.857 397.82 189.06 393.9L190.391 367.814C190.594 363.895 187.581 360.559 183.667 360.356Z" fill="#E86D93"/>
<path opacity="0.2" d="M177.997 384.992C177.629 384.973 177.341 384.654 177.359 384.285L178.23 367.194C178.371 364.392 180.764 362.23 183.562 362.377C183.93 362.396 184.219 362.715 184.2 363.084C184.182 363.452 183.863 363.741 183.495 363.723C181.439 363.618 179.678 365.21 179.574 367.268L178.703 384.359C178.684 384.728 178.365 385.016 177.997 384.998V384.992Z" fill="#9DA8EA"/>
<g style="mix-blend-mode:multiply" opacity="0.2">
<path d="M181.807 396.83C177.893 396.628 174.88 393.292 175.083 389.372L174.886 393.175C174.684 397.095 177.696 400.431 181.611 400.633C185.526 400.836 188.857 397.82 189.06 393.9L189.256 390.097C189.054 394.017 185.722 397.033 181.807 396.83Z" fill="#999999"/>
</g>
<path d="M190.111 373.109L189.323 388.589L408.396 399.777L409.185 384.297L190.111 373.109Z" fill="#FF8AA9"/>
<path d="M363.575 397.495L348.317 396.715L346.983 422.902L362.241 423.681L363.575 397.495Z" fill="#E86D93"/>
<path d="M395.119 399.102L379.861 398.322L378.527 424.509L393.785 425.288L395.119 399.102Z" fill="#E86D93"/>
<g style="mix-blend-mode:multiply" opacity="0.2">
<path d="M348.297 396.709L348.062 401.311L363.32 402.09L363.555 397.488L348.297 396.709Z" fill="#999999"/>
</g>
<g style="mix-blend-mode:multiply" opacity="0.2">
<path d="M379.844 398.319L379.61 402.921L394.868 403.7L395.102 399.098L379.844 398.319Z" fill="#999999"/>
</g>
<path opacity="0.2" d="M405.062 387.75L212.768 377.927C212.4 377.908 212.112 377.589 212.13 377.22C212.149 376.852 212.468 376.563 212.836 376.581L405.129 386.405C405.497 386.423 405.786 386.743 405.767 387.111C405.749 387.48 405.43 387.769 405.062 387.75Z" fill="#9DA8EA"/>
<path d="M548.398 168.309H487.642C483.997 168.309 481.04 171.27 481.04 174.919V209.667C481.04 213.316 483.997 216.278 487.642 216.278H493.68V223.945C493.68 225.143 495.06 225.806 495.993 225.057L506.97 216.278H548.398C552.043 216.278 555 213.316 555 209.667V174.919C555 171.27 552.043 168.309 548.398 168.309Z" fill="#9DA8EA"/>
<path d="M483.286 185.216V174.919C483.286 172.517 485.237 170.557 487.642 170.557H541.998M552.754 209.667C552.754 212.069 550.803 214.029 548.398 214.029H532.187" stroke="#FFCFE1" stroke-width="1.1" stroke-linecap="round" stroke-linejoin="round"/>
<path d="M533.648 178.765C529.334 174.446 522.333 174.446 518.02 178.765L517.48 178.317C513.105 174.667 506.583 174.68 502.497 178.661C498.073 182.973 498.036 190.063 502.386 194.419L516.308 208.359C517.253 209.305 518.781 209.305 519.72 208.359L533.642 194.419C537.955 190.1 537.955 183.09 533.642 178.771L533.648 178.765Z" fill="#FFCFE1"/>
<path d="M6.60203 212.278H67.3579C71.0025 212.278 73.9599 215.239 73.9599 218.889V253.636C73.9599 257.286 71.0025 260.247 67.3579 260.247H61.3203V267.914C61.3203 269.112 59.9398 269.776 59.0072 269.026L48.0304 260.247H6.60203C2.95741 260.247 0 257.286 0 253.636V218.889C0 215.239 2.95741 212.278 6.60203 212.278Z" fill="#9DA8EA"/>
<path d="M13.0016 214.533H67.3579C69.757 214.533 71.7142 216.486 71.7142 218.895V229.191M22.8126 258.004H6.60203C4.20296 258.004 2.24567 256.051 2.24567 253.643" stroke="#FFCFE1" stroke-width="1.1" stroke-linecap="round" stroke-linejoin="round"/>
<path d="M21.3523 222.741C25.6657 218.422 32.6666 218.422 36.98 222.741L37.5199 222.292C41.8947 218.643 48.4169 218.655 52.5033 222.636C56.9272 226.949 56.964 234.039 52.6138 238.394L38.6918 252.334C37.7469 253.28 36.2191 253.28 35.2804 252.334L21.3584 238.394C17.045 234.075 17.045 227.066 21.3584 222.747L21.3523 222.741Z" fill="#FFCFE1"/>
</g>
<defs>
<clipPath id="clip0_1_151">
<rect width="555" height="426" fill="white"/>
</clipPath>
</defs>
</svg>
