<svg width="71" height="19" viewBox="0 0 71 19" fill="none" xmlns="http://www.w3.org/2000/svg">
<g opacity="0.2">
<path d="M46.4964 2.32583C43.7507 2.32583 41.0545 2.32583 38.3107 2.32583C38.45 2.50459 38.5645 2.65421 38.6828 2.80188C42.2624 7.31952 45.842 11.8372 49.4139 16.3606C49.5608 16.5472 49.6925 16.7842 49.7268 17.0116C49.8222 17.6314 49.3357 18.1269 48.6678 18.1308C47.7672 18.1366 46.8685 18.1308 45.9679 18.1308C42.7451 18.1308 39.5204 18.1288 36.2977 18.1327C35.8416 18.1327 35.4753 17.9889 35.2616 17.5906C35.0383 17.1748 35.1242 16.7842 35.4123 16.4209C36.8109 14.6527 37.0399 14.4603 38.4366 12.6921C38.6103 12.4745 38.6885 12.4745 38.866 12.6921C39.1827 13.0846 39.488 13.4849 39.8105 13.8716C39.9498 14.0367 39.8677 14.0717 39.7341 14.2368C38.9156 15.2608 39.3449 14.8062 38.534 15.834C38.4805 15.9021 38.4271 15.972 38.3508 16.075C41.0832 16.075 43.7812 16.075 46.5231 16.075C46.4487 15.9778 46.3858 15.8923 46.3209 15.8107C43.3042 12.0023 40.4649 8.41541 36.6125 3.55191C36.1965 3.02533 35.7787 2.49876 35.3627 1.97219C35.0822 1.61661 35.0021 1.22994 35.2234 0.821895C35.439 0.423566 35.8016 0.277832 36.2595 0.277832C40.3581 0.281718 44.4567 0.281718 48.5553 0.277832C49.0132 0.277832 49.3757 0.427452 49.5856 0.827724C49.7993 1.23577 49.7211 1.62049 49.4387 1.97802C48.042 3.74621 47.584 4.29222 46.1854 6.06041C46.0041 6.28969 45.9221 6.28775 45.7389 6.05653C45.426 5.66208 45.1207 5.26181 44.7963 4.87514C44.6608 4.71386 44.5769 4.79547 44.7028 4.63808C45.5309 3.60048 45.5099 3.583 46.3323 2.54151C46.38 2.48128 46.4239 2.41716 46.4907 2.32195L46.4964 2.32583Z" fill="#4A5FD7"/>
</g>
<path d="M46.4964 16.0866C43.7507 16.0866 41.0545 16.0866 38.3107 16.0866C38.45 15.9078 38.5645 15.7582 38.6828 15.6105C42.2624 11.0929 45.842 6.57524 49.4139 2.05178C49.5608 1.86524 49.6925 1.62819 49.7268 1.40085C49.8222 0.781008 49.3357 0.28553 48.6678 0.281643C47.7672 0.275814 46.8685 0.281643 45.9679 0.281643C42.7451 0.281643 39.5204 0.283585 36.2977 0.279699C35.8416 0.279699 35.4753 0.423487 35.2616 0.821817C35.0383 1.23763 35.1242 1.62819 35.4123 1.99154C36.8109 3.75974 36.9903 4.02594 38.3889 5.79413C38.5626 6.01175 38.6885 5.93792 38.866 5.71835C39.1827 5.32585 39.488 4.92558 39.8105 4.53891C39.9498 4.37375 39.8773 4.331 39.7456 4.16389C38.927 3.1399 39.3468 3.60429 38.534 2.57446C38.4805 2.50646 38.4271 2.43651 38.3508 2.33352C41.0832 2.33352 43.7812 2.33352 46.5231 2.33352C46.4487 2.43068 46.3858 2.51617 46.3209 2.59778C43.3042 6.4062 40.4649 9.9931 36.6125 14.8566C36.1965 15.3832 35.7787 15.9097 35.3627 16.4363C35.0822 16.7919 35.0021 17.1786 35.2234 17.5866C35.439 17.985 35.8016 18.1307 36.2595 18.1307C40.3581 18.1268 44.4567 18.1268 48.5553 18.1307C49.0132 18.1307 49.3757 17.9811 49.5856 17.5808C49.7993 17.1727 49.7211 16.788 49.4387 16.4305C48.042 14.6623 47.6203 14.0969 46.2217 12.3267C46.0404 12.0974 45.9221 12.1208 45.7389 12.352C45.426 12.7464 45.1207 13.1467 44.7963 13.5334C44.6608 13.6946 44.6742 13.8132 44.8001 13.9686C45.6282 15.0062 45.5099 14.8236 46.3304 15.8651C46.3781 15.9253 46.422 15.9894 46.4888 16.0846L46.4964 16.0866Z" fill="#4A5FD7"/>
<path d="M0 0.419678H3.19987V17.7363H12.788V18.9371H0V0.419678Z" fill="#FF5972"/>
<path d="M23.0937 0L32.0503 18.9352H28.7912L25.8909 12.7621H17.7243L14.7248 18.9352H13.1182L22.2904 0H23.0937ZM18.2853 11.5632H25.3032L21.8439 4.23201L18.2853 11.5632Z" fill="#FF5972"/>
<path d="M70.1434 0.540283V1.72167H63.2934V18.9373H60.1164V1.72167H53.2664V0.540283H70.1453H70.1434Z" fill="#FF5972"/>
</svg>
