<svg width="99" height="19" viewBox="0 0 99 19" fill="none" xmlns="http://www.w3.org/2000/svg">
<g opacity="0.2">
<path d="M95.7576 2.52162C93.0119 2.52162 90.3158 2.52162 87.5719 2.52162C87.7112 2.70039 87.8257 2.85001 87.944 2.99768C91.5236 7.51532 95.1032 12.033 98.6751 16.5564C98.822 16.743 98.9537 16.98 98.988 17.2073C99.0834 17.8272 98.5969 18.3227 97.929 18.3266C97.0284 18.3324 96.1297 18.3266 95.2291 18.3266C92.0063 18.3266 88.7816 18.3246 85.5589 18.3285C85.1028 18.3285 84.7365 18.1847 84.5228 17.7864C84.2995 17.3706 84.3854 16.98 84.6735 16.6167C86.0722 14.8485 86.3011 14.6561 87.6978 12.8879C87.8715 12.6703 87.9497 12.6703 88.1272 12.8879C88.4439 13.2804 88.7492 13.6807 89.0717 14.0674C89.211 14.2325 89.1289 14.2675 88.9953 14.4327C88.1768 15.4566 88.6061 15.002 87.7952 16.0298C87.7417 16.0979 87.6883 16.1678 87.612 16.2708C90.3444 16.2708 93.0424 16.2708 95.7843 16.2708C95.7099 16.1736 95.647 16.0881 95.5821 16.0065C92.5654 12.1981 89.7261 8.6112 85.8737 3.7477C85.4577 3.22113 85.0399 2.69456 84.6239 2.16798C84.3434 1.8124 84.2633 1.42573 84.4846 1.01769C84.7002 0.619361 85.0628 0.473633 85.5207 0.473633C89.6193 0.477519 93.7179 0.477519 97.8165 0.473633C98.2744 0.473633 98.6369 0.623253 98.8468 1.02352C99.0605 1.43157 98.9823 1.81629 98.6999 2.17382C97.3032 3.94201 96.8452 4.48802 95.4466 6.25621C95.2653 6.48549 95.1833 6.48355 95.0001 6.25232C94.6872 5.85788 94.3819 5.4576 94.0575 5.07093C93.922 4.90966 93.8381 4.99127 93.964 4.83388C94.7921 3.79628 94.7711 3.7788 95.5935 2.73731C95.6412 2.67708 95.6851 2.61296 95.7519 2.51775L95.7576 2.52162Z" fill="#4A5FD7"/>
</g>
<path d="M95.7576 16.2826C93.0119 16.2826 90.3158 16.2826 87.5719 16.2826C87.7112 16.1038 87.8257 15.9542 87.944 15.8066C91.5236 11.2889 95.1032 6.77129 98.6751 2.24782C98.822 2.06129 98.9537 1.82424 98.988 1.5969C99.0834 0.977059 98.5969 0.481575 97.929 0.477688C97.0284 0.471859 96.1297 0.477688 95.2291 0.477688C92.0063 0.477688 88.7816 0.47963 85.5589 0.475743C85.1028 0.475743 84.7365 0.619526 84.5228 1.01786C84.2995 1.43367 84.3854 1.82423 84.6735 2.18759C86.0722 3.95578 86.2515 4.22198 87.6501 5.99018C87.8238 6.2078 87.9497 6.13396 88.1272 5.91439C88.4439 5.52189 88.7492 5.12162 89.0717 4.73495C89.211 4.56979 89.1385 4.52704 89.0068 4.35994C88.1882 3.33594 88.608 3.80034 87.7952 2.77051C87.7417 2.7025 87.6883 2.63255 87.612 2.52957C90.3444 2.52957 93.0424 2.52957 95.7843 2.52957C95.7099 2.62672 95.647 2.71222 95.5821 2.79382C92.5654 6.60224 89.7261 10.1892 85.8737 15.0527C85.4577 15.5792 85.0399 16.1058 84.6239 16.6324C84.3434 16.9879 84.2633 17.3746 84.4846 17.7827C84.7002 18.181 85.0628 18.3267 85.5207 18.3267C89.6193 18.3228 93.7179 18.3228 97.8165 18.3267C98.2744 18.3267 98.6369 18.1771 98.8468 17.7768C99.0605 17.3688 98.9823 16.9841 98.6999 16.6265C97.3032 14.8583 96.8815 14.2929 95.4829 12.5228C95.3016 12.2935 95.1833 12.3168 95.0001 12.548C94.6872 12.9425 94.3819 13.3427 94.0575 13.7294C93.922 13.8907 93.9354 14.0092 94.0613 14.1647C94.8894 15.2023 94.7711 15.0196 95.5916 16.0611C95.6393 16.1213 95.6832 16.1855 95.75 16.2807L95.7576 16.2826Z" fill="#4A5FD7"/>
<path d="M2.95182 0.850586L8.19526 13.8342L12.8033 2.11358L17.5564 13.8866L22.6796 0.850586H24.1088L17.3579 18.072H16.484L12.1412 7.4201L7.98346 18.072H6.9779L0 0.850586H2.95182Z" fill="#FF5972"/>
<path d="M34.9238 18.3304C33.5653 18.3304 32.2964 18.0934 31.1172 17.6212C29.9399 17.149 28.9152 16.502 28.0451 15.682C27.1751 14.862 26.492 13.9041 25.9939 12.8102C25.4959 11.7162 25.246 10.5445 25.246 9.30097C25.246 8.48488 25.3585 7.69988 25.5837 6.94403C25.8089 6.18817 26.1294 5.48478 26.5435 4.83191C26.9575 4.17904 27.4594 3.58446 28.0471 3.04818C28.6347 2.51189 29.2854 2.05138 29.999 1.67053C30.7146 1.28775 31.4854 0.992413 32.3155 0.782562C33.1455 0.57271 34.0137 0.467773 34.9238 0.467773C35.834 0.467773 36.7022 0.57271 37.5322 0.782562C38.3622 0.992413 39.1369 1.28969 39.8562 1.67053C40.5756 2.05332 41.2263 2.51189 41.8082 3.04818C42.3902 3.58446 42.892 4.17904 43.3118 4.83191C43.7316 5.48478 44.054 6.18817 44.2773 6.94403C44.5024 7.69988 44.615 8.48488 44.615 9.30097C44.615 10.1171 44.5024 10.9215 44.2773 11.6909C44.0521 12.4604 43.7297 13.1793 43.3118 13.8478C42.892 14.5181 42.3921 15.1282 41.8082 15.6762C41.2263 16.2261 40.5756 16.6982 39.8562 17.0927C39.1369 17.4871 38.3622 17.7922 37.5322 18.0079C36.7022 18.2216 35.8321 18.3304 34.9238 18.3304ZM34.9238 17.4794C35.9294 17.4794 36.8186 17.2753 37.5913 16.8673C38.3641 16.4592 39.0148 15.8899 39.5433 15.1613C40.0738 14.4307 40.4726 13.568 40.7416 12.5731C41.0106 11.5763 41.1461 10.4862 41.1461 9.30097C41.1461 8.1157 41.0106 7.04701 40.7416 6.0677C40.4726 5.08839 40.0738 4.24511 39.5433 3.53589C39.0129 2.82667 38.3622 2.27872 37.5913 1.88622C36.8186 1.49567 35.9294 1.29941 34.9238 1.29941C33.9183 1.29941 33.0024 1.49567 32.2296 1.88622C31.4568 2.27678 30.8081 2.82667 30.2833 3.53589C29.7586 4.24511 29.3636 5.08839 29.0984 6.0677C28.8332 7.04701 28.7015 8.12347 28.7015 9.30097C28.7015 10.4785 28.8332 11.5763 29.0984 12.5731C29.3636 13.5699 29.7586 14.4326 30.2833 15.1613C30.8081 15.8919 31.4568 16.4592 32.2296 16.8673C33.0024 17.2753 33.8992 17.4794 34.9238 17.4794Z" fill="#FF5972"/>
<path d="M48.5858 0.850578H54.6764C55.7258 0.850578 56.6494 0.95939 57.4431 1.17896C58.2369 1.39852 58.899 1.70553 59.4294 2.09997C59.9599 2.49441 60.3587 2.96464 60.6277 3.51064C60.8968 4.05664 61.0322 4.65122 61.0322 5.29438C61.0322 5.82678 60.9292 6.3242 60.7212 6.7886C60.5132 7.25299 60.2232 7.67076 59.8473 8.04383C59.4714 8.41689 59.0192 8.73944 58.4907 9.00953C57.9621 9.27961 57.3782 9.49336 56.7429 9.64686L63.1369 17.9282H59.708L53.6059 9.90334H51.5414V17.9282H48.5896V0.848633L48.5858 0.850578ZM51.5376 9.04255H53.2453C53.9074 9.04255 54.518 8.95707 55.079 8.78413C55.64 8.61314 56.1246 8.37026 56.5349 8.05548C56.9451 7.74265 57.2657 7.36181 57.4946 6.9149C57.7236 6.468 57.8381 5.96668 57.8381 5.40708C57.8381 4.89217 57.7465 4.41999 57.5671 3.99057C57.3859 3.56115 57.1302 3.19392 56.8001 2.88886C56.47 2.58379 56.0769 2.34674 55.6228 2.17381C55.1687 2.00282 54.6726 1.91538 54.1326 1.91538H51.5376V9.03868V9.04255Z" fill="#FF5972"/>
<path d="M65.5316 0.850578H71.3837C73.1849 0.850578 74.7324 1.0138 76.0299 1.34024C77.3274 1.66667 78.4074 2.19129 79.2736 2.91217C80.262 3.73603 81.0062 4.68037 81.5042 5.74517C82.0022 6.80997 82.2522 7.97388 82.2522 9.23493C82.2522 10.496 82.0289 11.5666 81.5843 12.6217C81.1378 13.6787 80.4853 14.5997 79.6247 15.3847C78.7642 16.1697 77.7014 16.7915 76.4344 17.2462C75.1674 17.7009 73.7173 17.9282 72.0859 17.9282H65.5335V0.848633L65.5316 0.850578ZM68.4834 16.6808H71.6203C72.6087 16.6808 73.5398 16.5214 74.4137 16.2047C75.2876 15.888 76.049 15.4139 76.6977 14.7882C77.3465 14.1606 77.8578 13.3912 78.2337 12.476C78.6077 11.5608 78.7966 10.5037 78.7966 9.30099C78.7966 8.24396 78.6192 7.27631 78.2662 6.39609C77.9132 5.51588 77.419 4.7581 76.7836 4.12271C76.1482 3.48733 75.3907 2.99378 74.513 2.64208C73.6352 2.29039 72.6755 2.11357 71.6336 2.11357H68.4834V16.6827V16.6808Z" fill="#FF5972"/>
</svg>
