<svg width="81" height="9" viewBox="0 0 81 9" fill="none" xmlns="http://www.w3.org/2000/svg">
<path d="M0.0629674 0L0.583877 0.0505217C0.671649 0.905472 0.753697 2.66589 0.833837 5.33373C1.21546 5.31041 1.70202 5.3007 2.28971 5.3007C2.8774 5.3007 3.3487 5.29293 3.70361 5.27544C3.73795 5.37065 3.76276 5.50472 3.77612 5.67766C3.78947 5.85059 3.80665 5.97883 3.82382 6.06432C3.07394 6.01963 2.11608 5.99827 0.954046 5.99827H0C0.0286214 5.17052 0.0438861 4.06491 0.0477023 2.67756C0.0515185 1.29215 0.0553354 0.400274 0.0610596 0.00194497L0.0629674 0Z" fill="#6B6B6B"/>
<path d="M7.64002 5.19976L7.72589 5.56895C7.47402 5.65833 7.10003 5.75742 6.60393 5.86623C6.10782 5.97504 5.73956 6.02946 5.49914 6.02946C5.25872 6.02946 5.03738 5.94979 4.85421 5.79046C4.67103 5.63113 4.53365 5.4271 4.44206 5.17839C4.35047 4.92968 4.28369 4.68291 4.2398 4.44003C4.19782 4.19714 4.17493 3.95814 4.17493 3.72303C4.17493 2.32597 4.82177 1.62646 6.11737 1.62646C6.42648 1.62646 6.69933 1.72362 6.93403 1.91598C7.16872 2.10834 7.28703 2.359 7.28703 2.666C7.28703 2.83311 7.23932 2.98272 7.14583 3.11096C7.05042 3.2392 6.93594 3.34219 6.80237 3.41797C6.6688 3.49375 6.49517 3.56176 6.28719 3.62393C6.0773 3.68611 5.89412 3.7308 5.73384 3.75801C5.57356 3.78521 5.38084 3.81629 5.15759 3.85127C4.93435 3.8843 4.77979 3.90957 4.69393 3.92705C4.69965 4.08833 4.70919 4.23212 4.72446 4.35453C4.73781 4.47694 4.76643 4.61101 4.81032 4.75286C4.8523 4.8947 4.90954 5.01323 4.98205 5.10455C5.05456 5.19588 5.15187 5.2736 5.2778 5.33578C5.40374 5.39796 5.55257 5.42711 5.7243 5.42711C5.93037 5.42711 6.18224 5.40962 6.4799 5.3727C6.77756 5.33578 7.04279 5.29886 7.27558 5.26C7.50837 5.22113 7.62857 5.20171 7.64002 5.20171V5.19976ZM4.72827 3.40631C5.50677 3.18869 6.14599 2.95941 6.644 2.71847C6.60393 2.53388 6.54859 2.3998 6.4799 2.31625C6.41121 2.2327 6.30817 2.18995 6.17079 2.18995C5.82161 2.18995 5.50487 2.30653 5.22247 2.54164C4.93816 2.77675 4.77407 3.06433 4.72827 3.40631Z" fill="#6B6B6B"/>
<path d="M8.37844 2.3901L8.20671 1.96262C8.35554 1.81689 8.54445 1.70224 8.77342 1.6148C9.00239 1.52736 9.22945 1.48462 9.4527 1.48462C10.4201 1.48462 10.9048 2.30072 10.9048 3.93289C10.9048 4.15635 10.8914 4.48666 10.8666 4.92191C10.8418 5.35716 10.8284 5.68553 10.8284 5.90316C10.7826 6.07609 10.693 6.16353 10.5613 6.16353C10.4583 6.16353 10.3629 6.11301 10.277 6.01197C10.1911 5.91093 10.1472 5.80018 10.1472 5.67582C10.1472 5.63696 10.1511 5.60976 10.1568 5.59227C9.80188 5.92842 9.42408 6.09553 9.02338 6.09553C8.71999 6.09553 8.45476 5.98866 8.2277 5.77298C8.00064 5.55729 7.88806 5.29693 7.88806 4.98798C7.88806 4.46724 8.09604 3.99896 8.5101 3.57925C8.92606 3.15955 9.39545 2.9497 9.924 2.9497C9.94689 2.9497 9.96979 2.94969 9.99269 2.95358C10.0156 2.95552 10.0423 2.96135 10.0747 2.96524C10.1053 2.97107 10.1301 2.97302 10.1472 2.97302C10.1014 2.32403 9.83432 1.99954 9.34775 1.99954C9.06154 1.99954 8.73716 2.12778 8.37653 2.38621L8.37844 2.3901ZM10.174 5.01517C10.1854 4.62462 10.1911 4.32734 10.1911 4.1272C10.1911 3.9601 10.1854 3.72499 10.174 3.42381H10.1053C9.69884 3.42964 9.32867 3.57731 8.99285 3.86877C8.65702 4.16023 8.49102 4.51193 8.49102 4.9258C8.49102 5.10456 8.54635 5.24641 8.65893 5.35328C8.77151 5.46015 8.90698 5.51261 9.06726 5.51261C9.31913 5.51261 9.6893 5.34744 10.1759 5.01712L10.174 5.01517Z" fill="#6B6B6B"/>
<path d="M13.9271 1.70222L14.511 1.778C14.4023 2.21908 14.2305 2.89138 13.9958 3.79491C13.7611 4.69844 13.578 5.43098 13.4463 5.99641C13.2231 6.03527 13.0284 6.0547 12.8624 6.0547C12.725 6.0547 12.5953 6.04304 12.4751 6.02167C12.3892 5.73021 12.2538 5.27164 12.0668 4.64208C11.8798 4.01253 11.7233 3.46653 11.5935 3.00213C11.4657 2.53774 11.3493 2.09472 11.2463 1.66919L11.813 1.71193L12.9292 5.19974C13.0208 4.9316 13.1162 4.63043 13.2192 4.29428C13.3223 3.95813 13.4043 3.6725 13.4654 3.43545C13.5284 3.19839 13.6104 2.88749 13.7115 2.50471C13.8146 2.12192 13.8852 1.85572 13.9252 1.70416L13.9271 1.70222Z" fill="#6B6B6B"/>
<path d="M15.1656 0.202148C15.3201 0.202148 15.4499 0.268215 15.5529 0.3984C15.6559 0.530529 15.7075 0.680145 15.7075 0.847249C15.7075 0.969662 15.6769 1.06875 15.6178 1.14453C15.5586 1.22031 15.4766 1.25723 15.3735 1.25723C15.2133 1.25723 15.0873 1.19311 14.9957 1.06487C14.9041 0.936629 14.8584 0.785066 14.8584 0.612133C14.8584 0.48972 14.8851 0.390629 14.9404 0.31485C14.9957 0.23907 15.0702 0.202148 15.1675 0.202148H15.1656ZM15.0453 1.70219L15.4403 1.78574C15.4861 2.24431 15.5262 2.96325 15.5605 3.9445C15.5949 4.92575 15.6178 5.53392 15.6292 5.76904C15.5777 5.94197 15.4766 6.02941 15.3277 6.02941C15.2247 6.02941 15.1255 5.98861 15.032 5.90894C14.9366 5.82733 14.8793 5.72823 14.8564 5.61165C14.8679 5.38236 14.8908 4.78585 14.9251 3.82209C14.9595 2.85833 14.9996 2.15299 15.0453 1.70414V1.70219Z" fill="#6B6B6B"/>
<path d="M16.9954 2.65023L17.0297 5.97871C16.9439 6.0234 16.8408 6.04672 16.7206 6.04672C16.629 6.04672 16.526 6.03312 16.4115 6.00397C16.4287 5.65227 16.4401 4.9586 16.4458 3.92488C16.4516 2.89117 16.4745 2.1256 16.5145 1.62817L16.9019 1.71172L16.9286 2.18196C17.232 1.86912 17.5812 1.71172 17.9761 1.71172C18.1765 1.71172 18.3368 1.72533 18.457 1.75448C18.5772 1.78362 18.6936 1.85163 18.8042 1.96044C18.9168 2.06925 19.0008 2.21304 19.058 2.3918C19.1153 2.57056 19.1668 2.82705 19.2126 3.15931C19.2584 3.49158 19.2908 3.88019 19.3118 4.32516C19.3328 4.77012 19.3442 5.32973 19.35 6.00592C19.3156 6.01757 19.2488 6.0234 19.1515 6.0234C18.9454 6.0234 18.7852 5.99815 18.6707 5.94763C18.6478 5.85824 18.6363 5.70862 18.6363 5.50265C18.6363 5.39579 18.6402 5.19566 18.6497 4.90225C18.6592 4.60885 18.663 4.37956 18.663 4.21634C18.663 3.9482 18.6535 3.71309 18.6325 3.51101C18.6115 3.30893 18.5753 3.11073 18.5219 2.91448C18.4665 2.71823 18.3845 2.56668 18.2719 2.45981C18.1593 2.35294 18.0219 2.30048 17.8559 2.30048C17.667 2.30048 17.5201 2.31408 17.4132 2.34322C17.3064 2.37042 17.232 2.4054 17.19 2.44427C17.1461 2.48313 17.0831 2.55308 16.9973 2.65412L16.9954 2.65023Z" fill="#6B6B6B"/>
<path d="M22.6643 1.68659L23.0517 1.60303C23.0517 1.77013 23.0536 1.90227 23.0593 1.99748C23.0936 3.22161 23.1108 4.01827 23.1108 4.38745C23.1108 4.51569 23.1146 4.71777 23.1204 4.99174C23.1261 5.26571 23.128 5.47168 23.128 5.61158C23.128 5.91859 23.1184 6.18479 23.0975 6.40825C23.0765 6.6317 23.0326 6.86486 22.9639 7.10775C22.8952 7.35063 22.8017 7.54882 22.6853 7.70233C22.567 7.85583 22.401 7.98408 22.1873 8.08317C21.9736 8.18421 21.7198 8.23473 21.4279 8.23473C21.176 8.23473 20.7314 8.19781 20.096 8.12591C20.0903 8.06374 20.0808 7.99768 20.0655 7.92384C20.0502 7.85195 20.0445 7.7956 20.0445 7.75674C20.0445 7.67319 20.0521 7.60517 20.0712 7.55465C20.117 7.56048 20.2964 7.58186 20.6074 7.62072C20.9203 7.65958 21.1493 7.67901 21.2981 7.67901C21.6931 7.67901 21.9965 7.56243 22.2083 7.32732C22.4201 7.0922 22.5288 6.65307 22.5346 6.01185C22.2541 6.1673 21.9583 6.24697 21.6492 6.24697C21.3916 6.24697 21.1646 6.19451 20.9699 6.09153C20.7753 5.98854 20.6208 5.85641 20.5063 5.69708C20.3918 5.53775 20.2983 5.34539 20.2277 5.11805C20.1552 4.89071 20.1075 4.67308 20.0808 4.45934C20.0541 4.24755 20.0426 4.02021 20.0426 3.77927C20.0426 3.17497 20.1781 2.66978 20.4509 2.26173C20.7238 1.85369 21.1359 1.64967 21.6931 1.64967C22.0194 1.64967 22.3399 1.74681 22.6548 1.94306C22.6605 1.88672 22.6624 1.80123 22.6624 1.6827L22.6643 1.68659ZM22.5613 5.2016L22.5861 2.50074C22.5517 2.3997 22.4449 2.32197 22.2636 2.26173C22.0824 2.20344 21.8839 2.17429 21.6664 2.17429C21.3573 2.17429 21.1169 2.31225 20.9451 2.58817C20.7734 2.86408 20.6875 3.20023 20.6875 3.59662C20.6875 3.80258 20.699 4.00466 20.7219 4.20286C20.7448 4.40105 20.7906 4.61868 20.8593 4.85574C20.928 5.09279 21.0405 5.2832 21.1951 5.42893C21.3496 5.57466 21.5424 5.64656 21.7713 5.64656C21.9431 5.64656 22.1014 5.60575 22.2445 5.52609C22.3876 5.44448 22.4945 5.33761 22.5632 5.20354L22.5613 5.2016Z" fill="#6B6B6B"/>
<path d="M26.5988 2.3901L26.427 1.96262C26.5759 1.81689 26.7648 1.70224 26.9938 1.6148C27.2227 1.52736 27.4498 1.48462 27.673 1.48462C28.6404 1.48462 29.1251 2.30072 29.1251 3.93289C29.1251 4.15635 29.1117 4.48666 29.0869 4.92191C29.0621 5.35716 29.0488 5.68553 29.0488 5.90316C29.003 6.07609 28.9133 6.16353 28.7816 6.16353C28.6786 6.16353 28.5832 6.11301 28.4973 6.01197C28.4115 5.91093 28.3676 5.80018 28.3676 5.67582C28.3676 5.63696 28.3714 5.60976 28.3771 5.59227C28.0222 5.92842 27.6444 6.09553 27.2437 6.09553C26.9403 6.09553 26.6751 5.98866 26.448 5.77298C26.221 5.55729 26.1084 5.29693 26.1084 4.98798C26.1084 4.46724 26.3164 3.99896 26.7304 3.57925C27.1464 3.15955 27.6158 2.9497 28.1443 2.9497C28.1672 2.9497 28.1901 2.94969 28.213 2.95358C28.2359 2.95552 28.2626 2.96135 28.2951 2.96524C28.3256 2.97107 28.3504 2.97302 28.3676 2.97302C28.3218 2.32403 28.0547 1.99954 27.5681 1.99954C27.2819 1.99954 26.9575 2.12778 26.5969 2.38621L26.5988 2.3901ZM28.3943 5.01517C28.4057 4.62462 28.4115 4.32734 28.4115 4.1272C28.4115 3.9601 28.4057 3.72499 28.3943 3.42381H28.3256C27.9192 3.42964 27.549 3.57731 27.2132 3.86877C26.8774 4.16023 26.7114 4.51193 26.7114 4.9258C26.7114 5.10456 26.7667 5.24641 26.8793 5.35328C26.9918 5.46015 27.1273 5.51261 27.2876 5.51261C27.5395 5.51261 27.9096 5.34744 28.3962 5.01712L28.3943 5.01517Z" fill="#6B6B6B"/>
<path d="M32.3384 0L32.8593 0.0505217C32.947 0.905472 33.0291 2.66589 33.1092 5.33373C33.4908 5.31041 33.9774 5.3007 34.5651 5.3007C35.1528 5.3007 35.6241 5.29293 35.979 5.27544C36.0133 5.37065 36.0381 5.50472 36.0515 5.67766C36.0649 5.85059 36.082 5.97883 36.0992 6.06432C35.3493 6.01963 34.3915 5.99827 33.2294 5.99827H32.2754C32.304 5.17052 32.3212 4.06491 32.3231 2.67756C32.3269 1.29215 32.3307 0.400274 32.3364 0.00194497L32.3384 0Z" fill="#6B6B6B"/>
<path d="M36.7613 2.3901L36.5896 1.96262C36.7384 1.81689 36.9273 1.70224 37.1563 1.6148C37.3853 1.52736 37.6123 1.48462 37.8356 1.48462C38.803 1.48462 39.2876 2.30072 39.2876 3.93289C39.2876 4.15635 39.2743 4.48666 39.2495 4.92191C39.2247 5.35716 39.2113 5.68553 39.2113 5.90316C39.1655 6.07609 39.0758 6.16353 38.9442 6.16353C38.8411 6.16353 38.7457 6.11301 38.6599 6.01197C38.574 5.91093 38.5301 5.80018 38.5301 5.67582C38.5301 5.63696 38.5339 5.60976 38.5397 5.59227C38.1848 5.92842 37.807 6.09553 37.4063 6.09553C37.1029 6.09553 36.8376 5.98866 36.6106 5.77298C36.3835 5.55729 36.2709 5.29693 36.2709 4.98798C36.2709 4.46724 36.4789 3.99896 36.893 3.57925C37.3089 3.15955 37.7783 2.9497 38.3069 2.9497C38.3298 2.9497 38.3527 2.94969 38.3756 2.95358C38.3985 2.95552 38.4252 2.96135 38.4576 2.96524C38.4881 2.97107 38.5129 2.97302 38.5301 2.97302C38.4843 2.32403 38.2172 1.99954 37.7306 1.99954C37.4444 1.99954 37.12 2.12778 36.7594 2.38621L36.7613 2.3901ZM38.5568 5.01517C38.5683 4.62462 38.574 4.32734 38.574 4.1272C38.574 3.9601 38.5683 3.72499 38.5568 3.42381H38.4881C38.0817 3.42964 37.7115 3.57731 37.3757 3.86877C37.0399 4.16023 36.8739 4.51193 36.8739 4.9258C36.8739 5.10456 36.9292 5.24641 37.0418 5.35328C37.1544 5.46015 37.2899 5.51261 37.4501 5.51261C37.702 5.51261 38.0722 5.34744 38.5587 5.01712L38.5568 5.01517Z" fill="#6B6B6B"/>
<path d="M42.6306 1.97026L42.5447 2.30642C41.9895 2.08297 41.5563 1.97026 41.2472 1.97026C40.9725 1.97026 40.7797 2.01107 40.6672 2.09268C40.5546 2.17429 40.4993 2.34528 40.4993 2.6076C40.4993 2.81939 40.5775 2.9962 40.7359 3.13611C40.8942 3.27601 41.0831 3.38676 41.3064 3.46643C41.5296 3.54804 41.7548 3.63354 41.9799 3.72681C42.2051 3.82007 42.3978 3.95414 42.5562 4.1329C42.7145 4.31166 42.7928 4.53318 42.7928 4.79549C42.7928 5.15302 42.6573 5.46585 42.3883 5.73399C42.1192 6.00213 41.77 6.13816 41.3407 6.14399C41.0259 6.14399 40.7301 6.07986 40.4554 5.94968C40.1806 5.81949 39.9631 5.65627 39.8028 5.45808L40.0528 5.20353C40.1214 5.23074 40.2226 5.27543 40.3581 5.33761C40.4935 5.39979 40.5889 5.44059 40.6462 5.46002C40.7034 5.47945 40.7874 5.50083 40.8999 5.5222C41.0125 5.54552 41.1308 5.55523 41.2568 5.55523C41.5258 5.55523 41.7471 5.49693 41.9189 5.38035C42.0906 5.26376 42.1765 5.10055 42.1765 4.88876C42.1765 4.7508 42.1364 4.63227 42.0563 4.53512C41.9761 4.43796 41.8693 4.3583 41.7376 4.29807C41.6059 4.23783 41.4609 4.17759 41.3045 4.12319C41.1461 4.06684 40.9896 4.00466 40.8313 3.9347C40.6729 3.86475 40.5298 3.78121 40.3981 3.68405C40.2665 3.5869 40.1596 3.45283 40.0795 3.28573C39.9993 3.11862 39.9593 2.92043 39.9593 2.69115C39.9593 2.355 40.0528 2.07519 40.2378 1.84785C40.4229 1.62051 40.6862 1.50781 41.024 1.50781C41.1556 1.50781 41.3045 1.52724 41.4705 1.5661C41.6365 1.60496 41.7681 1.64189 41.8654 1.67493C41.9628 1.70796 42.1078 1.76236 42.2986 1.83814C42.4913 1.91392 42.6001 1.95666 42.6287 1.96832L42.6306 1.97026Z" fill="#6B6B6B"/>
<path d="M45.6626 1.95468L45.758 2.33164C45.6034 2.34329 45.3649 2.37244 45.0444 2.41908C44.7238 2.46571 44.4834 2.4968 44.3231 2.50652C44.3517 2.70277 44.3689 2.95926 44.3746 3.27792C44.3803 3.59658 44.388 3.8725 44.3956 4.10373C44.4032 4.33495 44.43 4.56811 44.4738 4.79934C44.5177 5.03056 44.6055 5.20932 44.741 5.33173C44.8764 5.45415 45.0577 5.51633 45.2867 5.51633C45.4584 5.51633 45.674 5.47747 45.9316 5.39975C46.0404 5.60571 46.1205 5.75728 46.172 5.85249C45.7198 6.00988 45.2619 6.08759 44.7982 6.08759C44.6265 6.08759 44.4777 6.03708 44.3517 5.93604C44.2258 5.835 44.1285 5.7087 44.0598 5.55908C43.9911 5.40752 43.9358 5.2171 43.8919 4.98393C43.8499 4.7527 43.8213 4.53313 43.8098 4.32523C43.7984 4.11926 43.7927 3.88027 43.7927 3.61212C43.7927 3.46639 43.7927 3.26626 43.7965 3.00783C43.7984 2.75135 43.8003 2.57452 43.8003 2.47931C43.743 2.48514 43.6076 2.48903 43.3958 2.49097C43.184 2.49291 43.0599 2.49486 43.0256 2.49486C42.9855 2.11985 42.9645 1.92749 42.9645 1.91583C43.0046 1.92749 43.0695 1.93331 43.163 1.93331C43.2145 1.93331 43.2985 1.92942 43.4129 1.91971C43.5274 1.91193 43.6133 1.90805 43.6705 1.90805C43.6934 1.90805 43.724 1.90805 43.7602 1.91194C43.7965 1.91388 43.8213 1.91583 43.8327 1.91583C43.8556 1.30182 43.8804 0.800499 43.909 0.415771L44.2964 0.507102C44.3021 0.641174 44.3059 0.784955 44.3097 0.938458C44.3117 1.09196 44.3155 1.26295 44.3174 1.44949C44.3212 1.63602 44.3212 1.77981 44.3212 1.88085C44.47 1.89251 44.6933 1.90417 44.9909 1.91388C45.2886 1.92554 45.5118 1.9372 45.6607 1.94691L45.6626 1.95468Z" fill="#6B6B6B"/>
<path d="M46.8227 0.202148C46.9772 0.202148 47.107 0.268215 47.21 0.3984C47.313 0.530529 47.3646 0.680145 47.3646 0.847249C47.3646 0.969662 47.334 1.06875 47.2749 1.14453C47.2157 1.22031 47.1337 1.25723 47.0306 1.25723C46.8704 1.25723 46.7444 1.19311 46.6528 1.06487C46.5613 0.936629 46.5155 0.785066 46.5155 0.612133C46.5155 0.48972 46.5422 0.390629 46.5975 0.31485C46.6528 0.23907 46.7273 0.202148 46.8246 0.202148H46.8227ZM46.7024 1.70219L47.0974 1.78574C47.1432 2.24431 47.1833 2.96325 47.2176 3.9445C47.252 4.92575 47.2749 5.53392 47.2863 5.76904C47.2348 5.94197 47.1337 6.02941 46.9848 6.02941C46.8818 6.02941 46.7826 5.98861 46.6891 5.90894C46.5937 5.82733 46.5364 5.72823 46.5135 5.61165C46.525 5.38236 46.5479 4.78585 46.5822 3.82209C46.6166 2.85833 46.6567 2.15299 46.7024 1.70414V1.70219Z" fill="#6B6B6B"/>
<path d="M48.6525 2.65023L48.6869 5.97871C48.601 6.0234 48.498 6.04672 48.3778 6.04672C48.2862 6.04672 48.1832 6.03312 48.0687 6.00397C48.0858 5.65227 48.0973 4.9586 48.103 3.92488C48.1087 2.89117 48.1316 2.1256 48.1717 1.62817L48.559 1.71172L48.5858 2.18196C48.8891 1.86912 49.2383 1.71172 49.6333 1.71172C49.8337 1.71172 49.9939 1.72533 50.1141 1.75448C50.2344 1.78362 50.3507 1.85163 50.4614 1.96044C50.574 2.06925 50.6579 2.21304 50.7152 2.3918C50.7724 2.57056 50.8239 2.82705 50.8697 3.15931C50.9155 3.49158 50.948 3.88019 50.969 4.32516C50.99 4.77012 51.0014 5.32973 51.0071 6.00592C50.9728 6.01757 50.906 6.0234 50.8087 6.0234C50.6026 6.0234 50.4423 5.99815 50.3278 5.94763C50.3049 5.85824 50.2935 5.70862 50.2935 5.50265C50.2935 5.39579 50.2973 5.19566 50.3069 4.90225C50.3164 4.60885 50.3202 4.37956 50.3202 4.21634C50.3202 3.9482 50.3107 3.71309 50.2897 3.51101C50.2687 3.30893 50.2324 3.11073 50.179 2.91448C50.1237 2.71823 50.0416 2.56668 49.9291 2.45981C49.8165 2.35294 49.6791 2.30048 49.5131 2.30048C49.3242 2.30048 49.1773 2.31408 49.0704 2.34322C48.9636 2.37042 48.8891 2.4054 48.8472 2.44427C48.8033 2.48313 48.7403 2.55308 48.6545 2.65412L48.6525 2.65023Z" fill="#6B6B6B"/>
<path d="M54.3215 1.68659L54.7088 1.60303C54.7088 1.77013 54.7107 1.90227 54.7165 1.99748C54.7508 3.22161 54.768 4.01827 54.768 4.38745C54.768 4.51569 54.7718 4.71777 54.7775 4.99174C54.7832 5.26571 54.7852 5.47168 54.7852 5.61158C54.7852 5.91859 54.7756 6.18479 54.7546 6.40825C54.7336 6.6317 54.6897 6.86486 54.6211 7.10775C54.5524 7.35063 54.4589 7.54882 54.3425 7.70233C54.2242 7.85583 54.0582 7.98408 53.8445 8.08317C53.6308 8.18421 53.377 8.23473 53.085 8.23473C52.8332 8.23473 52.3886 8.19781 51.7532 8.12591C51.7475 8.06374 51.7379 7.99768 51.7227 7.92384C51.7074 7.85195 51.7017 7.7956 51.7017 7.75674C51.7017 7.67319 51.7093 7.60517 51.7284 7.55465C51.7742 7.56048 51.9535 7.58186 52.2646 7.62072C52.5775 7.65958 52.8065 7.67901 52.9553 7.67901C53.3503 7.67901 53.6537 7.56243 53.8655 7.32732C54.0773 7.0922 54.186 6.65307 54.1917 6.01185C53.9112 6.1673 53.6155 6.24697 53.3064 6.24697C53.0488 6.24697 52.8217 6.19451 52.6271 6.09153C52.4325 5.98854 52.2779 5.85641 52.1634 5.69708C52.0489 5.53775 51.9555 5.34539 51.8849 5.11805C51.8123 4.89071 51.7646 4.67308 51.7379 4.45934C51.7112 4.24755 51.6998 4.02021 51.6998 3.77927C51.6998 3.17497 51.8352 2.66978 52.1081 2.26173C52.381 1.85369 52.7931 1.64967 53.3503 1.64967C53.6766 1.64967 53.9971 1.74681 54.3119 1.94306C54.3177 1.88672 54.3196 1.80123 54.3196 1.6827L54.3215 1.68659ZM54.2185 5.2016L54.2433 2.50074C54.2089 2.3997 54.1021 2.32197 53.9208 2.26173C53.7395 2.20344 53.5411 2.17429 53.3236 2.17429C53.0144 2.17429 52.774 2.31225 52.6023 2.58817C52.4306 2.86408 52.3447 3.20023 52.3447 3.59662C52.3447 3.80258 52.3562 4.00466 52.379 4.20286C52.4019 4.40105 52.4477 4.61868 52.5164 4.85574C52.5851 5.09279 52.6977 5.2832 52.8523 5.42893C53.0068 5.57466 53.1995 5.64656 53.4285 5.64656C53.6002 5.64656 53.7586 5.60575 53.9017 5.52609C54.0448 5.44448 54.1517 5.33761 54.2204 5.20354L54.2185 5.2016Z" fill="#6B6B6B"/>
<path d="M58.0079 0L58.5288 0.0505217C58.6166 0.905472 58.6986 2.66589 58.7788 5.33373C59.1604 5.31041 59.647 5.3007 60.2347 5.3007C60.8224 5.3007 61.2937 5.29293 61.6486 5.27544C61.6829 5.37065 61.7077 5.50472 61.7211 5.67766C61.7344 5.85059 61.7516 5.97883 61.7688 6.06432C61.0189 6.01963 60.061 5.99827 58.899 5.99827H57.9449C57.9736 5.17052 57.9907 4.06491 57.9926 2.67756C57.9965 1.29215 58.0003 0.400274 58.006 0.00194497L58.0079 0Z" fill="#6B6B6B"/>
<path d="M65.585 5.19976L65.6708 5.56895C65.419 5.65833 65.045 5.75742 64.5489 5.86623C64.0528 5.97504 63.6845 6.02946 63.4441 6.02946C63.2037 6.02946 62.9823 5.94979 62.7992 5.79046C62.616 5.63113 62.4786 5.4271 62.387 5.17839C62.2954 4.92968 62.2286 4.68291 62.1847 4.44003C62.1428 4.19714 62.1199 3.95814 62.1199 3.72303C62.1199 2.32597 62.7667 1.62646 64.0623 1.62646C64.3714 1.62646 64.6443 1.72362 64.879 1.91598C65.1137 2.10834 65.232 2.359 65.232 2.666C65.232 2.83311 65.1843 2.98272 65.0908 3.11096C64.9954 3.2392 64.8809 3.34219 64.7473 3.41797C64.6137 3.49375 64.4401 3.56176 64.2321 3.62393C64.0222 3.68611 63.8391 3.7308 63.6788 3.75801C63.5185 3.78521 63.3258 3.81629 63.1025 3.85127C62.8793 3.8843 62.7247 3.90957 62.6389 3.92705C62.6446 4.08833 62.6541 4.23212 62.6694 4.35453C62.6828 4.47694 62.7114 4.61101 62.7553 4.75286C62.7972 4.8947 62.8545 5.01323 62.927 5.10455C62.9995 5.19588 63.0968 5.2736 63.2228 5.33578C63.3487 5.39796 63.4975 5.42711 63.6692 5.42711C63.8753 5.42711 64.1272 5.40962 64.4248 5.3727C64.7225 5.33578 64.9877 5.29886 65.2205 5.26C65.4533 5.22113 65.5735 5.20171 65.585 5.20171V5.19976ZM62.6732 3.40631C63.4517 3.18869 64.0909 2.95941 64.5889 2.71847C64.5489 2.53388 64.4935 2.3998 64.4248 2.31625C64.3562 2.2327 64.2531 2.18995 64.1157 2.18995C63.7666 2.18995 63.4498 2.30653 63.1674 2.54164C62.8831 2.77675 62.719 3.06433 62.6732 3.40631Z" fill="#6B6B6B"/>
<path d="M68.6341 1.68659L69.0215 1.60303C69.0215 1.77013 69.0234 1.90227 69.0291 1.99748C69.0634 3.22161 69.0806 4.01827 69.0806 4.38745C69.0806 4.51569 69.0844 4.71777 69.0901 4.99174C69.0959 5.26571 69.0978 5.47168 69.0978 5.61158C69.0978 5.91859 69.0882 6.18479 69.0672 6.40825C69.0463 6.6317 69.0024 6.86486 68.9337 7.10775C68.865 7.35063 68.7715 7.54882 68.6551 7.70233C68.5368 7.85583 68.3708 7.98408 68.1571 8.08317C67.9434 8.18421 67.6896 8.23473 67.3977 8.23473C67.1458 8.23473 66.7012 8.19781 66.0658 8.12591C66.0601 8.06374 66.0506 7.99768 66.0353 7.92384C66.02 7.85195 66.0143 7.7956 66.0143 7.75674C66.0143 7.67319 66.0219 7.60517 66.041 7.55465C66.0868 7.56048 66.2662 7.58186 66.5772 7.62072C66.8901 7.65958 67.1191 7.67901 67.2679 7.67901C67.6629 7.67901 67.9663 7.56243 68.1781 7.32732C68.3899 7.0922 68.4986 6.65307 68.5044 6.01185C68.2239 6.1673 67.9281 6.24697 67.619 6.24697C67.3614 6.24697 67.1343 6.19451 66.9397 6.09153C66.7451 5.98854 66.5905 5.85641 66.4761 5.69708C66.3616 5.53775 66.2681 5.34539 66.1975 5.11805C66.125 4.89071 66.0773 4.67308 66.0505 4.45934C66.0238 4.24755 66.0124 4.02021 66.0124 3.77927C66.0124 3.17497 66.1479 2.66978 66.4207 2.26173C66.6936 1.85369 67.1057 1.64967 67.6629 1.64967C67.9892 1.64967 68.3097 1.74681 68.6246 1.94306C68.6303 1.88672 68.6322 1.80123 68.6322 1.6827L68.6341 1.68659ZM68.5311 5.2016L68.5559 2.50074C68.5215 2.3997 68.4147 2.32197 68.2334 2.26173C68.0521 2.20344 67.8537 2.17429 67.6362 2.17429C67.3271 2.17429 67.0866 2.31225 66.9149 2.58817C66.7432 2.86408 66.6573 3.20023 66.6573 3.59662C66.6573 3.80258 66.6688 4.00466 66.6917 4.20286C66.7146 4.40105 66.7604 4.61868 66.8291 4.85574C66.8977 5.09279 67.0103 5.2832 67.1649 5.42893C67.3194 5.57466 67.5122 5.64656 67.7411 5.64656C67.9129 5.64656 68.0712 5.60575 68.2143 5.52609C68.3574 5.44448 68.4643 5.33761 68.533 5.20354L68.5311 5.2016Z" fill="#6B6B6B"/>
<path d="M70.1129 2.3901L69.9412 1.96262C70.09 1.81689 70.2789 1.70224 70.5079 1.6148C70.7368 1.52736 70.9639 1.48462 71.1871 1.48462C72.1545 1.48462 72.6392 2.30072 72.6392 3.93289C72.6392 4.15635 72.6258 4.48666 72.601 4.92191C72.5762 5.35716 72.5629 5.68553 72.5629 5.90316C72.5171 6.07609 72.4274 6.16353 72.2957 6.16353C72.1927 6.16353 72.0973 6.11301 72.0114 6.01197C71.9256 5.91093 71.8817 5.80018 71.8817 5.67582C71.8817 5.63696 71.8855 5.60976 71.8912 5.59227C71.5363 5.92842 71.1585 6.09553 70.7578 6.09553C70.4544 6.09553 70.1892 5.98866 69.9621 5.77298C69.7351 5.55729 69.6225 5.29693 69.6225 4.98798C69.6225 4.46724 69.8305 3.99896 70.2445 3.57925C70.6605 3.15955 71.1299 2.9497 71.6584 2.9497C71.6813 2.9497 71.7042 2.94969 71.7271 2.95358C71.75 2.95552 71.7767 2.96135 71.8092 2.96524C71.8397 2.97107 71.8645 2.97302 71.8817 2.97302C71.8359 2.32403 71.5688 1.99954 71.0822 1.99954C70.796 1.99954 70.4716 2.12778 70.111 2.38621L70.1129 2.3901ZM71.9084 5.01517C71.9198 4.62462 71.9256 4.32734 71.9256 4.1272C71.9256 3.9601 71.9198 3.72499 71.9084 3.42381H71.8397C71.4333 3.42964 71.0631 3.57731 70.7273 3.86877C70.3915 4.16023 70.2255 4.51193 70.2255 4.9258C70.2255 5.10456 70.2808 5.24641 70.3934 5.35328C70.5059 5.46015 70.6414 5.51261 70.8017 5.51261C71.0536 5.51261 71.4237 5.34744 71.9103 5.01712L71.9084 5.01517Z" fill="#6B6B6B"/>
<path d="M76.2283 1.85373L76.1863 2.21514C75.9459 2.18211 75.7398 2.16462 75.5681 2.16462C75.1731 2.16462 74.8468 2.28121 74.5892 2.51243C74.3316 2.74366 74.1561 3.01763 74.0607 3.33435C73.9653 3.65107 73.9195 4.00082 73.9195 4.38749C73.9195 4.56625 73.9309 4.72559 73.9538 4.86549C73.9767 5.00539 74.0187 5.1414 74.0779 5.27547C74.1389 5.40955 74.2324 5.51447 74.3622 5.59025C74.49 5.66603 74.6503 5.70295 74.8392 5.70295C75.0911 5.70295 75.4116 5.65632 75.8009 5.56111C75.9211 5.51642 76.0165 5.4931 76.0852 5.4931C76.2226 5.4931 76.3046 5.65048 76.3351 5.96332C75.8314 6.11876 75.3639 6.19843 74.9346 6.19843C74.3107 6.19843 73.8871 6.04882 73.6676 5.74958C73.4463 5.45035 73.3375 4.96653 73.3375 4.29423C73.3375 3.90367 73.3642 3.55974 73.4196 3.26633C73.4749 2.97293 73.5703 2.69896 73.7077 2.44442C73.8451 2.18988 74.0435 1.99557 74.3049 1.8615C74.5663 1.72743 74.885 1.65942 75.2628 1.65942C75.6864 1.65942 76.0108 1.72354 76.234 1.85179L76.2283 1.85373Z" fill="#6B6B6B"/>
<path d="M77.3884 8.49499L76.8561 8.20159C77.0908 7.8052 77.5067 7.04934 78.1021 5.93791C77.6384 5.53569 77.2835 4.92557 77.0373 4.10949C76.7912 3.2934 76.6424 2.47731 76.5909 1.66122L77.0889 1.68648C77.1175 1.82056 77.1785 2.12756 77.2739 2.60555C77.3694 3.08355 77.4438 3.43719 77.501 3.66647C77.5583 3.89575 77.6594 4.18138 77.8063 4.52531C77.9532 4.86923 78.1192 5.15874 78.3081 5.39385C79.1038 3.90157 79.5026 2.67745 79.5026 1.72146V1.63013C79.8003 1.67482 80.0235 1.72728 80.1723 1.78946C80.0808 2.37627 79.9376 2.97473 79.743 3.58485C79.5484 4.19498 79.3042 4.80705 79.0122 5.42495C78.7203 6.04284 78.4608 6.56164 78.2356 6.9794C78.0086 7.39911 77.7281 7.9043 77.3903 8.49694L77.3884 8.49499Z" fill="#6B6B6B"/>
</svg>
