<svg width="305" height="150" viewBox="0 0 305 150" fill="none" xmlns="http://www.w3.org/2000/svg">
<path d="M98.7745 59.2487C92.9865 54.8447 87.2126 50.425 81.4583 45.9711C80.8318 45.4838 80.4075 45.5026 79.7725 45.9336C74.0548 49.7972 68.3117 53.6078 62.5968 57.4683C61.9646 57.8962 61.5235 57.9118 60.8857 57.4777C55.1764 53.6078 49.4334 49.791 43.7241 45.918C43.0694 45.4745 42.648 45.5119 42.0383 45.9804C36.2812 50.4344 30.5073 54.8571 24.7249 59.2643C24.1995 59.6641 24 60.0795 24 60.776C24.0253 67.991 24.0028 75.203 24.045 82.4149C24.0478 82.9459 24.3091 83.6205 24.6687 83.9829C34.306 93.7372 43.9713 103.457 53.6339 113.18C56.32 115.882 59.0032 118.581 61.7567 121.348C62.0293 121.092 62.2147 120.939 62.3833 120.764C64.7181 118.415 67.0502 116.063 69.3851 113.711C71.9391 111.141 74.4903 108.57 77.0443 105.997C76.0609 105.603 75.4287 104.457 75.4484 103.407C75.4737 101.905 76.6285 100.812 77.6568 100.818C79.1375 100.827 80.1518 101.49 80.4159 102.598C85.7544 97.2136 91.09 91.8288 96.4228 86.4379C97.2657 85.5883 98.1086 84.7356 98.9543 83.8798C99.283 83.5456 99.4825 82.8897 99.4853 82.3806C99.5191 75.203 99.4994 68.0254 99.5247 60.851C99.5247 60.1294 99.3364 59.6703 98.7773 59.2424L98.7745 59.2487ZM42.8643 53.5484C42.8531 53.8046 42.6002 54.1107 42.3839 54.2793C38.7397 57.0997 35.0899 59.9077 31.4204 62.6938C31.1956 62.8655 30.7601 62.9749 30.541 62.8562C29.6419 62.3814 28.7849 61.8067 27.765 61.1727C32.8253 57.2872 37.7703 53.4922 42.8868 49.5661C42.8868 51.0435 42.9149 52.296 42.8671 53.5453L42.8643 53.5484ZM66.1146 94.1558H57.3595C58.3542 90.9293 59.3291 87.7622 60.3041 84.6044C57.6939 82.7928 56.865 80.9969 57.5253 78.6387C58.0929 76.6148 59.8714 75.2623 61.9028 75.3217C63.7881 75.3716 65.5077 76.824 65.9909 78.7699C66.5641 81.1 65.665 82.9927 63.1644 84.5794C64.1506 87.7715 65.1227 90.9168 66.1202 94.1558H66.1146Z" fill="#FF5972"/>
<path d="M79.6826 20H43.8196L42.3446 21.5742L40.8554 23.1765V28.4363C40.8442 32.7841 40.8526 37.1319 40.8554 41.4796C40.8554 41.8232 40.8919 42.1699 40.9116 42.501H48.4781V28.4269L75.1 28.3895V42.5197H82.6721C82.6721 37.744 82.6806 33.0746 82.6721 28.4019C82.6721 28.3926 82.6721 28.3863 82.6721 28.3801L82.6525 23.1671L81.1942 21.5773L79.6826 20Z" fill="#FF5972"/>
<path d="M109.856 93.2562C109.853 92.2068 109.749 91.1292 109.328 90.1516C108.198 87.5498 106.167 86.4628 103.601 86.4566C101.208 86.4504 98.8165 86.4441 96.4227 86.4441C89.6738 86.4379 82.9249 86.4472 76.1732 86.4472C75.3949 86.4472 74.625 86.4941 73.8468 86.6065C72.1328 86.847 69.3878 89.3364 69.3934 91.7227C69.4159 99.0533 69.4608 106.384 69.3821 113.715L69.3737 114.545C69.3484 116.769 71.318 119.465 73.2848 120.18C73.9254 120.411 74.566 120.458 75.201 120.455H77.0948C77.1706 120.461 77.2521 120.467 77.3336 120.477C77.4853 120.495 77.6089 120.489 77.7157 120.455H80.9103C80.9216 120.63 80.9131 120.808 80.8766 120.98C80.7305 121.695 80.6856 122.451 80.531 123.15C80.3568 123.944 80.4524 124.737 80.2866 125.524C80.0421 126.695 80.0225 127.92 79.8764 129.422C83.8886 126.346 87.5721 123.453 91.4608 120.452H95.6107C95.7174 120.477 95.8355 120.47 95.9703 120.47C98.6508 120.467 101.331 120.424 104.012 120.486C105.582 120.524 106.841 119.824 107.954 118.803C109.389 117.484 109.853 115.657 109.859 113.721C109.89 106.896 109.881 100.075 109.856 93.25V93.2562ZM77.9573 106.131C77.6314 106.162 77.3252 106.112 77.0442 106.003H77.0414C76.058 105.609 75.4258 104.463 75.4455 103.414C75.4708 101.911 76.6255 100.818 77.6539 100.824C79.1346 100.834 80.1489 101.496 80.413 102.605C80.458 102.789 80.4805 102.986 80.4805 103.198C80.4917 105.063 79.5813 106.122 77.9517 106.131H77.9573ZM89.2832 106.178C88.2408 106.156 86.9933 104.928 87.1282 103.464C87.1394 101.802 88.1144 100.83 89.8424 100.902C91.3315 100.965 92.1407 102.158 92.0873 103.52C92.0227 105.275 90.9775 106.206 89.2832 106.175V106.178ZM101.149 106.04C99.8449 106.271 98.7435 104.707 98.6901 103.604C98.6255 102.245 99.828 100.89 100.831 100.915C102.528 100.952 103.565 101.899 103.599 103.439C103.63 104.766 102.441 106.206 101.149 106.04Z" fill="#4A5FD7"/>
<path d="M98.7745 59.2487C92.9865 54.8447 87.2126 50.425 81.4583 45.9711C80.8318 45.4838 80.4075 45.5026 79.7725 45.9336C74.0548 49.7972 68.3117 53.6078 62.5968 57.4683C61.9646 57.8962 61.5235 57.9118 60.8857 57.4777C55.1764 53.6078 49.4334 49.791 43.7241 45.918C43.0694 45.4745 42.648 45.5119 42.0383 45.9804C36.2812 50.4344 30.5073 54.8571 24.7249 59.2643C24.1995 59.6641 24 60.0795 24 60.776C24.0253 67.991 24.0028 75.203 24.045 82.4149C24.0478 82.9459 24.3091 83.6205 24.6687 83.9829C34.306 93.7372 43.9713 103.457 53.6339 113.18C56.32 115.882 59.0032 118.581 61.7567 121.348C62.0293 121.092 62.2147 120.939 62.3833 120.764C64.7181 118.415 67.0502 116.063 69.3851 113.711C71.9391 111.141 74.4903 108.57 77.0443 105.997C76.0609 105.603 75.4287 104.457 75.4484 103.407C75.4737 101.905 76.6285 100.812 77.6568 100.818C79.1375 100.827 80.1518 101.49 80.4159 102.598C85.7544 97.2136 91.09 91.8288 96.4228 86.4379C97.2657 85.5883 98.1086 84.7356 98.9543 83.8798C99.283 83.5456 99.4825 82.8897 99.4853 82.3806C99.5191 75.203 99.4994 68.0254 99.5247 60.851C99.5247 60.1294 99.3364 59.6703 98.7773 59.2424L98.7745 59.2487ZM42.8643 53.5484C42.8531 53.8046 42.6002 54.1107 42.3839 54.2793C38.7397 57.0997 35.0899 59.9077 31.4204 62.6938C31.1956 62.8655 30.7601 62.9749 30.541 62.8562C29.6419 62.3814 28.7849 61.8067 27.765 61.1727C32.8253 57.2872 37.7703 53.4922 42.8868 49.5661C42.8868 51.0435 42.9149 52.296 42.8671 53.5453L42.8643 53.5484ZM66.1146 94.1558H57.3595C58.3542 90.9293 59.3291 87.7622 60.3041 84.6044C57.6939 82.7928 56.865 80.9969 57.5253 78.6387C58.0929 76.6148 59.8714 75.2623 61.9028 75.3217C63.7881 75.3716 65.5077 76.824 65.9909 78.7699C66.5641 81.1 65.665 82.9927 63.1644 84.5794C64.1506 87.7715 65.1227 90.9168 66.1202 94.1558H66.1146Z" fill="#FF5972"/>
<path d="M79.6826 20H43.8196L42.3446 21.5742L40.8554 23.1765V28.4363C40.8442 32.7841 40.8526 37.1319 40.8554 41.4796C40.8554 41.8232 40.8919 42.1699 40.9116 42.501H48.4781V28.4269L75.1 28.3895V42.5197H82.6721C82.6721 37.744 82.6806 33.0746 82.6721 28.4019C82.6721 28.3926 82.6721 28.3863 82.6721 28.3801L82.6525 23.1671L81.1942 21.5773L79.6826 20Z" fill="#FF5972"/>
<path d="M109.856 93.2562C109.853 92.2068 109.749 91.1292 109.328 90.1516C108.198 87.5498 106.167 86.4628 103.601 86.4566C101.208 86.4504 98.8165 86.4441 96.4227 86.4441C89.6738 86.4379 82.9249 86.4472 76.1732 86.4472C75.3949 86.4472 74.625 86.4941 73.8468 86.6065C72.1328 86.847 69.3878 89.3364 69.3934 91.7227C69.4159 99.0533 69.4608 106.384 69.3821 113.715L69.3737 114.545C69.3484 116.769 71.318 119.465 73.2848 120.18C73.9254 120.411 74.566 120.458 75.201 120.455H77.0948C77.1706 120.461 77.2521 120.467 77.3336 120.477C77.4853 120.495 77.6089 120.489 77.7157 120.455H80.9103C80.9216 120.63 80.9131 120.808 80.8766 120.98C80.7305 121.695 80.6856 122.451 80.531 123.15C80.3568 123.944 80.4524 124.737 80.2866 125.524C80.0421 126.695 80.0225 127.92 79.8764 129.422C83.8886 126.346 87.5721 123.453 91.4608 120.452H95.6107C95.7174 120.477 95.8355 120.47 95.9703 120.47C98.6508 120.467 101.331 120.424 104.012 120.486C105.582 120.524 106.841 119.824 107.954 118.803C109.389 117.484 109.853 115.657 109.859 113.721C109.89 106.896 109.881 100.075 109.856 93.25V93.2562ZM77.9573 106.131C77.6314 106.162 77.3252 106.112 77.0442 106.003H77.0414C76.058 105.609 75.4258 104.463 75.4455 103.414C75.4708 101.911 76.6255 100.818 77.6539 100.824C79.1346 100.834 80.1489 101.496 80.413 102.605C80.458 102.789 80.4805 102.986 80.4805 103.198C80.4917 105.063 79.5813 106.122 77.9517 106.131H77.9573ZM89.2832 106.178C88.2408 106.156 86.9933 104.928 87.1282 103.464C87.1394 101.802 88.1144 100.83 89.8424 100.902C91.3315 100.965 92.1407 102.158 92.0873 103.52C92.0227 105.275 90.9775 106.206 89.2832 106.175V106.178ZM101.149 106.04C99.8449 106.271 98.7435 104.707 98.6901 103.604C98.6255 102.245 99.828 100.89 100.831 100.915C102.528 100.952 103.565 101.899 103.599 103.439C103.63 104.766 102.441 106.206 101.149 106.04Z" fill="#4A5FD7"/>
<g opacity="0.2">
<path d="M201.025 34.0159C196.888 34.0159 192.826 34.0159 188.692 34.0159C188.902 34.3168 189.074 34.5687 189.253 34.8173C194.646 42.4224 200.039 50.0274 205.421 57.6423C205.642 57.9563 205.84 58.3554 205.892 58.7381C206.036 59.7815 205.303 60.6156 204.296 60.6222C202.94 60.632 201.586 60.6222 200.229 60.6222C195.373 60.6222 190.515 60.6189 185.659 60.6255C184.972 60.6255 184.42 60.3834 184.098 59.7128C183.762 59.0129 183.891 58.3554 184.325 57.7437C186.432 54.7671 186.777 54.4433 188.882 51.4667C189.143 51.1003 189.261 51.1003 189.529 51.4667C190.006 52.1274 190.466 52.8012 190.952 53.4522C191.161 53.7302 191.038 53.7891 190.837 54.0671C189.603 55.7909 190.25 55.0255 189.028 56.7559C188.948 56.8703 188.867 56.9881 188.752 57.1615C192.869 57.1615 196.934 57.1615 201.065 57.1615C200.953 56.9979 200.858 56.854 200.76 56.7166C196.215 50.3055 191.938 44.2672 186.133 36.0799C185.507 35.1935 184.877 34.307 184.25 33.4206C183.828 32.822 183.707 32.1711 184.041 31.4842C184.365 30.8136 184.912 30.5683 185.602 30.5683C191.777 30.5748 197.952 30.5748 204.127 30.5683C204.817 30.5683 205.363 30.8201 205.679 31.494C206.001 32.1809 205.883 32.8285 205.458 33.4304C203.354 36.407 202.664 37.3261 200.556 40.3028C200.283 40.6887 200.16 40.6855 199.884 40.2962C199.412 39.6322 198.952 38.9584 198.463 38.3074C198.259 38.036 198.133 38.1733 198.323 37.9084C199.57 36.1617 199.539 36.1322 200.778 34.379C200.85 34.2776 200.916 34.1696 201.016 34.0094L201.025 34.0159Z" fill="#4A5FD7"/>
</g>
<path d="M201.025 57.1811C196.888 57.1811 192.826 57.1811 188.692 57.1811C188.902 56.8801 189.074 56.6283 189.253 56.3797C194.646 48.7746 200.039 41.1695 205.421 33.5547C205.642 33.2407 205.84 32.8416 205.892 32.4589C206.036 31.4154 205.303 30.5813 204.296 30.5748C202.94 30.565 201.586 30.5748 200.229 30.5748C195.373 30.5748 190.515 30.5781 185.659 30.5715C184.972 30.5715 184.42 30.8136 184.098 31.4841C183.762 32.1841 183.891 32.8416 184.325 33.4533C186.432 36.4299 186.703 36.878 188.81 39.8546C189.071 40.221 189.261 40.0967 189.529 39.727C190.006 39.0663 190.466 38.3925 190.952 37.7416C191.161 37.4635 191.052 37.3915 190.854 37.1102C189.621 35.3864 190.253 36.1682 189.028 34.4346C188.948 34.3201 188.867 34.2023 188.752 34.029C192.869 34.029 196.934 34.029 201.065 34.029C200.953 34.1925 200.858 34.3364 200.76 34.4738C196.215 40.885 191.938 46.9232 186.133 55.1105C185.507 55.997 184.877 56.8834 184.25 57.7699C183.828 58.3684 183.707 59.0194 184.041 59.7063C184.365 60.3768 184.912 60.6222 185.602 60.6222C191.777 60.6156 197.952 60.6156 204.127 60.6222C204.817 60.6222 205.363 60.3703 205.679 59.6965C206.001 59.0096 205.883 58.3619 205.458 57.76C203.354 54.7834 202.718 53.8316 200.611 50.8517C200.338 50.4657 200.16 50.505 199.884 50.8942C199.412 51.5582 198.952 52.2321 198.463 52.883C198.259 53.1545 198.279 53.354 198.469 53.6157C199.717 55.3624 199.539 55.0549 200.775 56.8082C200.847 56.9096 200.913 57.0175 201.013 57.1778L201.025 57.1811Z" fill="#4A5FD7"/>
<path d="M130.971 30.807H135.793V59.9582H150.238V61.9796H130.971V30.807Z" fill="#FF5972"/>
<path d="M165.765 30.1005L179.26 61.9764H174.35L169.98 51.5844H157.676L153.156 61.9764H150.736L164.555 30.1005H165.765ZM158.521 49.5662H169.094L163.882 37.2247L158.521 49.5662Z" fill="#FF5972"/>
<path d="M236.652 31.0098V32.9986H226.332V61.9796H221.545V32.9986H211.225V31.0098H236.655H236.652Z" fill="#FF5972"/>
<g opacity="0.2">
<path d="M275.244 71.3806C271.107 71.3806 267.045 71.3806 262.911 71.3806C263.121 71.6815 263.293 71.9334 263.472 72.182C268.865 79.787 274.258 87.3921 279.64 95.007C279.861 95.321 280.059 95.7201 280.111 96.1028C280.255 97.1462 279.522 97.9803 278.515 97.9869C277.159 97.9967 275.804 97.9869 274.448 97.9869C269.592 97.9869 264.734 97.9836 259.878 97.9901C259.191 97.9901 258.639 97.7481 258.317 97.0775C257.981 96.3775 258.11 95.7201 258.544 95.1084C260.651 92.1318 260.996 91.808 263.101 88.8314C263.362 88.465 263.48 88.465 263.748 88.8314C264.225 89.4921 264.685 90.1659 265.171 90.8169C265.38 91.0949 265.257 91.1538 265.056 91.4318C263.822 93.1556 264.469 92.3902 263.247 94.1206C263.167 94.235 263.086 94.3528 262.971 94.5262C267.088 94.5262 271.153 94.5262 275.284 94.5262C275.172 94.3626 275.077 94.2187 274.979 94.0813C270.434 87.6701 266.157 81.6319 260.352 73.4446C259.726 72.5581 259.096 71.6717 258.469 70.7853C258.047 70.1867 257.926 69.5357 258.26 68.8488C258.584 68.1783 259.131 67.933 259.821 67.933C265.996 67.9395 272.171 67.9395 278.346 67.933C279.036 67.933 279.582 68.1848 279.898 68.8587C280.22 69.5456 280.102 70.1932 279.677 70.7951C277.573 73.7717 276.883 74.6908 274.775 77.6674C274.502 78.0534 274.379 78.0501 274.103 77.6609C273.631 76.9969 273.171 76.3231 272.682 75.6721C272.478 75.4006 272.352 75.538 272.542 75.2731C273.789 73.5264 273.758 73.4969 274.997 71.7437C275.069 71.6423 275.135 71.5343 275.235 71.374L275.244 71.3806Z" fill="#4A5FD7"/>
</g>
<path d="M275.244 94.5461C271.107 94.5461 267.045 94.5461 262.911 94.5461C263.121 94.2452 263.293 93.9933 263.472 93.7447C268.865 86.1396 274.258 78.5346 279.64 70.9197C279.861 70.6057 280.059 70.2066 280.111 69.8239C280.255 68.7805 279.522 67.9464 278.515 67.9398C277.159 67.93 275.804 67.9398 274.448 67.9398C269.592 67.9398 264.734 67.9431 259.878 67.9365C259.191 67.9365 258.639 68.1786 258.317 68.8491C257.981 69.5491 258.11 70.2066 258.544 70.8183C260.651 73.7949 260.922 74.243 263.029 77.2196C263.29 77.586 263.48 77.4617 263.748 77.0921C264.225 76.4313 264.685 75.7575 265.171 75.1066C265.38 74.8285 265.271 74.7566 265.073 74.4753C263.84 72.7514 264.472 73.5332 263.247 71.7996C263.167 71.6851 263.086 71.5674 262.971 71.394C267.088 71.394 271.153 71.394 275.284 71.394C275.172 71.5575 275.077 71.7015 274.979 71.8388C270.434 78.25 266.157 84.2883 260.352 92.4756C259.726 93.362 259.096 94.2484 258.469 95.1349C258.047 95.7335 257.926 96.3844 258.26 97.0713C258.584 97.7419 259.131 97.9872 259.821 97.9872C265.996 97.9806 272.171 97.9806 278.346 97.9872C279.036 97.9872 279.582 97.7353 279.898 97.0615C280.22 96.3746 280.102 95.7269 279.677 95.1251C277.573 92.1485 276.937 91.1966 274.83 88.2167C274.557 87.8307 274.379 87.87 274.103 88.2592C273.631 88.9233 273.171 89.5971 272.682 90.248C272.478 90.5195 272.498 90.719 272.688 90.9807C273.936 92.7274 273.758 92.4199 274.994 94.1732C275.066 94.2746 275.132 94.3825 275.232 94.5428L275.244 94.5461Z" fill="#4A5FD7"/>
<path d="M135.419 68.5675L143.319 90.4243L150.261 70.6937L157.423 90.5127L165.142 68.5675H167.295L157.124 97.5584H155.807L149.264 79.6268L143 97.5584H141.485L130.971 68.5675H135.419Z" fill="#FF5972"/>
<path d="M183.589 97.9934C181.542 97.9934 179.631 97.5943 177.854 96.7995C176.08 96.0046 174.536 94.9154 173.225 93.535C171.915 92.1547 170.885 90.5421 170.135 88.7005C169.385 86.8589 169.008 84.8865 169.008 82.7931C169.008 81.4193 169.178 80.0978 169.517 78.8254C169.856 77.5529 170.339 76.3688 170.963 75.2698C171.587 74.1707 172.343 73.1698 173.228 72.267C174.114 71.3642 175.094 70.589 176.169 69.9479C177.247 69.3035 178.409 68.8063 179.659 68.453C180.91 68.0998 182.218 67.9231 183.589 67.9231C184.96 67.9231 186.268 68.0998 187.519 68.453C188.77 68.8063 189.937 69.3068 191.021 69.9479C192.104 70.5923 193.085 71.3642 193.961 72.267C194.838 73.1698 195.594 74.1707 196.227 75.2698C196.859 76.3688 197.345 77.5529 197.681 78.8254C198.021 80.0978 198.19 81.4193 198.19 82.7931C198.19 84.1669 198.021 85.5211 197.681 86.8164C197.342 88.1117 196.856 89.322 196.227 90.4472C195.594 91.5757 194.841 92.6028 193.961 93.5252C193.085 94.4509 192.104 95.2458 191.021 95.9098C189.937 96.5738 188.77 97.0873 187.519 97.4504C186.268 97.8102 184.958 97.9934 183.589 97.9934ZM183.589 96.5607C185.104 96.5607 186.444 96.2173 187.608 95.5303C188.772 94.8434 189.753 93.885 190.549 92.6584C191.348 91.4285 191.949 89.9762 192.354 88.3015C192.76 86.6234 192.964 84.7884 192.964 82.7931C192.964 80.7978 192.76 78.9987 192.354 77.3501C191.949 75.7016 191.348 74.282 190.549 73.088C189.75 71.8941 188.77 70.9717 187.608 70.311C186.444 69.6535 185.104 69.3231 183.589 69.3231C182.074 69.3231 180.694 69.6535 179.53 70.311C178.366 70.9684 177.388 71.8941 176.598 73.088C175.807 74.282 175.212 75.7016 174.812 77.3501C174.413 78.9987 174.214 80.8109 174.214 82.7931C174.214 84.7753 174.413 86.6234 174.812 88.3015C175.212 89.9795 175.807 91.4318 176.598 92.6584C177.388 93.8883 178.366 94.8434 179.53 95.5303C180.694 96.2173 182.045 96.5607 183.589 96.5607Z" fill="#FF5972"/>
<path d="M204.173 68.5675H213.349C214.93 68.5675 216.322 68.7507 217.518 69.1203C218.714 69.49 219.711 70.0068 220.51 70.6708C221.31 71.3348 221.91 72.1264 222.316 73.0455C222.721 73.9647 222.925 74.9656 222.925 76.0483C222.925 76.9446 222.77 77.7819 222.457 78.5637C222.143 79.3455 221.706 80.0488 221.14 80.6768C220.574 81.3048 219.892 81.8478 219.096 82.3025C218.3 82.7571 217.42 83.1169 216.463 83.3754L226.096 97.3163H220.93L211.736 83.8071H208.626V97.3163H204.179V68.5643L204.173 68.5675ZM208.62 82.3581H211.193C212.191 82.3581 213.111 82.2141 213.956 81.923C214.801 81.6352 215.531 81.2263 216.149 80.6964C216.767 80.1698 217.25 79.5287 217.595 78.7763C217.94 78.024 218.113 77.1801 218.113 76.238C218.113 75.3712 217.975 74.5764 217.705 73.8535C217.431 73.1306 217.046 72.5124 216.549 71.9988C216.052 71.4853 215.459 71.0862 214.775 70.7951C214.091 70.5072 213.344 70.36 212.53 70.36H208.62V82.3515V82.3581Z" fill="#FF5972"/>
<path d="M229.704 68.5675H238.521C241.235 68.5675 243.566 68.8423 245.521 69.3918C247.476 69.9414 249.103 70.8245 250.408 72.0381C251.898 73.425 253.019 75.0147 253.769 76.8072C254.519 78.5997 254.896 80.559 254.896 82.6819C254.896 84.8048 254.56 86.6071 253.89 88.3833C253.217 90.1627 252.234 91.7131 250.937 93.0346C249.641 94.3561 248.04 95.4028 246.131 96.1682C244.222 96.9336 242.037 97.3163 239.579 97.3163H229.707V68.5643L229.704 68.5675ZM234.151 95.2163H238.878C240.367 95.2163 241.77 94.9481 243.086 94.415C244.403 93.8818 245.55 93.0837 246.527 92.0304C247.505 90.9739 248.275 89.6786 248.842 88.1379C249.405 86.5973 249.69 84.8179 249.69 82.7931C249.69 81.0137 249.422 79.3847 248.891 77.903C248.359 76.4212 247.614 75.1455 246.657 74.0759C245.699 73.0063 244.558 72.1754 243.236 71.5834C241.913 70.9913 240.467 70.6937 238.898 70.6937H234.151V95.2196V95.2163Z" fill="#FF5972"/>
<path d="M131.066 107.538L131.851 107.623C131.983 109.062 132.107 112.026 132.228 116.517C132.803 116.477 133.536 116.461 134.421 116.461C135.307 116.461 136.017 116.448 136.552 116.418C136.603 116.579 136.641 116.804 136.661 117.096C136.681 117.387 136.707 117.603 136.733 117.746C135.603 117.671 134.16 117.635 132.409 117.635H130.971C131.015 116.242 131.038 114.381 131.043 112.045C131.049 109.713 131.055 108.212 131.063 107.541L131.066 107.538Z" fill="#6B6B6B"/>
<path d="M142.482 116.291L142.612 116.912C142.232 117.063 141.669 117.23 140.921 117.413C140.174 117.596 139.619 117.688 139.257 117.688C138.894 117.688 138.561 117.554 138.285 117.285C138.009 117.017 137.802 116.674 137.664 116.255C137.526 115.836 137.425 115.421 137.359 115.012C137.296 114.603 137.262 114.201 137.262 113.805C137.262 111.453 138.236 110.276 140.188 110.276C140.654 110.276 141.065 110.439 141.419 110.763C141.772 111.087 141.95 111.509 141.95 112.026C141.95 112.307 141.879 112.559 141.738 112.775C141.594 112.99 141.421 113.164 141.22 113.291C141.019 113.419 140.757 113.533 140.444 113.638C140.128 113.743 139.852 113.818 139.61 113.864C139.369 113.91 139.078 113.962 138.742 114.021C138.406 114.076 138.173 114.119 138.044 114.148C138.052 114.42 138.067 114.662 138.09 114.868C138.11 115.074 138.153 115.3 138.219 115.539C138.282 115.777 138.368 115.977 138.478 116.131C138.587 116.284 138.734 116.415 138.923 116.52C139.113 116.625 139.337 116.674 139.596 116.674C139.906 116.674 140.286 116.644 140.734 116.582C141.183 116.52 141.582 116.458 141.933 116.392C142.284 116.327 142.465 116.294 142.482 116.294V116.291ZM138.095 113.272C139.268 112.905 140.231 112.519 140.982 112.114C140.921 111.803 140.838 111.577 140.734 111.437C140.631 111.296 140.476 111.224 140.269 111.224C139.743 111.224 139.265 111.42 138.84 111.816C138.412 112.212 138.164 112.696 138.095 113.272Z" fill="#6B6B6B"/>
<path d="M143.595 111.561L143.336 110.841C143.56 110.596 143.845 110.403 144.19 110.256C144.535 110.109 144.877 110.037 145.213 110.037C146.671 110.037 147.401 111.411 147.401 114.158C147.401 114.534 147.381 115.09 147.344 115.823C147.306 116.556 147.286 117.109 147.286 117.475C147.217 117.766 147.082 117.913 146.884 117.913C146.728 117.913 146.585 117.828 146.455 117.658C146.326 117.488 146.26 117.302 146.26 117.092C146.26 117.027 146.265 116.981 146.274 116.952C145.739 117.518 145.17 117.799 144.566 117.799C144.109 117.799 143.71 117.619 143.368 117.256C143.026 116.893 142.856 116.454 142.856 115.934C142.856 115.058 143.169 114.269 143.793 113.563C144.42 112.856 145.127 112.503 145.923 112.503C145.958 112.503 145.992 112.503 146.027 112.51C146.061 112.513 146.102 112.523 146.15 112.529C146.196 112.539 146.234 112.542 146.26 112.542C146.191 111.45 145.788 110.904 145.055 110.904C144.624 110.904 144.135 111.119 143.592 111.554L143.595 111.561ZM146.3 115.98C146.317 115.323 146.326 114.822 146.326 114.485C146.326 114.204 146.317 113.808 146.3 113.301H146.196C145.584 113.311 145.026 113.56 144.52 114.05C144.015 114.541 143.764 115.133 143.764 115.83C143.764 116.131 143.848 116.369 144.017 116.549C144.187 116.729 144.391 116.818 144.633 116.818C145.012 116.818 145.57 116.539 146.303 115.983L146.3 115.98Z" fill="#6B6B6B"/>
<path d="M151.955 110.403L152.834 110.531C152.671 111.273 152.412 112.405 152.058 113.926C151.705 115.447 151.429 116.68 151.23 117.632C150.894 117.697 150.601 117.73 150.351 117.73C150.144 117.73 149.948 117.711 149.767 117.675C149.638 117.184 149.434 116.412 149.152 115.352C148.87 114.292 148.634 113.373 148.439 112.591C148.246 111.81 148.071 111.064 147.916 110.348L148.769 110.419L150.451 116.291C150.589 115.84 150.733 115.333 150.888 114.767C151.043 114.201 151.167 113.72 151.259 113.321C151.354 112.922 151.478 112.398 151.63 111.754C151.785 111.11 151.892 110.662 151.952 110.406L151.955 110.403Z" fill="#6B6B6B"/>
<path d="M153.821 107.878C154.053 107.878 154.249 107.989 154.404 108.208C154.559 108.431 154.637 108.683 154.637 108.964C154.637 109.17 154.591 109.337 154.502 109.464C154.413 109.592 154.289 109.654 154.134 109.654C153.892 109.654 153.703 109.546 153.565 109.33C153.427 109.114 153.358 108.859 153.358 108.568C153.358 108.362 153.398 108.195 153.481 108.068C153.565 107.94 153.677 107.878 153.823 107.878H153.821ZM153.639 110.403L154.234 110.544C154.303 111.316 154.364 112.526 154.416 114.178C154.467 115.83 154.502 116.854 154.519 117.249C154.441 117.54 154.289 117.688 154.065 117.688C153.91 117.688 153.76 117.619 153.619 117.485C153.476 117.347 153.389 117.181 153.355 116.984C153.372 116.598 153.407 115.594 153.458 113.972C153.51 112.349 153.57 111.162 153.639 110.406V110.403Z" fill="#6B6B6B"/>
<path d="M156.577 111.999L156.629 117.603C156.5 117.678 156.345 117.717 156.163 117.717C156.025 117.717 155.87 117.694 155.698 117.645C155.724 117.053 155.741 115.885 155.75 114.145C155.758 112.405 155.793 111.116 155.853 110.279L156.437 110.419L156.477 111.211C156.934 110.684 157.46 110.419 158.055 110.419C158.357 110.419 158.598 110.442 158.78 110.491C158.961 110.54 159.136 110.655 159.303 110.838C159.472 111.021 159.599 111.263 159.685 111.564C159.771 111.865 159.849 112.297 159.918 112.856C159.987 113.416 160.036 114.07 160.067 114.819C160.099 115.568 160.116 116.51 160.125 117.648C160.073 117.668 159.973 117.678 159.826 117.678C159.516 117.678 159.274 117.635 159.102 117.55C159.067 117.4 159.05 117.148 159.05 116.801C159.05 116.621 159.056 116.284 159.07 115.79C159.084 115.296 159.09 114.911 159.09 114.636C159.09 114.184 159.076 113.789 159.044 113.448C159.012 113.108 158.958 112.775 158.877 112.444C158.794 112.114 158.67 111.859 158.501 111.679C158.331 111.499 158.124 111.411 157.874 111.411C157.589 111.411 157.368 111.433 157.207 111.483C157.046 111.528 156.934 111.587 156.871 111.653C156.805 111.718 156.71 111.836 156.58 112.006L156.577 111.999Z" fill="#6B6B6B"/>
<path d="M165.119 110.377L165.702 110.236C165.702 110.518 165.705 110.74 165.714 110.9C165.765 112.961 165.791 114.302 165.791 114.924C165.791 115.139 165.797 115.48 165.806 115.941C165.814 116.402 165.817 116.749 165.817 116.984C165.817 117.501 165.803 117.949 165.771 118.325C165.74 118.702 165.673 119.094 165.57 119.503C165.466 119.912 165.326 120.246 165.15 120.504C164.972 120.762 164.722 120.978 164.4 121.145C164.078 121.315 163.696 121.4 163.256 121.4C162.876 121.4 162.206 121.338 161.249 121.217C161.24 121.112 161.226 121.001 161.203 120.877C161.18 120.756 161.171 120.661 161.171 120.596C161.171 120.455 161.183 120.34 161.212 120.255C161.281 120.265 161.551 120.301 162.02 120.367C162.491 120.432 162.836 120.465 163.06 120.465C163.655 120.465 164.112 120.268 164.431 119.873C164.751 119.477 164.914 118.738 164.923 117.658C164.5 117.92 164.055 118.054 163.589 118.054C163.201 118.054 162.859 117.966 162.566 117.792C162.273 117.619 162.04 117.396 161.867 117.128C161.695 116.86 161.554 116.536 161.447 116.154C161.338 115.771 161.266 115.404 161.226 115.045C161.186 114.688 161.169 114.305 161.169 113.9C161.169 112.883 161.373 112.032 161.784 111.345C162.195 110.658 162.816 110.315 163.655 110.315C164.147 110.315 164.63 110.478 165.104 110.809C165.113 110.714 165.116 110.57 165.116 110.37L165.119 110.377ZM164.963 116.294L165.001 111.747C164.949 111.577 164.788 111.447 164.515 111.345C164.242 111.247 163.943 111.198 163.615 111.198C163.149 111.198 162.787 111.43 162.528 111.895C162.27 112.359 162.14 112.925 162.14 113.592C162.14 113.939 162.158 114.279 162.192 114.613C162.227 114.947 162.296 115.313 162.399 115.712C162.502 116.111 162.672 116.432 162.905 116.677C163.138 116.922 163.428 117.043 163.773 117.043C164.032 117.043 164.27 116.975 164.486 116.84C164.702 116.703 164.863 116.523 164.966 116.297L164.963 116.294Z" fill="#6B6B6B"/>
<path d="M171.046 111.561L170.788 110.841C171.012 110.596 171.296 110.403 171.641 110.256C171.986 110.109 172.329 110.037 172.665 110.037C174.122 110.037 174.853 111.411 174.853 114.158C174.853 114.534 174.833 115.09 174.795 115.823C174.758 116.556 174.738 117.109 174.738 117.475C174.669 117.766 174.534 117.913 174.335 117.913C174.18 117.913 174.036 117.828 173.907 117.658C173.777 117.488 173.711 117.302 173.711 117.092C173.711 117.027 173.717 116.981 173.726 116.952C173.191 117.518 172.622 117.799 172.018 117.799C171.561 117.799 171.161 117.619 170.819 117.256C170.477 116.893 170.308 116.454 170.308 115.934C170.308 115.058 170.621 114.269 171.245 113.563C171.871 112.856 172.579 112.503 173.375 112.503C173.409 112.503 173.444 112.503 173.478 112.51C173.513 112.513 173.553 112.523 173.602 112.529C173.648 112.539 173.685 112.542 173.711 112.542C173.642 111.45 173.24 110.904 172.507 110.904C172.076 110.904 171.587 111.119 171.044 111.554L171.046 111.561ZM173.752 115.98C173.769 115.323 173.777 114.822 173.777 114.485C173.777 114.204 173.769 113.808 173.752 113.301H173.648C173.036 113.311 172.478 113.56 171.972 114.05C171.466 114.541 171.216 115.133 171.216 115.83C171.216 116.131 171.299 116.369 171.469 116.549C171.639 116.729 171.843 116.818 172.084 116.818C172.464 116.818 173.021 116.539 173.754 115.983L173.752 115.98Z" fill="#6B6B6B"/>
<path d="M179.694 107.538L180.479 107.623C180.611 109.062 180.734 112.026 180.855 116.517C181.43 116.477 182.163 116.461 183.049 116.461C183.934 116.461 184.644 116.448 185.179 116.418C185.231 116.579 185.268 116.804 185.288 117.096C185.308 117.387 185.334 117.603 185.36 117.746C184.23 117.671 182.787 117.635 181.036 117.635H179.599C179.642 116.242 179.668 114.381 179.671 112.045C179.677 109.713 179.682 108.212 179.691 107.541L179.694 107.538Z" fill="#6B6B6B"/>
<path d="M186.358 111.561L186.099 110.841C186.323 110.596 186.608 110.403 186.953 110.256C187.298 110.109 187.64 110.037 187.976 110.037C189.434 110.037 190.164 111.411 190.164 114.158C190.164 114.534 190.144 115.09 190.106 115.823C190.069 116.556 190.049 117.109 190.049 117.475C189.98 117.766 189.845 117.913 189.646 117.913C189.491 117.913 189.347 117.828 189.218 117.658C189.089 117.488 189.023 117.302 189.023 117.092C189.023 117.027 189.028 116.981 189.037 116.952C188.502 117.518 187.933 117.799 187.329 117.799C186.872 117.799 186.473 117.619 186.131 117.256C185.788 116.893 185.619 116.454 185.619 115.934C185.619 115.058 185.932 114.269 186.556 113.563C187.183 112.856 187.89 112.503 188.686 112.503C188.721 112.503 188.755 112.503 188.79 112.51C188.824 112.513 188.865 112.523 188.913 112.529C188.959 112.539 188.997 112.542 189.023 112.542C188.954 111.45 188.551 110.904 187.818 110.904C187.387 110.904 186.898 111.119 186.355 111.554L186.358 111.561ZM189.063 115.98C189.08 115.323 189.089 114.822 189.089 114.485C189.089 114.204 189.08 113.808 189.063 113.301H188.959C188.347 113.311 187.789 113.56 187.283 114.05C186.777 114.541 186.527 115.133 186.527 115.83C186.527 116.131 186.611 116.369 186.78 116.549C186.95 116.729 187.154 116.818 187.395 116.818C187.775 116.818 188.333 116.539 189.066 115.983L189.063 115.98Z" fill="#6B6B6B"/>
<path d="M195.201 110.854L195.071 111.42C194.235 111.044 193.582 110.854 193.116 110.854C192.702 110.854 192.412 110.923 192.242 111.061C192.073 111.198 191.989 111.486 191.989 111.927C191.989 112.284 192.107 112.582 192.346 112.817C192.584 113.053 192.869 113.239 193.205 113.373C193.542 113.511 193.881 113.654 194.22 113.811C194.559 113.968 194.85 114.194 195.088 114.495C195.327 114.796 195.445 115.169 195.445 115.611C195.445 116.212 195.241 116.739 194.835 117.19C194.43 117.642 193.904 117.871 193.257 117.881C192.783 117.881 192.337 117.773 191.923 117.554C191.509 117.334 191.182 117.06 190.94 116.726L191.317 116.297C191.42 116.343 191.573 116.418 191.777 116.523C191.981 116.628 192.124 116.696 192.211 116.729C192.297 116.762 192.423 116.798 192.593 116.834C192.763 116.873 192.941 116.889 193.131 116.889C193.536 116.889 193.869 116.791 194.128 116.595C194.387 116.399 194.516 116.124 194.516 115.768C194.516 115.535 194.456 115.336 194.335 115.172C194.214 115.009 194.053 114.875 193.855 114.773C193.657 114.672 193.438 114.57 193.203 114.479C192.964 114.384 192.728 114.279 192.49 114.161C192.251 114.044 192.035 113.903 191.837 113.74C191.639 113.576 191.478 113.35 191.357 113.069C191.236 112.788 191.176 112.454 191.176 112.068C191.176 111.502 191.317 111.031 191.596 110.648C191.874 110.266 192.271 110.076 192.78 110.076C192.978 110.076 193.203 110.109 193.453 110.174C193.703 110.24 193.901 110.302 194.048 110.357C194.194 110.413 194.413 110.504 194.7 110.632C194.991 110.76 195.155 110.832 195.198 110.851L195.201 110.854Z" fill="#6B6B6B"/>
<path d="M199.769 110.828L199.912 111.463C199.679 111.483 199.32 111.532 198.837 111.61C198.354 111.689 197.992 111.741 197.75 111.757C197.794 112.088 197.819 112.519 197.828 113.056C197.837 113.592 197.848 114.057 197.86 114.446C197.871 114.835 197.911 115.228 197.978 115.617C198.044 116.006 198.176 116.307 198.38 116.513C198.584 116.719 198.857 116.824 199.202 116.824C199.461 116.824 199.786 116.759 200.174 116.628C200.338 116.975 200.459 117.23 200.536 117.39C199.855 117.655 199.165 117.786 198.466 117.786C198.208 117.786 197.983 117.701 197.794 117.531C197.604 117.361 197.457 117.148 197.354 116.896C197.25 116.641 197.167 116.32 197.101 115.928C197.038 115.539 196.994 115.169 196.977 114.819C196.96 114.472 196.951 114.07 196.951 113.618C196.951 113.373 196.951 113.036 196.957 112.601C196.96 112.169 196.963 111.872 196.963 111.711C196.877 111.721 196.672 111.728 196.353 111.731C196.034 111.734 195.847 111.738 195.796 111.738C195.735 111.106 195.704 110.783 195.704 110.763C195.764 110.783 195.862 110.792 196.003 110.792C196.08 110.792 196.207 110.786 196.379 110.769C196.552 110.756 196.681 110.75 196.767 110.75C196.802 110.75 196.848 110.75 196.902 110.756C196.957 110.76 196.994 110.763 197.012 110.763C197.046 109.729 197.084 108.885 197.127 108.238L197.71 108.391C197.719 108.617 197.725 108.859 197.73 109.118C197.733 109.376 197.739 109.664 197.742 109.978C197.748 110.292 197.748 110.534 197.748 110.704C197.972 110.724 198.308 110.743 198.757 110.76C199.205 110.779 199.541 110.799 199.766 110.815L199.769 110.828Z" fill="#6B6B6B"/>
<path d="M201.516 107.878C201.749 107.878 201.945 107.989 202.1 108.208C202.255 108.431 202.333 108.683 202.333 108.964C202.333 109.17 202.287 109.337 202.198 109.464C202.109 109.592 201.985 109.654 201.83 109.654C201.588 109.654 201.399 109.546 201.261 109.33C201.123 109.114 201.054 108.859 201.054 108.568C201.054 108.362 201.094 108.195 201.177 108.068C201.261 107.94 201.373 107.878 201.519 107.878H201.516ZM201.335 110.403L201.93 110.544C201.999 111.316 202.06 112.526 202.112 114.178C202.163 115.83 202.198 116.854 202.215 117.249C202.137 117.54 201.985 117.688 201.761 117.688C201.606 117.688 201.456 117.619 201.315 117.485C201.172 117.347 201.085 117.181 201.051 116.984C201.068 116.598 201.103 115.594 201.154 113.972C201.206 112.349 201.266 111.162 201.335 110.406V110.403Z" fill="#6B6B6B"/>
<path d="M204.273 111.999L204.325 117.603C204.196 117.678 204.041 117.717 203.86 117.717C203.722 117.717 203.566 117.694 203.394 117.645C203.42 117.053 203.437 115.885 203.446 114.145C203.454 112.405 203.489 111.116 203.549 110.279L204.133 110.419L204.173 111.211C204.63 110.684 205.156 110.419 205.751 110.419C206.053 110.419 206.294 110.442 206.476 110.491C206.657 110.54 206.832 110.655 206.999 110.838C207.168 111.021 207.295 111.263 207.381 111.564C207.467 111.865 207.545 112.297 207.614 112.856C207.683 113.416 207.732 114.07 207.764 114.819C207.795 115.568 207.812 116.51 207.821 117.648C207.769 117.668 207.669 117.678 207.522 117.678C207.212 117.678 206.97 117.635 206.798 117.55C206.763 117.4 206.746 117.148 206.746 116.801C206.746 116.621 206.752 116.284 206.766 115.79C206.78 115.296 206.786 114.911 206.786 114.636C206.786 114.184 206.772 113.789 206.74 113.448C206.708 113.108 206.654 112.775 206.573 112.444C206.49 112.114 206.366 111.859 206.197 111.679C206.027 111.499 205.82 111.411 205.57 111.411C205.285 111.411 205.064 111.433 204.903 111.483C204.742 111.528 204.63 111.587 204.567 111.653C204.501 111.718 204.406 111.836 204.276 112.006L204.273 111.999Z" fill="#6B6B6B"/>
<path d="M212.814 110.377L213.398 110.236C213.398 110.518 213.401 110.74 213.41 110.9C213.461 112.961 213.487 114.302 213.487 114.924C213.487 115.139 213.493 115.48 213.502 115.941C213.51 116.402 213.513 116.749 213.513 116.984C213.513 117.501 213.499 117.949 213.467 118.325C213.435 118.702 213.369 119.094 213.266 119.503C213.162 119.912 213.021 120.246 212.846 120.504C212.668 120.762 212.418 120.978 212.096 121.145C211.774 121.315 211.391 121.4 210.952 121.4C210.572 121.4 209.902 121.338 208.945 121.217C208.936 121.112 208.922 121.001 208.899 120.877C208.876 120.756 208.867 120.661 208.867 120.596C208.867 120.455 208.879 120.34 208.908 120.255C208.977 120.265 209.247 120.301 209.715 120.367C210.187 120.432 210.532 120.465 210.756 120.465C211.351 120.465 211.808 120.268 212.127 119.873C212.447 119.477 212.61 118.738 212.619 117.658C212.196 117.92 211.751 118.054 211.285 118.054C210.897 118.054 210.555 117.966 210.262 117.792C209.968 117.619 209.736 117.396 209.563 117.128C209.391 116.86 209.25 116.536 209.143 116.154C209.034 115.771 208.962 115.404 208.922 115.045C208.882 114.688 208.865 114.305 208.865 113.9C208.865 112.883 209.069 112.032 209.48 111.345C209.891 110.658 210.512 110.315 211.351 110.315C211.843 110.315 212.326 110.478 212.8 110.809C212.809 110.714 212.812 110.57 212.812 110.37L212.814 110.377ZM212.659 116.294L212.697 111.747C212.645 111.577 212.484 111.447 212.211 111.345C211.938 111.247 211.639 111.198 211.311 111.198C210.845 111.198 210.483 111.43 210.224 111.895C209.966 112.359 209.836 112.925 209.836 113.592C209.836 113.939 209.853 114.279 209.888 114.613C209.922 114.947 209.991 115.313 210.095 115.712C210.198 116.111 210.368 116.432 210.601 116.677C210.834 116.922 211.124 117.043 211.469 117.043C211.728 117.043 211.966 116.975 212.182 116.84C212.398 116.703 212.559 116.523 212.662 116.297L212.659 116.294Z" fill="#6B6B6B"/>
<path d="M218.369 107.538L219.153 107.623C219.286 109.062 219.409 112.026 219.53 116.517C220.105 116.477 220.838 116.461 221.724 116.461C222.609 116.461 223.319 116.448 223.854 116.418C223.906 116.579 223.943 116.804 223.963 117.096C223.983 117.387 224.009 117.603 224.035 117.746C222.905 117.671 221.462 117.635 219.711 117.635H218.274C218.317 116.242 218.343 114.381 218.346 112.045C218.351 109.713 218.357 108.212 218.366 107.541L218.369 107.538Z" fill="#6B6B6B"/>
<path d="M229.785 116.291L229.914 116.912C229.534 117.063 228.971 117.23 228.223 117.413C227.476 117.596 226.921 117.688 226.559 117.688C226.197 117.688 225.863 117.554 225.587 117.285C225.311 117.017 225.104 116.674 224.966 116.255C224.828 115.836 224.728 115.421 224.662 115.012C224.598 114.603 224.564 114.201 224.564 113.805C224.564 111.453 225.538 110.276 227.49 110.276C227.956 110.276 228.367 110.439 228.721 110.763C229.074 111.087 229.253 111.509 229.253 112.026C229.253 112.307 229.181 112.559 229.04 112.775C228.896 112.99 228.724 113.164 228.522 113.291C228.321 113.419 228.06 113.533 227.746 113.638C227.43 113.743 227.154 113.818 226.913 113.864C226.671 113.91 226.381 113.962 226.044 114.021C225.708 114.076 225.475 114.119 225.346 114.148C225.354 114.42 225.369 114.662 225.392 114.868C225.412 115.074 225.455 115.3 225.521 115.539C225.584 115.777 225.671 115.977 225.78 116.131C225.889 116.284 226.036 116.415 226.225 116.52C226.415 116.625 226.639 116.674 226.898 116.674C227.209 116.674 227.588 116.644 228.037 116.582C228.485 116.52 228.885 116.458 229.235 116.392C229.586 116.327 229.767 116.294 229.785 116.294V116.291ZM225.398 113.272C226.57 112.905 227.534 112.519 228.284 112.114C228.223 111.803 228.14 111.577 228.037 111.437C227.933 111.296 227.778 111.224 227.571 111.224C227.045 111.224 226.568 111.42 226.142 111.816C225.714 112.212 225.467 112.696 225.398 113.272Z" fill="#6B6B6B"/>
<path d="M234.379 110.377L234.962 110.236C234.962 110.518 234.965 110.74 234.974 110.9C235.025 112.961 235.051 114.302 235.051 114.924C235.051 115.139 235.057 115.48 235.066 115.941C235.074 116.402 235.077 116.749 235.077 116.984C235.077 117.501 235.063 117.949 235.031 118.325C234.999 118.702 234.933 119.094 234.83 119.503C234.726 119.912 234.586 120.246 234.41 120.504C234.232 120.762 233.982 120.978 233.66 121.145C233.338 121.315 232.955 121.4 232.516 121.4C232.136 121.4 231.466 121.338 230.509 121.217C230.5 121.112 230.486 121.001 230.463 120.877C230.44 120.756 230.431 120.661 230.431 120.596C230.431 120.455 230.443 120.34 230.472 120.255C230.541 120.265 230.811 120.301 231.279 120.367C231.751 120.432 232.096 120.465 232.32 120.465C232.915 120.465 233.372 120.268 233.691 119.873C234.011 119.477 234.174 118.738 234.183 117.658C233.76 117.92 233.315 118.054 232.849 118.054C232.461 118.054 232.119 117.966 231.826 117.792C231.532 117.619 231.3 117.396 231.127 117.128C230.955 116.86 230.814 116.536 230.707 116.154C230.598 115.771 230.526 115.404 230.486 115.045C230.446 114.688 230.429 114.305 230.429 113.9C230.429 112.883 230.633 112.032 231.044 111.345C231.455 110.658 232.076 110.315 232.915 110.315C233.407 110.315 233.89 110.478 234.364 110.809C234.373 110.714 234.376 110.57 234.376 110.37L234.379 110.377ZM234.223 116.294L234.261 111.747C234.209 111.577 234.048 111.447 233.775 111.345C233.502 111.247 233.203 111.198 232.875 111.198C232.409 111.198 232.047 111.43 231.788 111.895C231.53 112.359 231.4 112.925 231.4 113.592C231.4 113.939 231.417 114.279 231.452 114.613C231.486 114.947 231.555 115.313 231.659 115.712C231.762 116.111 231.932 116.432 232.165 116.677C232.398 116.922 232.688 117.043 233.033 117.043C233.292 117.043 233.53 116.975 233.746 116.84C233.962 116.703 234.123 116.523 234.226 116.297L234.223 116.294Z" fill="#6B6B6B"/>
<path d="M236.606 111.561L236.348 110.841C236.572 110.596 236.857 110.403 237.202 110.256C237.547 110.109 237.889 110.037 238.225 110.037C239.682 110.037 240.413 111.411 240.413 114.158C240.413 114.534 240.393 115.09 240.355 115.823C240.318 116.556 240.298 117.109 240.298 117.475C240.229 117.766 240.094 117.913 239.895 117.913C239.74 117.913 239.596 117.828 239.467 117.658C239.338 117.488 239.271 117.302 239.271 117.092C239.271 117.027 239.277 116.981 239.286 116.952C238.751 117.518 238.182 117.799 237.578 117.799C237.121 117.799 236.721 117.619 236.379 117.256C236.037 116.893 235.868 116.454 235.868 115.934C235.868 115.058 236.181 114.269 236.805 113.563C237.432 112.856 238.139 112.503 238.935 112.503C238.97 112.503 239.004 112.503 239.039 112.51C239.073 112.513 239.113 112.523 239.162 112.529C239.208 112.539 239.246 112.542 239.271 112.542C239.202 111.45 238.8 110.904 238.067 110.904C237.636 110.904 237.147 111.119 236.604 111.554L236.606 111.561ZM239.312 115.98C239.329 115.323 239.338 114.822 239.338 114.485C239.338 114.204 239.329 113.808 239.312 113.301H239.208C238.596 113.311 238.038 113.56 237.532 114.05C237.026 114.541 236.776 115.133 236.776 115.83C236.776 116.131 236.859 116.369 237.029 116.549C237.199 116.729 237.403 116.818 237.644 116.818C238.024 116.818 238.581 116.539 239.315 115.983L239.312 115.98Z" fill="#6B6B6B"/>
<path d="M245.82 110.658L245.757 111.267C245.395 111.211 245.084 111.182 244.825 111.182C244.23 111.182 243.739 111.378 243.351 111.767C242.963 112.156 242.698 112.618 242.554 113.151C242.411 113.684 242.342 114.273 242.342 114.924C242.342 115.225 242.359 115.493 242.393 115.728C242.428 115.964 242.491 116.193 242.58 116.418C242.672 116.644 242.813 116.821 243.009 116.948C243.201 117.076 243.443 117.138 243.727 117.138C244.107 117.138 244.59 117.06 245.176 116.899C245.357 116.824 245.501 116.785 245.605 116.785C245.812 116.785 245.935 117.05 245.981 117.576C245.222 117.838 244.518 117.972 243.871 117.972C242.931 117.972 242.293 117.72 241.962 117.217C241.629 116.713 241.465 115.898 241.465 114.767C241.465 114.109 241.505 113.53 241.588 113.036C241.672 112.542 241.816 112.081 242.023 111.653C242.23 111.224 242.529 110.897 242.922 110.671C243.316 110.446 243.796 110.331 244.366 110.331C245.004 110.331 245.492 110.439 245.829 110.655L245.82 110.658Z" fill="#6B6B6B"/>
<path d="M247.568 121.839L246.766 121.345C247.12 120.677 247.746 119.405 248.643 117.534C247.945 116.857 247.41 115.83 247.039 114.456C246.668 113.082 246.444 111.708 246.366 110.334L247.117 110.377C247.16 110.603 247.252 111.119 247.396 111.924C247.539 112.729 247.651 113.324 247.738 113.71C247.824 114.096 247.976 114.577 248.198 115.156C248.419 115.735 248.669 116.222 248.954 116.618C250.153 114.106 250.753 112.045 250.753 110.436V110.282C251.202 110.357 251.538 110.446 251.762 110.55C251.624 111.538 251.409 112.546 251.116 113.573C250.822 114.6 250.454 115.63 250.015 116.67C249.575 117.711 249.184 118.584 248.845 119.287C248.502 119.994 248.08 120.844 247.571 121.842L247.568 121.839Z" fill="#6B6B6B"/>
<g opacity="0.2">
<path d="M201.025 34.0159C196.888 34.0159 192.826 34.0159 188.692 34.0159C188.902 34.3168 189.074 34.5687 189.253 34.8173C194.646 42.4224 200.039 50.0274 205.421 57.6423C205.642 57.9563 205.84 58.3554 205.892 58.7381C206.036 59.7815 205.303 60.6156 204.296 60.6222C202.94 60.632 201.586 60.6222 200.229 60.6222C195.373 60.6222 190.515 60.6189 185.659 60.6255C184.972 60.6255 184.42 60.3834 184.098 59.7128C183.762 59.0129 183.891 58.3554 184.325 57.7437C186.432 54.7671 186.777 54.4433 188.882 51.4667C189.143 51.1003 189.261 51.1003 189.529 51.4667C190.006 52.1274 190.466 52.8012 190.952 53.4522C191.161 53.7302 191.038 53.7891 190.837 54.0671C189.603 55.7909 190.25 55.0255 189.028 56.7559C188.948 56.8703 188.867 56.9881 188.752 57.1615C192.869 57.1615 196.934 57.1615 201.065 57.1615C200.953 56.9979 200.858 56.854 200.76 56.7166C196.215 50.3055 191.938 44.2672 186.133 36.0799C185.507 35.1935 184.877 34.307 184.25 33.4206C183.828 32.822 183.707 32.1711 184.041 31.4842C184.365 30.8136 184.912 30.5683 185.602 30.5683C191.777 30.5748 197.952 30.5748 204.127 30.5683C204.817 30.5683 205.363 30.8201 205.679 31.494C206.001 32.1809 205.883 32.8285 205.458 33.4304C203.354 36.407 202.664 37.3261 200.556 40.3028C200.283 40.6887 200.16 40.6855 199.884 40.2962C199.412 39.6322 198.952 38.9584 198.463 38.3074C198.259 38.036 198.133 38.1733 198.323 37.9084C199.57 36.1617 199.539 36.1322 200.778 34.379C200.85 34.2776 200.916 34.1696 201.016 34.0094L201.025 34.0159Z" fill="#4A5FD7"/>
</g>
<path d="M201.025 57.1811C196.888 57.1811 192.826 57.1811 188.692 57.1811C188.902 56.8801 189.074 56.6283 189.253 56.3797C194.646 48.7746 200.039 41.1695 205.421 33.5547C205.642 33.2407 205.84 32.8416 205.892 32.4589C206.036 31.4154 205.303 30.5813 204.296 30.5748C202.94 30.565 201.586 30.5748 200.229 30.5748C195.373 30.5748 190.515 30.5781 185.659 30.5715C184.972 30.5715 184.42 30.8136 184.098 31.4841C183.762 32.1841 183.891 32.8416 184.325 33.4533C186.432 36.4299 186.703 36.878 188.81 39.8546C189.071 40.221 189.261 40.0967 189.529 39.727C190.006 39.0663 190.466 38.3925 190.952 37.7416C191.161 37.4635 191.052 37.3915 190.854 37.1102C189.621 35.3864 190.253 36.1682 189.028 34.4346C188.948 34.3201 188.867 34.2023 188.752 34.029C192.869 34.029 196.934 34.029 201.065 34.029C200.953 34.1925 200.858 34.3364 200.76 34.4738C196.215 40.885 191.938 46.9232 186.133 55.1105C185.507 55.997 184.877 56.8834 184.25 57.7699C183.828 58.3684 183.707 59.0194 184.041 59.7063C184.365 60.3768 184.912 60.6222 185.602 60.6222C191.777 60.6156 197.952 60.6156 204.127 60.6222C204.817 60.6222 205.363 60.3703 205.679 59.6965C206.001 59.0096 205.883 58.3619 205.458 57.76C203.354 54.7834 202.718 53.8316 200.611 50.8517C200.338 50.4657 200.16 50.505 199.884 50.8942C199.412 51.5582 198.952 52.2321 198.463 52.883C198.259 53.1545 198.279 53.354 198.469 53.6157C199.717 55.3624 199.539 55.0549 200.775 56.8082C200.847 56.9096 200.913 57.0175 201.013 57.1778L201.025 57.1811Z" fill="#4A5FD7"/>
<path d="M130.971 30.807H135.793V59.9582H150.238V61.9796H130.971V30.807Z" fill="#FF5972"/>
<path d="M165.765 30.1005L179.26 61.9764H174.35L169.98 51.5844H157.676L153.156 61.9764H150.736L164.555 30.1005H165.765ZM158.521 49.5662H169.094L163.882 37.2247L158.521 49.5662Z" fill="#FF5972"/>
<path d="M236.652 31.0098V32.9986H226.332V61.9796H221.545V32.9986H211.225V31.0098H236.655H236.652Z" fill="#FF5972"/>
<g opacity="0.2">
<path d="M275.244 71.3806C271.107 71.3806 267.045 71.3806 262.911 71.3806C263.121 71.6815 263.293 71.9334 263.472 72.182C268.865 79.787 274.258 87.3921 279.64 95.007C279.861 95.321 280.059 95.7201 280.111 96.1028C280.255 97.1462 279.522 97.9803 278.515 97.9869C277.159 97.9967 275.804 97.9869 274.448 97.9869C269.592 97.9869 264.734 97.9836 259.878 97.9901C259.191 97.9901 258.639 97.7481 258.317 97.0775C257.981 96.3775 258.11 95.7201 258.544 95.1084C260.651 92.1318 260.996 91.808 263.101 88.8314C263.362 88.465 263.48 88.465 263.748 88.8314C264.225 89.4921 264.685 90.1659 265.171 90.8169C265.38 91.0949 265.257 91.1538 265.056 91.4318C263.822 93.1556 264.469 92.3902 263.247 94.1206C263.167 94.235 263.086 94.3528 262.971 94.5262C267.088 94.5262 271.153 94.5262 275.284 94.5262C275.172 94.3626 275.077 94.2187 274.979 94.0813C270.434 87.6701 266.157 81.6319 260.352 73.4446C259.726 72.5581 259.096 71.6717 258.469 70.7853C258.047 70.1867 257.926 69.5357 258.26 68.8488C258.584 68.1783 259.131 67.933 259.821 67.933C265.996 67.9395 272.171 67.9395 278.346 67.933C279.036 67.933 279.582 68.1848 279.898 68.8587C280.22 69.5456 280.102 70.1932 279.677 70.7951C277.573 73.7717 276.883 74.6908 274.775 77.6674C274.502 78.0534 274.379 78.0501 274.103 77.6609C273.631 76.9969 273.171 76.3231 272.682 75.6721C272.478 75.4006 272.352 75.538 272.542 75.2731C273.789 73.5264 273.758 73.4969 274.997 71.7437C275.069 71.6423 275.135 71.5343 275.235 71.374L275.244 71.3806Z" fill="#4A5FD7"/>
</g>
<path d="M275.244 94.5461C271.107 94.5461 267.045 94.5461 262.911 94.5461C263.121 94.2452 263.293 93.9933 263.472 93.7447C268.865 86.1396 274.258 78.5346 279.64 70.9197C279.861 70.6057 280.059 70.2066 280.111 69.8239C280.255 68.7805 279.522 67.9464 278.515 67.9398C277.159 67.93 275.804 67.9398 274.448 67.9398C269.592 67.9398 264.734 67.9431 259.878 67.9365C259.191 67.9365 258.639 68.1786 258.317 68.8491C257.981 69.5491 258.11 70.2066 258.544 70.8183C260.651 73.7949 260.922 74.243 263.029 77.2196C263.29 77.586 263.48 77.4617 263.748 77.0921C264.225 76.4313 264.685 75.7575 265.171 75.1066C265.38 74.8285 265.271 74.7566 265.073 74.4753C263.84 72.7514 264.472 73.5332 263.247 71.7996C263.167 71.6851 263.086 71.5674 262.971 71.394C267.088 71.394 271.153 71.394 275.284 71.394C275.172 71.5575 275.077 71.7015 274.979 71.8388C270.434 78.25 266.157 84.2883 260.352 92.4756C259.726 93.362 259.096 94.2484 258.469 95.1349C258.047 95.7335 257.926 96.3844 258.26 97.0713C258.584 97.7419 259.131 97.9872 259.821 97.9872C265.996 97.9806 272.171 97.9806 278.346 97.9872C279.036 97.9872 279.582 97.7353 279.898 97.0615C280.22 96.3746 280.102 95.7269 279.677 95.1251C277.573 92.1485 276.937 91.1966 274.83 88.2167C274.557 87.8307 274.379 87.87 274.103 88.2592C273.631 88.9233 273.171 89.5971 272.682 90.248C272.478 90.5195 272.498 90.719 272.688 90.9807C273.936 92.7274 273.758 92.4199 274.994 94.1732C275.066 94.2746 275.132 94.3825 275.232 94.5428L275.244 94.5461Z" fill="#4A5FD7"/>
<path d="M135.419 68.5675L143.319 90.4243L150.261 70.6937L157.423 90.5127L165.142 68.5675H167.295L157.124 97.5584H155.807L149.264 79.6268L143 97.5584H141.485L130.971 68.5675H135.419Z" fill="#FF5972"/>
<path d="M183.589 97.9934C181.542 97.9934 179.631 97.5943 177.854 96.7995C176.08 96.0046 174.536 94.9154 173.225 93.535C171.915 92.1547 170.885 90.5421 170.135 88.7005C169.385 86.8589 169.008 84.8865 169.008 82.7931C169.008 81.4193 169.178 80.0978 169.517 78.8254C169.856 77.5529 170.339 76.3688 170.963 75.2698C171.587 74.1707 172.343 73.1698 173.228 72.267C174.114 71.3642 175.094 70.589 176.169 69.9479C177.247 69.3035 178.409 68.8063 179.659 68.453C180.91 68.0998 182.218 67.9231 183.589 67.9231C184.96 67.9231 186.268 68.0998 187.519 68.453C188.77 68.8063 189.937 69.3068 191.021 69.9479C192.104 70.5923 193.085 71.3642 193.961 72.267C194.838 73.1698 195.594 74.1707 196.227 75.2698C196.859 76.3688 197.345 77.5529 197.681 78.8254C198.021 80.0978 198.19 81.4193 198.19 82.7931C198.19 84.1669 198.021 85.5211 197.681 86.8164C197.342 88.1117 196.856 89.322 196.227 90.4472C195.594 91.5757 194.841 92.6028 193.961 93.5252C193.085 94.4509 192.104 95.2458 191.021 95.9098C189.937 96.5738 188.77 97.0873 187.519 97.4504C186.268 97.8102 184.958 97.9934 183.589 97.9934ZM183.589 96.5607C185.104 96.5607 186.444 96.2173 187.608 95.5303C188.772 94.8434 189.753 93.885 190.549 92.6584C191.348 91.4285 191.949 89.9762 192.354 88.3015C192.76 86.6234 192.964 84.7884 192.964 82.7931C192.964 80.7978 192.76 78.9987 192.354 77.3501C191.949 75.7016 191.348 74.282 190.549 73.088C189.75 71.8941 188.77 70.9717 187.608 70.311C186.444 69.6535 185.104 69.3231 183.589 69.3231C182.074 69.3231 180.694 69.6535 179.53 70.311C178.366 70.9684 177.388 71.8941 176.598 73.088C175.807 74.282 175.212 75.7016 174.812 77.3501C174.413 78.9987 174.214 80.8109 174.214 82.7931C174.214 84.7753 174.413 86.6234 174.812 88.3015C175.212 89.9795 175.807 91.4318 176.598 92.6584C177.388 93.8883 178.366 94.8434 179.53 95.5303C180.694 96.2173 182.045 96.5607 183.589 96.5607Z" fill="#FF5972"/>
<path d="M204.173 68.5675H213.349C214.93 68.5675 216.322 68.7507 217.518 69.1203C218.714 69.49 219.711 70.0068 220.51 70.6708C221.31 71.3348 221.91 72.1264 222.316 73.0455C222.721 73.9647 222.925 74.9656 222.925 76.0483C222.925 76.9446 222.77 77.7819 222.457 78.5637C222.143 79.3455 221.706 80.0488 221.14 80.6768C220.574 81.3048 219.892 81.8478 219.096 82.3025C218.3 82.7571 217.42 83.1169 216.463 83.3754L226.096 97.3163H220.93L211.736 83.8071H208.626V97.3163H204.179V68.5643L204.173 68.5675ZM208.62 82.3581H211.193C212.191 82.3581 213.111 82.2141 213.956 81.923C214.801 81.6352 215.531 81.2263 216.149 80.6964C216.767 80.1698 217.25 79.5287 217.595 78.7763C217.94 78.024 218.113 77.1801 218.113 76.238C218.113 75.3712 217.975 74.5764 217.705 73.8535C217.431 73.1306 217.046 72.5124 216.549 71.9988C216.052 71.4853 215.459 71.0862 214.775 70.7951C214.091 70.5072 213.344 70.36 212.53 70.36H208.62V82.3515V82.3581Z" fill="#FF5972"/>
<path d="M229.704 68.5675H238.521C241.235 68.5675 243.566 68.8423 245.521 69.3918C247.476 69.9414 249.103 70.8245 250.408 72.0381C251.898 73.425 253.019 75.0147 253.769 76.8072C254.519 78.5997 254.896 80.559 254.896 82.6819C254.896 84.8048 254.56 86.6071 253.89 88.3833C253.217 90.1627 252.234 91.7131 250.937 93.0346C249.641 94.3561 248.04 95.4028 246.131 96.1682C244.222 96.9336 242.037 97.3163 239.579 97.3163H229.707V68.5643L229.704 68.5675ZM234.151 95.2163H238.878C240.367 95.2163 241.77 94.9481 243.086 94.415C244.403 93.8818 245.55 93.0837 246.527 92.0304C247.505 90.9739 248.275 89.6786 248.842 88.1379C249.405 86.5973 249.69 84.8179 249.69 82.7931C249.69 81.0137 249.422 79.3847 248.891 77.903C248.359 76.4212 247.614 75.1455 246.657 74.0759C245.699 73.0063 244.558 72.1754 243.236 71.5834C241.913 70.9913 240.467 70.6937 238.898 70.6937H234.151V95.2196V95.2163Z" fill="#FF5972"/>
<path d="M131.066 107.538L131.851 107.623C131.983 109.062 132.107 112.026 132.228 116.517C132.803 116.477 133.536 116.461 134.421 116.461C135.307 116.461 136.017 116.448 136.552 116.418C136.603 116.579 136.641 116.804 136.661 117.096C136.681 117.387 136.707 117.603 136.733 117.746C135.603 117.671 134.16 117.635 132.409 117.635H130.971C131.015 116.242 131.038 114.381 131.043 112.045C131.049 109.713 131.055 108.212 131.063 107.541L131.066 107.538Z" fill="#6B6B6B"/>
<path d="M142.482 116.291L142.612 116.912C142.232 117.063 141.669 117.23 140.921 117.413C140.174 117.596 139.619 117.688 139.257 117.688C138.894 117.688 138.561 117.554 138.285 117.285C138.009 117.017 137.802 116.674 137.664 116.255C137.526 115.836 137.425 115.421 137.359 115.012C137.296 114.603 137.262 114.201 137.262 113.805C137.262 111.453 138.236 110.276 140.188 110.276C140.654 110.276 141.065 110.439 141.419 110.763C141.772 111.087 141.95 111.509 141.95 112.026C141.95 112.307 141.879 112.559 141.738 112.775C141.594 112.99 141.421 113.164 141.22 113.291C141.019 113.419 140.757 113.533 140.444 113.638C140.128 113.743 139.852 113.818 139.61 113.864C139.369 113.91 139.078 113.962 138.742 114.021C138.406 114.076 138.173 114.119 138.044 114.148C138.052 114.42 138.067 114.662 138.09 114.868C138.11 115.074 138.153 115.3 138.219 115.539C138.282 115.777 138.368 115.977 138.478 116.131C138.587 116.284 138.734 116.415 138.923 116.52C139.113 116.625 139.337 116.674 139.596 116.674C139.906 116.674 140.286 116.644 140.734 116.582C141.183 116.52 141.582 116.458 141.933 116.392C142.284 116.327 142.465 116.294 142.482 116.294V116.291ZM138.095 113.272C139.268 112.905 140.231 112.519 140.982 112.114C140.921 111.803 140.838 111.577 140.734 111.437C140.631 111.296 140.476 111.224 140.269 111.224C139.743 111.224 139.265 111.42 138.84 111.816C138.412 112.212 138.164 112.696 138.095 113.272Z" fill="#6B6B6B"/>
<path d="M143.595 111.561L143.336 110.841C143.56 110.596 143.845 110.403 144.19 110.256C144.535 110.109 144.877 110.037 145.213 110.037C146.671 110.037 147.401 111.411 147.401 114.158C147.401 114.534 147.381 115.09 147.344 115.823C147.306 116.556 147.286 117.109 147.286 117.475C147.217 117.766 147.082 117.913 146.884 117.913C146.728 117.913 146.585 117.828 146.455 117.658C146.326 117.488 146.26 117.302 146.26 117.092C146.26 117.027 146.265 116.981 146.274 116.952C145.739 117.518 145.17 117.799 144.566 117.799C144.109 117.799 143.71 117.619 143.368 117.256C143.026 116.893 142.856 116.454 142.856 115.934C142.856 115.058 143.169 114.269 143.793 113.563C144.42 112.856 145.127 112.503 145.923 112.503C145.958 112.503 145.992 112.503 146.027 112.51C146.061 112.513 146.102 112.523 146.15 112.529C146.196 112.539 146.234 112.542 146.26 112.542C146.191 111.45 145.788 110.904 145.055 110.904C144.624 110.904 144.135 111.119 143.592 111.554L143.595 111.561ZM146.3 115.98C146.317 115.323 146.326 114.822 146.326 114.485C146.326 114.204 146.317 113.808 146.3 113.301H146.196C145.584 113.311 145.026 113.56 144.52 114.05C144.015 114.541 143.764 115.133 143.764 115.83C143.764 116.131 143.848 116.369 144.017 116.549C144.187 116.729 144.391 116.818 144.633 116.818C145.012 116.818 145.57 116.539 146.303 115.983L146.3 115.98Z" fill="#6B6B6B"/>
<path d="M151.955 110.403L152.834 110.531C152.671 111.273 152.412 112.405 152.058 113.926C151.705 115.447 151.429 116.68 151.23 117.632C150.894 117.697 150.601 117.73 150.351 117.73C150.144 117.73 149.948 117.711 149.767 117.675C149.638 117.184 149.434 116.412 149.152 115.352C148.87 114.292 148.634 113.373 148.439 112.591C148.246 111.81 148.071 111.064 147.916 110.348L148.769 110.419L150.451 116.291C150.589 115.84 150.733 115.333 150.888 114.767C151.043 114.201 151.167 113.72 151.259 113.321C151.354 112.922 151.478 112.398 151.63 111.754C151.785 111.11 151.892 110.662 151.952 110.406L151.955 110.403Z" fill="#6B6B6B"/>
<path d="M153.821 107.878C154.053 107.878 154.249 107.989 154.404 108.208C154.559 108.431 154.637 108.683 154.637 108.964C154.637 109.17 154.591 109.337 154.502 109.464C154.413 109.592 154.289 109.654 154.134 109.654C153.892 109.654 153.703 109.546 153.565 109.33C153.427 109.114 153.358 108.859 153.358 108.568C153.358 108.362 153.398 108.195 153.481 108.068C153.565 107.94 153.677 107.878 153.823 107.878H153.821ZM153.639 110.403L154.234 110.544C154.303 111.316 154.364 112.526 154.416 114.178C154.467 115.83 154.502 116.854 154.519 117.249C154.441 117.54 154.289 117.688 154.065 117.688C153.91 117.688 153.76 117.619 153.619 117.485C153.476 117.347 153.389 117.181 153.355 116.984C153.372 116.598 153.407 115.594 153.458 113.972C153.51 112.349 153.57 111.162 153.639 110.406V110.403Z" fill="#6B6B6B"/>
<path d="M156.577 111.999L156.629 117.603C156.5 117.678 156.345 117.717 156.163 117.717C156.025 117.717 155.87 117.694 155.698 117.645C155.724 117.053 155.741 115.885 155.75 114.145C155.758 112.405 155.793 111.116 155.853 110.279L156.437 110.419L156.477 111.211C156.934 110.684 157.46 110.419 158.055 110.419C158.357 110.419 158.598 110.442 158.78 110.491C158.961 110.54 159.136 110.655 159.303 110.838C159.472 111.021 159.599 111.263 159.685 111.564C159.771 111.865 159.849 112.297 159.918 112.856C159.987 113.416 160.036 114.07 160.067 114.819C160.099 115.568 160.116 116.51 160.125 117.648C160.073 117.668 159.973 117.678 159.826 117.678C159.516 117.678 159.274 117.635 159.102 117.55C159.067 117.4 159.05 117.148 159.05 116.801C159.05 116.621 159.056 116.284 159.07 115.79C159.084 115.296 159.09 114.911 159.09 114.636C159.09 114.184 159.076 113.789 159.044 113.448C159.012 113.108 158.958 112.775 158.877 112.444C158.794 112.114 158.67 111.859 158.501 111.679C158.331 111.499 158.124 111.411 157.874 111.411C157.589 111.411 157.368 111.433 157.207 111.483C157.046 111.528 156.934 111.587 156.871 111.653C156.805 111.718 156.71 111.836 156.58 112.006L156.577 111.999Z" fill="#6B6B6B"/>
<path d="M165.119 110.377L165.702 110.236C165.702 110.518 165.705 110.74 165.714 110.9C165.765 112.961 165.791 114.302 165.791 114.924C165.791 115.139 165.797 115.48 165.806 115.941C165.814 116.402 165.817 116.749 165.817 116.984C165.817 117.501 165.803 117.949 165.771 118.325C165.74 118.702 165.673 119.094 165.57 119.503C165.466 119.912 165.326 120.246 165.15 120.504C164.972 120.762 164.722 120.978 164.4 121.145C164.078 121.315 163.696 121.4 163.256 121.4C162.876 121.4 162.206 121.338 161.249 121.217C161.24 121.112 161.226 121.001 161.203 120.877C161.18 120.756 161.171 120.661 161.171 120.596C161.171 120.455 161.183 120.34 161.212 120.255C161.281 120.265 161.551 120.301 162.02 120.367C162.491 120.432 162.836 120.465 163.06 120.465C163.655 120.465 164.112 120.268 164.431 119.873C164.751 119.477 164.914 118.738 164.923 117.658C164.5 117.92 164.055 118.054 163.589 118.054C163.201 118.054 162.859 117.966 162.566 117.792C162.273 117.619 162.04 117.396 161.867 117.128C161.695 116.86 161.554 116.536 161.447 116.154C161.338 115.771 161.266 115.404 161.226 115.045C161.186 114.688 161.169 114.305 161.169 113.9C161.169 112.883 161.373 112.032 161.784 111.345C162.195 110.658 162.816 110.315 163.655 110.315C164.147 110.315 164.63 110.478 165.104 110.809C165.113 110.714 165.116 110.57 165.116 110.37L165.119 110.377ZM164.963 116.294L165.001 111.747C164.949 111.577 164.788 111.447 164.515 111.345C164.242 111.247 163.943 111.198 163.615 111.198C163.149 111.198 162.787 111.43 162.528 111.895C162.27 112.359 162.14 112.925 162.14 113.592C162.14 113.939 162.158 114.279 162.192 114.613C162.227 114.947 162.296 115.313 162.399 115.712C162.502 116.111 162.672 116.432 162.905 116.677C163.138 116.922 163.428 117.043 163.773 117.043C164.032 117.043 164.27 116.975 164.486 116.84C164.702 116.703 164.863 116.523 164.966 116.297L164.963 116.294Z" fill="#6B6B6B"/>
<path d="M171.046 111.561L170.788 110.841C171.012 110.596 171.296 110.403 171.641 110.256C171.986 110.109 172.329 110.037 172.665 110.037C174.122 110.037 174.853 111.411 174.853 114.158C174.853 114.534 174.833 115.09 174.795 115.823C174.758 116.556 174.738 117.109 174.738 117.475C174.669 117.766 174.534 117.913 174.335 117.913C174.18 117.913 174.036 117.828 173.907 117.658C173.777 117.488 173.711 117.302 173.711 117.092C173.711 117.027 173.717 116.981 173.726 116.952C173.191 117.518 172.622 117.799 172.018 117.799C171.561 117.799 171.161 117.619 170.819 117.256C170.477 116.893 170.308 116.454 170.308 115.934C170.308 115.058 170.621 114.269 171.245 113.563C171.871 112.856 172.579 112.503 173.375 112.503C173.409 112.503 173.444 112.503 173.478 112.51C173.513 112.513 173.553 112.523 173.602 112.529C173.648 112.539 173.685 112.542 173.711 112.542C173.642 111.45 173.24 110.904 172.507 110.904C172.076 110.904 171.587 111.119 171.044 111.554L171.046 111.561ZM173.752 115.98C173.769 115.323 173.777 114.822 173.777 114.485C173.777 114.204 173.769 113.808 173.752 113.301H173.648C173.036 113.311 172.478 113.56 171.972 114.05C171.466 114.541 171.216 115.133 171.216 115.83C171.216 116.131 171.299 116.369 171.469 116.549C171.639 116.729 171.843 116.818 172.084 116.818C172.464 116.818 173.021 116.539 173.754 115.983L173.752 115.98Z" fill="#6B6B6B"/>
<path d="M179.694 107.538L180.479 107.623C180.611 109.062 180.734 112.026 180.855 116.517C181.43 116.477 182.163 116.461 183.049 116.461C183.934 116.461 184.644 116.448 185.179 116.418C185.231 116.579 185.268 116.804 185.288 117.096C185.308 117.387 185.334 117.603 185.36 117.746C184.23 117.671 182.787 117.635 181.036 117.635H179.599C179.642 116.242 179.668 114.381 179.671 112.045C179.677 109.713 179.682 108.212 179.691 107.541L179.694 107.538Z" fill="#6B6B6B"/>
<path d="M186.358 111.561L186.099 110.841C186.323 110.596 186.608 110.403 186.953 110.256C187.298 110.109 187.64 110.037 187.976 110.037C189.434 110.037 190.164 111.411 190.164 114.158C190.164 114.534 190.144 115.09 190.106 115.823C190.069 116.556 190.049 117.109 190.049 117.475C189.98 117.766 189.845 117.913 189.646 117.913C189.491 117.913 189.347 117.828 189.218 117.658C189.089 117.488 189.023 117.302 189.023 117.092C189.023 117.027 189.028 116.981 189.037 116.952C188.502 117.518 187.933 117.799 187.329 117.799C186.872 117.799 186.473 117.619 186.131 117.256C185.788 116.893 185.619 116.454 185.619 115.934C185.619 115.058 185.932 114.269 186.556 113.563C187.183 112.856 187.89 112.503 188.686 112.503C188.721 112.503 188.755 112.503 188.79 112.51C188.824 112.513 188.865 112.523 188.913 112.529C188.959 112.539 188.997 112.542 189.023 112.542C188.954 111.45 188.551 110.904 187.818 110.904C187.387 110.904 186.898 111.119 186.355 111.554L186.358 111.561ZM189.063 115.98C189.08 115.323 189.089 114.822 189.089 114.485C189.089 114.204 189.08 113.808 189.063 113.301H188.959C188.347 113.311 187.789 113.56 187.283 114.05C186.777 114.541 186.527 115.133 186.527 115.83C186.527 116.131 186.611 116.369 186.78 116.549C186.95 116.729 187.154 116.818 187.395 116.818C187.775 116.818 188.333 116.539 189.066 115.983L189.063 115.98Z" fill="#6B6B6B"/>
<path d="M195.201 110.854L195.071 111.42C194.235 111.044 193.582 110.854 193.116 110.854C192.702 110.854 192.412 110.923 192.242 111.061C192.073 111.198 191.989 111.486 191.989 111.927C191.989 112.284 192.107 112.582 192.346 112.817C192.584 113.053 192.869 113.239 193.205 113.373C193.542 113.511 193.881 113.654 194.22 113.811C194.559 113.968 194.85 114.194 195.088 114.495C195.327 114.796 195.445 115.169 195.445 115.611C195.445 116.212 195.241 116.739 194.835 117.19C194.43 117.642 193.904 117.871 193.257 117.881C192.783 117.881 192.337 117.773 191.923 117.554C191.509 117.334 191.182 117.06 190.94 116.726L191.317 116.297C191.42 116.343 191.573 116.418 191.777 116.523C191.981 116.628 192.124 116.696 192.211 116.729C192.297 116.762 192.423 116.798 192.593 116.834C192.763 116.873 192.941 116.889 193.131 116.889C193.536 116.889 193.869 116.791 194.128 116.595C194.387 116.399 194.516 116.124 194.516 115.768C194.516 115.535 194.456 115.336 194.335 115.172C194.214 115.009 194.053 114.875 193.855 114.773C193.657 114.672 193.438 114.57 193.203 114.479C192.964 114.384 192.728 114.279 192.49 114.161C192.251 114.044 192.035 113.903 191.837 113.74C191.639 113.576 191.478 113.35 191.357 113.069C191.236 112.788 191.176 112.454 191.176 112.068C191.176 111.502 191.317 111.031 191.596 110.648C191.874 110.266 192.271 110.076 192.78 110.076C192.978 110.076 193.203 110.109 193.453 110.174C193.703 110.24 193.901 110.302 194.048 110.357C194.194 110.413 194.413 110.504 194.7 110.632C194.991 110.76 195.155 110.832 195.198 110.851L195.201 110.854Z" fill="#6B6B6B"/>
<path d="M199.769 110.828L199.912 111.463C199.679 111.483 199.32 111.532 198.837 111.61C198.354 111.689 197.992 111.741 197.75 111.757C197.794 112.088 197.819 112.519 197.828 113.056C197.837 113.592 197.848 114.057 197.86 114.446C197.871 114.835 197.911 115.228 197.978 115.617C198.044 116.006 198.176 116.307 198.38 116.513C198.584 116.719 198.857 116.824 199.202 116.824C199.461 116.824 199.786 116.759 200.174 116.628C200.338 116.975 200.459 117.23 200.536 117.39C199.855 117.655 199.165 117.786 198.466 117.786C198.208 117.786 197.983 117.701 197.794 117.531C197.604 117.361 197.457 117.148 197.354 116.896C197.25 116.641 197.167 116.32 197.101 115.928C197.038 115.539 196.994 115.169 196.977 114.819C196.96 114.472 196.951 114.07 196.951 113.618C196.951 113.373 196.951 113.036 196.957 112.601C196.96 112.169 196.963 111.872 196.963 111.711C196.877 111.721 196.672 111.728 196.353 111.731C196.034 111.734 195.847 111.738 195.796 111.738C195.735 111.106 195.704 110.783 195.704 110.763C195.764 110.783 195.862 110.792 196.003 110.792C196.08 110.792 196.207 110.786 196.379 110.769C196.552 110.756 196.681 110.75 196.767 110.75C196.802 110.75 196.848 110.75 196.902 110.756C196.957 110.76 196.994 110.763 197.012 110.763C197.046 109.729 197.084 108.885 197.127 108.238L197.71 108.391C197.719 108.617 197.725 108.859 197.73 109.118C197.733 109.376 197.739 109.664 197.742 109.978C197.748 110.292 197.748 110.534 197.748 110.704C197.972 110.724 198.308 110.743 198.757 110.76C199.205 110.779 199.541 110.799 199.766 110.815L199.769 110.828Z" fill="#6B6B6B"/>
<path d="M201.516 107.878C201.749 107.878 201.945 107.989 202.1 108.208C202.255 108.431 202.333 108.683 202.333 108.964C202.333 109.17 202.287 109.337 202.198 109.464C202.109 109.592 201.985 109.654 201.83 109.654C201.588 109.654 201.399 109.546 201.261 109.33C201.123 109.114 201.054 108.859 201.054 108.568C201.054 108.362 201.094 108.195 201.177 108.068C201.261 107.94 201.373 107.878 201.519 107.878H201.516ZM201.335 110.403L201.93 110.544C201.999 111.316 202.06 112.526 202.112 114.178C202.163 115.83 202.198 116.854 202.215 117.249C202.137 117.54 201.985 117.688 201.761 117.688C201.606 117.688 201.456 117.619 201.315 117.485C201.172 117.347 201.085 117.181 201.051 116.984C201.068 116.598 201.103 115.594 201.154 113.972C201.206 112.349 201.266 111.162 201.335 110.406V110.403Z" fill="#6B6B6B"/>
<path d="M204.273 111.999L204.325 117.603C204.196 117.678 204.041 117.717 203.86 117.717C203.722 117.717 203.566 117.694 203.394 117.645C203.42 117.053 203.437 115.885 203.446 114.145C203.454 112.405 203.489 111.116 203.549 110.279L204.133 110.419L204.173 111.211C204.63 110.684 205.156 110.419 205.751 110.419C206.053 110.419 206.294 110.442 206.476 110.491C206.657 110.54 206.832 110.655 206.999 110.838C207.168 111.021 207.295 111.263 207.381 111.564C207.467 111.865 207.545 112.297 207.614 112.856C207.683 113.416 207.732 114.07 207.764 114.819C207.795 115.568 207.812 116.51 207.821 117.648C207.769 117.668 207.669 117.678 207.522 117.678C207.212 117.678 206.97 117.635 206.798 117.55C206.763 117.4 206.746 117.148 206.746 116.801C206.746 116.621 206.752 116.284 206.766 115.79C206.78 115.296 206.786 114.911 206.786 114.636C206.786 114.184 206.772 113.789 206.74 113.448C206.708 113.108 206.654 112.775 206.573 112.444C206.49 112.114 206.366 111.859 206.197 111.679C206.027 111.499 205.82 111.411 205.57 111.411C205.285 111.411 205.064 111.433 204.903 111.483C204.742 111.528 204.63 111.587 204.567 111.653C204.501 111.718 204.406 111.836 204.276 112.006L204.273 111.999Z" fill="#6B6B6B"/>
<path d="M212.814 110.377L213.398 110.236C213.398 110.518 213.401 110.74 213.41 110.9C213.461 112.961 213.487 114.302 213.487 114.924C213.487 115.139 213.493 115.48 213.502 115.941C213.51 116.402 213.513 116.749 213.513 116.984C213.513 117.501 213.499 117.949 213.467 118.325C213.435 118.702 213.369 119.094 213.266 119.503C213.162 119.912 213.021 120.246 212.846 120.504C212.668 120.762 212.418 120.978 212.096 121.145C211.774 121.315 211.391 121.4 210.952 121.4C210.572 121.4 209.902 121.338 208.945 121.217C208.936 121.112 208.922 121.001 208.899 120.877C208.876 120.756 208.867 120.661 208.867 120.596C208.867 120.455 208.879 120.34 208.908 120.255C208.977 120.265 209.247 120.301 209.715 120.367C210.187 120.432 210.532 120.465 210.756 120.465C211.351 120.465 211.808 120.268 212.127 119.873C212.447 119.477 212.61 118.738 212.619 117.658C212.196 117.92 211.751 118.054 211.285 118.054C210.897 118.054 210.555 117.966 210.262 117.792C209.968 117.619 209.736 117.396 209.563 117.128C209.391 116.86 209.25 116.536 209.143 116.154C209.034 115.771 208.962 115.404 208.922 115.045C208.882 114.688 208.865 114.305 208.865 113.9C208.865 112.883 209.069 112.032 209.48 111.345C209.891 110.658 210.512 110.315 211.351 110.315C211.843 110.315 212.326 110.478 212.8 110.809C212.809 110.714 212.812 110.57 212.812 110.37L212.814 110.377ZM212.659 116.294L212.697 111.747C212.645 111.577 212.484 111.447 212.211 111.345C211.938 111.247 211.639 111.198 211.311 111.198C210.845 111.198 210.483 111.43 210.224 111.895C209.966 112.359 209.836 112.925 209.836 113.592C209.836 113.939 209.853 114.279 209.888 114.613C209.922 114.947 209.991 115.313 210.095 115.712C210.198 116.111 210.368 116.432 210.601 116.677C210.834 116.922 211.124 117.043 211.469 117.043C211.728 117.043 211.966 116.975 212.182 116.84C212.398 116.703 212.559 116.523 212.662 116.297L212.659 116.294Z" fill="#6B6B6B"/>
<path d="M218.369 107.538L219.153 107.623C219.286 109.062 219.409 112.026 219.53 116.517C220.105 116.477 220.838 116.461 221.724 116.461C222.609 116.461 223.319 116.448 223.854 116.418C223.906 116.579 223.943 116.804 223.963 117.096C223.983 117.387 224.009 117.603 224.035 117.746C222.905 117.671 221.462 117.635 219.711 117.635H218.274C218.317 116.242 218.343 114.381 218.346 112.045C218.351 109.713 218.357 108.212 218.366 107.541L218.369 107.538Z" fill="#6B6B6B"/>
<path d="M229.785 116.291L229.914 116.912C229.534 117.063 228.971 117.23 228.223 117.413C227.476 117.596 226.921 117.688 226.559 117.688C226.197 117.688 225.863 117.554 225.587 117.285C225.311 117.017 225.104 116.674 224.966 116.255C224.828 115.836 224.728 115.421 224.662 115.012C224.598 114.603 224.564 114.201 224.564 113.805C224.564 111.453 225.538 110.276 227.49 110.276C227.956 110.276 228.367 110.439 228.721 110.763C229.074 111.087 229.253 111.509 229.253 112.026C229.253 112.307 229.181 112.559 229.04 112.775C228.896 112.99 228.724 113.164 228.522 113.291C228.321 113.419 228.06 113.533 227.746 113.638C227.43 113.743 227.154 113.818 226.913 113.864C226.671 113.91 226.381 113.962 226.044 114.021C225.708 114.076 225.475 114.119 225.346 114.148C225.354 114.42 225.369 114.662 225.392 114.868C225.412 115.074 225.455 115.3 225.521 115.539C225.584 115.777 225.671 115.977 225.78 116.131C225.889 116.284 226.036 116.415 226.225 116.52C226.415 116.625 226.639 116.674 226.898 116.674C227.209 116.674 227.588 116.644 228.037 116.582C228.485 116.52 228.885 116.458 229.235 116.392C229.586 116.327 229.767 116.294 229.785 116.294V116.291ZM225.398 113.272C226.57 112.905 227.534 112.519 228.284 112.114C228.223 111.803 228.14 111.577 228.037 111.437C227.933 111.296 227.778 111.224 227.571 111.224C227.045 111.224 226.568 111.42 226.142 111.816C225.714 112.212 225.467 112.696 225.398 113.272Z" fill="#6B6B6B"/>
<path d="M234.379 110.377L234.962 110.236C234.962 110.518 234.965 110.74 234.974 110.9C235.025 112.961 235.051 114.302 235.051 114.924C235.051 115.139 235.057 115.48 235.066 115.941C235.074 116.402 235.077 116.749 235.077 116.984C235.077 117.501 235.063 117.949 235.031 118.325C234.999 118.702 234.933 119.094 234.83 119.503C234.726 119.912 234.586 120.246 234.41 120.504C234.232 120.762 233.982 120.978 233.66 121.145C233.338 121.315 232.955 121.4 232.516 121.4C232.136 121.4 231.466 121.338 230.509 121.217C230.5 121.112 230.486 121.001 230.463 120.877C230.44 120.756 230.431 120.661 230.431 120.596C230.431 120.455 230.443 120.34 230.472 120.255C230.541 120.265 230.811 120.301 231.279 120.367C231.751 120.432 232.096 120.465 232.32 120.465C232.915 120.465 233.372 120.268 233.691 119.873C234.011 119.477 234.174 118.738 234.183 117.658C233.76 117.92 233.315 118.054 232.849 118.054C232.461 118.054 232.119 117.966 231.826 117.792C231.532 117.619 231.3 117.396 231.127 117.128C230.955 116.86 230.814 116.536 230.707 116.154C230.598 115.771 230.526 115.404 230.486 115.045C230.446 114.688 230.429 114.305 230.429 113.9C230.429 112.883 230.633 112.032 231.044 111.345C231.455 110.658 232.076 110.315 232.915 110.315C233.407 110.315 233.89 110.478 234.364 110.809C234.373 110.714 234.376 110.57 234.376 110.37L234.379 110.377ZM234.223 116.294L234.261 111.747C234.209 111.577 234.048 111.447 233.775 111.345C233.502 111.247 233.203 111.198 232.875 111.198C232.409 111.198 232.047 111.43 231.788 111.895C231.53 112.359 231.4 112.925 231.4 113.592C231.4 113.939 231.417 114.279 231.452 114.613C231.486 114.947 231.555 115.313 231.659 115.712C231.762 116.111 231.932 116.432 232.165 116.677C232.398 116.922 232.688 117.043 233.033 117.043C233.292 117.043 233.53 116.975 233.746 116.84C233.962 116.703 234.123 116.523 234.226 116.297L234.223 116.294Z" fill="#6B6B6B"/>
<path d="M236.606 111.561L236.348 110.841C236.572 110.596 236.857 110.403 237.202 110.256C237.547 110.109 237.889 110.037 238.225 110.037C239.682 110.037 240.413 111.411 240.413 114.158C240.413 114.534 240.393 115.09 240.355 115.823C240.318 116.556 240.298 117.109 240.298 117.475C240.229 117.766 240.094 117.913 239.895 117.913C239.74 117.913 239.596 117.828 239.467 117.658C239.338 117.488 239.271 117.302 239.271 117.092C239.271 117.027 239.277 116.981 239.286 116.952C238.751 117.518 238.182 117.799 237.578 117.799C237.121 117.799 236.721 117.619 236.379 117.256C236.037 116.893 235.868 116.454 235.868 115.934C235.868 115.058 236.181 114.269 236.805 113.563C237.432 112.856 238.139 112.503 238.935 112.503C238.97 112.503 239.004 112.503 239.039 112.51C239.073 112.513 239.113 112.523 239.162 112.529C239.208 112.539 239.246 112.542 239.271 112.542C239.202 111.45 238.8 110.904 238.067 110.904C237.636 110.904 237.147 111.119 236.604 111.554L236.606 111.561ZM239.312 115.98C239.329 115.323 239.338 114.822 239.338 114.485C239.338 114.204 239.329 113.808 239.312 113.301H239.208C238.596 113.311 238.038 113.56 237.532 114.05C237.026 114.541 236.776 115.133 236.776 115.83C236.776 116.131 236.859 116.369 237.029 116.549C237.199 116.729 237.403 116.818 237.644 116.818C238.024 116.818 238.581 116.539 239.315 115.983L239.312 115.98Z" fill="#6B6B6B"/>
<path d="M245.82 110.658L245.757 111.267C245.395 111.211 245.084 111.182 244.825 111.182C244.23 111.182 243.739 111.378 243.351 111.767C242.963 112.156 242.698 112.618 242.554 113.151C242.411 113.684 242.342 114.273 242.342 114.924C242.342 115.225 242.359 115.493 242.393 115.728C242.428 115.964 242.491 116.193 242.58 116.418C242.672 116.644 242.813 116.821 243.009 116.948C243.201 117.076 243.443 117.138 243.727 117.138C244.107 117.138 244.59 117.06 245.176 116.899C245.357 116.824 245.501 116.785 245.605 116.785C245.812 116.785 245.935 117.05 245.981 117.576C245.222 117.838 244.518 117.972 243.871 117.972C242.931 117.972 242.293 117.72 241.962 117.217C241.629 116.713 241.465 115.898 241.465 114.767C241.465 114.109 241.505 113.53 241.588 113.036C241.672 112.542 241.816 112.081 242.023 111.653C242.23 111.224 242.529 110.897 242.922 110.671C243.316 110.446 243.796 110.331 244.366 110.331C245.004 110.331 245.492 110.439 245.829 110.655L245.82 110.658Z" fill="#6B6B6B"/>
<path d="M247.568 121.839L246.766 121.345C247.12 120.677 247.746 119.405 248.643 117.534C247.945 116.857 247.41 115.83 247.039 114.456C246.668 113.082 246.444 111.708 246.366 110.334L247.117 110.377C247.16 110.603 247.252 111.119 247.396 111.924C247.539 112.729 247.651 113.324 247.738 113.71C247.824 114.096 247.976 114.577 248.198 115.156C248.419 115.735 248.669 116.222 248.954 116.618C250.153 114.106 250.753 112.045 250.753 110.436V110.282C251.202 110.357 251.538 110.446 251.762 110.55C251.624 111.538 251.409 112.546 251.116 113.573C250.822 114.6 250.454 115.63 250.015 116.67C249.575 117.711 249.184 118.584 248.845 119.287C248.502 119.994 248.08 120.844 247.571 121.842L247.568 121.839Z" fill="#6B6B6B"/>
</svg>
