<svg width="659" height="582" viewBox="0 0 659 582" fill="none" xmlns="http://www.w3.org/2000/svg">
<g clip-path="url(#clip0_1_7)">
<path d="M391.032 128.733C392.566 128.45 395.443 128.682 395.368 131.629C395.296 134.578 390.465 136.087 387.331 136.235C385.722 133.807 383.958 129.501 385.891 127.169C386.943 125.899 389.361 125.613 391.032 128.733Z" fill="#F67E90"/>
<path d="M370.506 136.265C369.731 128.826 370.206 122.533 362.991 119.338C355.779 116.145 343.008 109.058 338.983 103.612C334.958 98.1655 333.715 104.99 340.345 113.435C335.787 109.737 334.086 114.487 343.107 121.806C337.431 119.042 336.382 121.848 344.388 128.343C339.661 126.366 337.239 129.101 346.937 134.517C342.188 133.322 345.898 137.307 352.388 139.632C358.878 141.957 363.05 143.399 363.348 146.264C364.979 144.252 368.504 138.73 370.502 136.267L370.506 136.265Z" fill="#F0AC4D"/>
<path d="M340.345 113.436C340.813 114.351 341.53 115.146 342.221 115.897C343.105 116.872 344.148 117.713 345.182 118.515C346.833 119.794 348.678 120.856 350.573 121.73C348.991 120.447 347.255 119.36 345.661 118.092C343.831 116.636 341.898 115.201 340.349 113.434L340.345 113.436Z" fill="#C48D3F"/>
<path d="M343.107 121.806C344.16 123.015 345.452 124.007 346.731 124.958C348.068 125.953 349.558 126.825 351.113 127.437C349.937 126.428 348.636 125.541 347.378 124.642C345.988 123.649 344.581 122.672 343.107 121.806Z" fill="#C48D3F"/>
<path d="M344.39 128.345C345.783 129.556 347.393 130.53 349.013 131.399C350.493 132.191 352.052 132.879 353.662 133.365C352.317 132.434 350.842 131.707 349.419 130.904C347.789 129.984 346.109 129.081 344.39 128.345Z" fill="#C48D3F"/>
<path d="M346.942 134.516C348.139 135.171 349.436 135.59 350.741 135.969C352.051 136.308 353.387 136.647 354.742 136.736C353.53 136.125 352.216 135.736 350.919 135.362C349.616 135.023 348.287 134.655 346.942 134.516Z" fill="#C48D3F"/>
<path d="M367.036 139.033C365.544 138.755 364.135 137.967 363.099 136.867C362.327 136.047 361.886 135.053 361.594 133.979C361.482 133.57 361.451 133.13 361.385 132.711C361.377 132.655 361.168 132.597 361.121 132.577C360.896 132.48 360.671 132.379 360.452 132.271C360.036 132.064 359.64 131.831 359.287 131.529C358.2 130.601 358.365 129.23 358.664 127.97C358.723 127.722 358.719 127.741 358.497 127.624C358.161 127.445 357.835 127.267 357.538 127.019C356.936 126.521 356.472 125.846 356.218 125.106C355.959 124.356 355.989 123.56 356.243 122.816C356.367 122.455 356.557 122.114 356.725 121.771C356.142 121.772 355.594 121.814 355.05 121.57C354.377 121.269 353.822 120.663 353.496 120.01C352.816 118.638 352.785 117.264 352.807 115.778C352.655 117.12 352.496 118.589 353.069 119.869C353.36 120.513 353.692 121.112 354.237 121.577C354.865 122.112 355.543 122.276 356.345 122.284C356.261 122.156 356.181 122.029 356.098 121.9C355.598 122.828 355.319 123.825 355.547 124.884C355.869 126.382 356.905 127.5 358.23 128.2C358.17 128.077 358.113 127.952 358.057 127.828C357.811 128.87 357.587 130.1 358.159 131.083C358.785 132.163 359.921 132.69 361.04 133.131C360.985 133.055 360.928 132.982 360.873 132.906C361.091 134.128 361.403 135.312 362.162 136.326C363.296 137.846 365.155 138.871 367.046 139.035C366.857 139 366.853 139.02 367.046 139.035L367.036 139.033Z" fill="#C48D3F"/>
<path d="M365.293 133.67C364.099 133.296 362.974 132.375 362.59 131.156C362.448 130.704 362.399 130.269 362.384 129.799C362.378 129.568 362.409 129.337 362.429 129.106C362.433 129.036 362.44 128.966 362.447 128.897C362.459 128.75 362.428 128.772 362.287 128.724C361.418 128.409 360.767 127.949 360.272 127.157C359.842 126.525 359.736 125.675 359.743 124.932C359.746 124.636 359.789 124.346 359.836 124.055C359.866 123.881 359.972 123.686 359.794 123.613C358.919 123.25 358.179 122.768 357.601 121.998C356.923 121.086 356.669 120.016 356.645 118.896C356.516 119.799 356.53 120.764 356.942 121.599C357.489 122.751 358.325 123.582 359.488 124.099C359.428 123.987 359.368 123.876 359.309 123.768C359.091 124.793 359.056 125.792 359.405 126.793C359.843 128.046 360.84 128.871 362.08 129.253C362.011 129.151 361.939 129.047 361.87 128.945C361.829 129.823 361.838 130.759 362.276 131.554C362.909 132.704 363.981 133.473 365.291 133.673C365.043 133.595 365.032 133.633 365.291 133.673L365.293 133.67Z" fill="#C48D3F"/>
<path d="M366.569 130.21C365.778 129.823 364.771 129.301 364.3 128.519C364.01 128.106 363.835 127.686 363.714 127.199C363.576 126.771 363.62 126.283 363.575 125.84C363.101 126.863 363.136 127.957 363.789 128.895C364.337 129.735 365.575 130.289 366.569 130.21Z" fill="#C48D3F"/>
<path d="M362.869 123.94C362.252 123.588 361.538 123.15 361.138 122.541C360.632 121.971 360.555 121.179 360.365 120.479C360.04 121.252 360.08 122.147 360.571 122.844C361.061 123.545 361.995 124.066 362.869 123.94Z" fill="#C48D3F"/>
<path d="M394.609 159.486C402.079 159.841 408.337 159.009 411.931 166.031C415.526 173.054 423.323 185.406 428.988 189.116C434.651 192.829 427.911 194.457 419.107 188.311C423.055 192.654 418.409 194.622 410.595 186.024C413.675 191.534 410.932 192.743 403.995 185.113C406.235 189.723 403.644 192.295 397.688 182.916C399.151 187.59 394.961 184.112 392.275 177.76C389.588 171.412 387.911 167.325 385.036 167.19C386.955 165.446 392.266 161.615 394.612 159.481L394.609 159.486Z" fill="#F0AC4D"/>
<path d="M419.102 188.313C417.254 186.864 415.709 185.016 414.152 183.27C412.795 181.75 411.613 180.078 410.246 178.57C411.211 180.388 412.359 182.15 413.708 183.71C414.562 184.698 415.456 185.669 416.457 186.511C417.264 187.189 418.135 187.882 419.102 188.313Z" fill="#C48D3F"/>
<path d="M410.59 186.026C409.642 184.603 408.586 183.253 407.517 181.92C406.547 180.712 405.589 179.466 404.516 178.348C405.209 179.851 406.169 181.183 407.166 182.495C408.213 183.748 409.296 185.018 410.592 186.023L410.59 186.026Z" fill="#C48D3F"/>
<path d="M403.992 185.119C403.177 183.479 402.204 181.884 401.218 180.343C400.313 178.934 399.487 177.464 398.455 176.143C399.018 177.681 399.766 179.171 400.616 180.567C401.596 182.174 402.672 183.763 403.989 185.117L403.992 185.119Z" fill="#C48D3F"/>
<path d="M397.685 182.921C397.474 181.586 397.027 180.28 396.618 178.996C396.17 177.722 395.706 176.432 395.029 175.257C395.195 176.606 395.609 177.919 396.022 179.209C396.472 180.491 396.966 181.762 397.687 182.919L397.685 182.921Z" fill="#C48D3F"/>
<path d="M392.038 163.107C392.308 164.989 393.438 166.781 395.019 167.83C396.073 168.53 397.275 168.777 398.506 168.923C398.429 168.871 398.35 168.818 398.274 168.767C398.749 169.796 399.325 170.943 400.384 171.477C401.456 172.019 402.642 171.765 403.736 171.444C403.608 171.392 403.484 171.342 403.356 171.291C404.133 172.59 405.363 173.607 406.911 173.794C407.955 173.92 408.887 173.601 409.763 173.062C409.631 172.986 409.499 172.91 409.365 172.836C409.418 173.614 409.608 174.288 410.165 174.87C410.67 175.4 411.284 175.706 411.96 175.969C413.271 176.465 414.728 176.225 416.058 175.997C414.575 176.104 413.202 176.147 411.794 175.546C411.112 175.255 410.614 174.785 410.204 174.189C409.896 173.612 409.888 173.061 409.854 172.422C409.486 172.627 409.123 172.825 408.743 173.001C407.994 173.371 407.021 173.286 406.261 173.023C405.47 172.749 404.724 172.194 404.244 171.51C404.079 171.276 403.938 171.025 403.79 170.779C403.77 170.745 403.35 170.895 403.296 170.912C402.619 171.114 401.911 171.255 401.207 171.116C400.46 170.971 399.893 170.416 399.481 169.805C399.208 169.402 398.982 168.967 398.768 168.532C398.677 168.347 398.564 168.378 398.372 168.362C397.903 168.318 397.45 168.265 396.989 168.168C394.533 167.644 392.629 165.504 392.043 163.106C392.068 163.297 392.088 163.294 392.043 163.106L392.038 163.107Z" fill="#C48D3F"/>
<path d="M397.492 164.544C397.754 165.803 398.549 166.811 399.684 167.39C400.531 167.82 401.488 167.786 402.404 167.692C402.297 167.63 402.188 167.564 402.083 167.499C402.534 168.716 403.418 169.666 404.691 170.031C405.713 170.324 406.705 170.23 407.716 169.956C407.602 169.901 407.488 169.85 407.373 169.795C407.927 170.866 408.775 171.726 409.921 172.16C410.846 172.511 411.77 172.535 412.733 172.34C411.21 172.395 409.717 171.961 408.674 170.784C408.375 170.465 408.124 170.082 407.945 169.681C407.898 169.578 407.848 169.475 407.8 169.374C407.782 169.335 407.599 169.405 407.554 169.412C406.955 169.55 406.302 169.69 405.688 169.592C404.844 169.467 403.993 169.203 403.394 168.553C403.114 168.296 402.877 167.932 402.728 167.582C402.677 167.461 402.627 167.337 402.576 167.216C402.516 167.079 402.51 167.108 402.36 167.128C401.396 167.26 400.5 167.303 399.589 166.902C398.622 166.476 397.855 165.513 397.49 164.547C397.544 164.802 397.583 164.791 397.49 164.547L397.492 164.544Z" fill="#C48D3F"/>
<path d="M400.875 163.075C400.854 164.07 401.473 165.275 402.344 165.777C403.315 166.374 404.414 166.349 405.405 165.818C404.98 165.8 404.554 165.84 404.13 165.775C403.61 165.698 403.138 165.525 402.692 165.245C401.883 164.819 401.306 163.844 400.875 163.075Z" fill="#C48D3F"/>
<path d="M407.342 166.416C407.267 167.296 407.843 168.201 408.567 168.648C409.291 169.095 410.189 169.086 410.939 168.72C410.236 168.575 409.544 168.516 408.916 168.12C408.254 167.705 407.76 167.064 407.342 166.416Z" fill="#C48D3F"/>
<path d="M385.69 144.592C391.639 145.513 401.827 150.024 397.809 160.682C393.792 171.339 374.26 170.69 362.639 167.239C359.869 156.339 358.913 138.382 368.934 132.338C374.382 129.051 383.561 131.09 385.69 144.592Z" fill="#FF0B2F"/>
<path opacity="0.2" d="M388.923 148.478C391.972 151.77 394.697 159.156 388.856 165.18C393.296 163.06 399.577 155.487 388.923 148.478Z" fill="white"/>
<path d="M322.364 388.399C322.431 391.355 359.454 426.664 362.32 426.6C365.185 426.535 390.368 400.538 390.295 397.326C390.223 394.114 353.639 359.052 350.34 359.126C347.039 359.203 322.298 385.444 322.364 388.399Z" fill="#FF0B2F"/>
<path d="M386.718 396.206C387.353 396.141 388.52 396.334 388.392 397.532C388.266 398.735 386.241 399.189 384.959 399.145C384.382 398.101 383.805 396.284 384.673 395.396C385.145 394.914 386.141 394.877 386.718 396.206Z" fill="#F67E90"/>
<path d="M377.066 394.98C377.653 395.231 378.58 395.961 377.888 396.95C377.196 397.94 375.206 397.358 374.102 396.699C374.106 395.507 374.479 393.637 375.666 393.281C376.313 393.087 377.202 393.538 377.066 394.98Z" fill="#F67E90"/>
<path d="M376.847 406.717C377.468 406.866 378.501 407.437 377.982 408.527C377.463 409.616 375.402 409.372 374.208 408.902C374.012 407.726 374.075 405.82 375.187 405.271C375.792 404.972 376.744 405.272 376.847 406.717Z" fill="#F67E90"/>
<path d="M363.622 401.603C364.07 401.15 365.095 400.555 365.758 401.564C366.423 402.571 365.151 404.208 364.128 404.991C363.02 404.55 361.419 403.515 361.525 402.279C361.582 401.609 362.331 400.945 363.621 401.606L363.622 401.603Z" fill="#F67E90"/>
<path d="M378.394 386.138C378.861 386.572 379.492 387.574 378.507 388.27C377.524 388.971 375.845 387.755 375.026 386.762C375.429 385.639 376.407 384.001 377.646 384.064C378.319 384.097 379.008 384.821 378.393 386.133L378.394 386.138Z" fill="#F67E90"/>
<path d="M364.731 390.805C365.344 390.987 366.352 391.602 365.778 392.666C365.208 393.73 363.163 393.389 361.99 392.862C361.85 391.678 362.003 389.776 363.141 389.283C363.759 389.012 364.696 389.356 364.731 390.805Z" fill="#F67E90"/>
<path d="M358.109 376.831C358.726 376.67 359.909 376.682 359.965 377.887C360.023 379.093 358.091 379.851 356.817 380.002C356.087 379.057 355.24 377.351 355.964 376.34C356.358 375.79 357.334 375.603 358.109 376.831Z" fill="#F67E90"/>
<path d="M352.071 387.047C352.638 387.341 353.511 388.139 352.747 389.075C351.982 390.012 350.042 389.287 348.989 388.548C349.079 387.357 349.589 385.522 350.801 385.251C351.46 385.104 352.314 385.619 352.071 387.047Z" fill="#F67E90"/>
<path d="M353.383 364.738C353.974 364.493 355.144 364.34 355.366 365.528C355.589 366.716 353.782 367.732 352.539 368.059C351.688 367.223 350.614 365.65 351.188 364.548C351.499 363.951 352.444 363.628 353.38 364.737L353.383 364.738Z" fill="#F67E90"/>
<path d="M347.746 371.848C348.349 372.053 349.332 372.712 348.718 373.75C348.104 374.788 346.074 374.364 344.926 373.789C344.835 372.601 345.067 370.708 346.224 370.258C346.852 370.016 347.774 370.398 347.748 371.845L347.746 371.848Z" fill="#F67E90"/>
<path d="M340.328 384.233C340.964 384.167 342.13 384.349 342.008 385.55C341.886 386.752 339.866 387.217 338.583 387.18C338.002 386.137 337.419 384.323 338.279 383.43C338.748 382.947 339.743 382.905 340.33 384.23L340.328 384.233Z" fill="#F67E90"/>
<path d="M331.258 389.543C331.737 389.963 332.392 390.949 331.427 391.675C330.462 392.401 328.75 391.229 327.907 390.258C328.28 389.125 329.217 387.463 330.456 387.493C331.132 387.51 331.834 388.216 331.258 389.543Z" fill="#F67E90"/>
<path d="M338.306 374.354C338.785 374.774 339.44 375.76 338.476 376.483C337.512 377.208 335.8 376.037 334.957 375.066C335.329 373.933 336.266 372.271 337.506 372.301C338.181 372.318 338.884 373.024 338.308 374.351L338.306 374.354Z" fill="#F67E90"/>
<path d="M352.347 399.762C352.982 399.696 354.147 399.885 354.023 401.085C353.898 402.285 351.877 402.745 350.593 402.704C350.016 401.66 349.433 399.846 350.3 398.954C350.77 398.47 351.766 398.433 352.348 399.759L352.347 399.762Z" fill="#F67E90"/>
<path d="M365.989 412.916C366.529 413.257 367.331 414.126 366.487 414.991C365.646 415.858 363.775 414.968 362.791 414.14C362.983 412.965 363.649 411.176 364.878 411.014C365.547 410.927 366.354 411.51 365.989 412.916Z" fill="#F67E90"/>
<path d="M363.704 422.33C364.243 422.671 365.045 423.541 364.202 424.406C363.361 425.273 361.489 424.383 360.506 423.555C360.697 422.379 361.364 420.591 362.593 420.428C363.264 420.339 364.069 420.925 363.704 422.33Z" fill="#F67E90"/>
<path d="M353.738 410.607C354.377 410.624 355.509 410.966 355.228 412.138C354.949 413.314 352.883 413.503 351.615 413.295C351.178 412.185 350.841 410.308 351.815 409.541C352.346 409.122 353.337 409.214 353.741 410.608L353.738 410.607Z" fill="#F67E90"/>
<path d="M340.488 399.629C341.086 399.85 342.05 400.535 341.408 401.557C340.767 402.579 338.752 402.097 337.617 401.493C337.56 400.303 337.84 398.416 339.011 398C339.647 397.773 340.555 398.18 340.492 399.628L340.488 399.629Z" fill="#F67E90"/>
<path d="M370.075 375.039C377.131 367.125 397.24 368.851 396.185 377.404C395.13 385.957 391.658 384.268 388.668 385.271C385.674 386.277 385.235 392.481 382.473 389.841C379.71 387.202 374.809 382.753 373.249 378.641C373.437 386.97 371.306 394.715 367.852 398.331C364.697 396.741 363.835 395.51 362.88 394.596C366.232 391.086 371.595 381.333 371.5 376.961C368.205 380.409 348.708 401.553 342.274 409.562C340.503 408.144 338.239 405.701 336.767 404.253C340.746 400.09 361.797 378.634 367.241 372.937C365.121 372.985 358.521 376.39 352.291 381.42C350.273 379.489 349.198 378.059 349.157 376.188C353.477 374.01 360.482 373.051 366.305 372.07C360.437 369.068 354.782 362.746 354.702 359.109C354.62 355.469 357.378 353.225 360.392 353.155C363.407 353.085 366.794 347.733 369.867 349.624C372.939 351.519 377.733 360.575 370.081 375.042L370.075 375.039Z" fill="#E67181"/>
<g opacity="0.2">
<path d="M369.269 373.65C369.155 368.556 375.011 356.046 369.502 356.171C363.993 356.296 367.209 365.168 369.269 373.65Z" fill="black"/>
<path d="M371.184 375.478C374.557 377.48 390.245 381.392 390.134 376.501C390.023 371.611 378.352 376.699 371.184 375.478Z" fill="black"/>
</g>
<path d="M366.302 372.069C367.474 373.097 368.663 374.103 369.792 375.18C370.965 376.296 372.23 377.372 373.244 378.642C372.647 377.151 371.411 375.924 370.274 374.828C369.086 373.738 367.795 372.707 366.302 372.069Z" fill="#AD4250"/>
<path d="M490.551 248.704C479.964 242.783 455.27 234.774 446.781 236.807C438.293 238.836 414.126 248.214 408.722 251.21C407.812 263.471 409.193 273.808 408.557 279.242C416.329 280.204 419.827 278.746 426.645 279.285C420.71 281.55 414.972 291.456 425.041 294.004C435.11 296.552 451.909 293.299 461.747 305.389C466.021 300.01 485.657 274.109 490.551 248.704Z" fill="#E69B7E"/>
<path d="M291.897 286.207C293.028 296.114 292.995 305.239 277.377 314.758C269.314 316.674 265.643 314.023 268.501 310.425C271.358 306.827 278.802 301.713 277.774 292.713C281.325 288.243 286.517 287.69 291.896 286.21L291.897 286.207Z" fill="#E69B7E"/>
<path d="M86.4667 290.78C122.957 286.6 153.153 282.61 165.196 277C177.238 271.389 234.98 230.947 248.024 229.451C261.064 227.957 311.192 237.673 317.731 242.871C324.27 248.068 330.756 264.372 330.115 281.886C329.471 299.402 327.923 304.335 322.968 304.905C318.012 305.474 313.259 293.941 312.012 283.018C309.728 296.575 304.411 308.417 298.738 311.974C293.068 315.531 279.048 321.751 276.574 318.612C274.139 315.52 276.654 311.588 282.041 307.479C290.515 301.014 289.055 295.971 289.291 289.961C277.84 293.227 273.324 300.548 263.756 309.309C254.188 318.07 239.322 331.37 224.822 329.346C210.321 327.325 178.806 326.706 171.764 327.514C164.723 328.32 114.521 350.361 95.8255 356.715C87.6711 340.851 85.3467 307.288 86.4698 290.774L86.4667 290.78Z" fill="#E0906F"/>
<path d="M367.937 232.182C380.667 222.67 407.995 211.797 420.651 239.051C433.309 266.307 395.987 301.923 368.008 317.451C342.35 302.546 306.757 271.181 313.887 241.135C317.76 224.801 338.567 211.256 367.937 232.182Z" fill="#FF0B2F"/>
<path d="M617.098 346.79C593.877 337.821 554.456 321.196 547.525 311.419C540.593 301.641 518.019 238.158 511.042 232.616C504.066 227.072 474.688 205.83 463.732 207.084C452.775 208.34 453.961 208.863 443.396 210.075C435.181 211.016 423.744 215 421.664 217.619C419.585 220.237 427.645 224.861 440.947 223.338C454.25 221.813 460.897 221.583 466.819 224.866C471.202 227.294 487.824 238.712 488.359 243.408C488.897 248.105 481.954 253.258 478.142 258.058C461.432 254.025 451.122 250.784 441.679 251.137C427.568 251.664 413.476 250.602 410.185 254.748C406.892 258.891 414.247 267.762 429.908 269.533C445.567 271.307 459.373 277.654 464.54 288.16C459.708 301.401 460.948 308.791 466.717 317.644C472.483 326.496 488.535 342.1 504.858 346.177C521.177 350.252 546.594 385.398 569.7 403.759C590.221 389.117 611.348 372.822 617.098 346.79Z" fill="#E69B7E"/>
<path d="M461.654 283.863C459.405 282.701 456.962 281.843 454.543 281.11C451.266 280.116 447.893 279.341 444.498 278.895C438.524 278.132 432.564 278.074 426.643 279.287C429.294 279.367 431.942 279.335 434.594 279.495C437.742 279.689 440.885 279.968 444.01 280.42C449.951 281.277 455.82 282.452 461.655 283.867L461.654 283.863Z" fill="#CF7653"/>
<path d="M500.563 336.357C493.298 331.7 487.802 324.881 482.902 317.878C477.156 309.664 472.218 300.902 467.518 292.057C466.641 290.403 465.796 288.706 464.8 287.12C463.494 285.047 462.102 283.092 460.377 281.341C458.776 279.717 456.998 278.272 455.109 276.995C451.171 274.336 446.698 272.509 442.127 271.263C437.506 270.002 432.757 269.631 428.058 268.791C425.133 268.268 422.242 267.647 419.368 266.889C423.283 268.204 427.275 269.196 431.318 270.028C433.666 270.512 436.04 270.816 438.374 271.379C440.748 271.951 443.094 272.66 445.375 273.537C453.315 276.593 460.206 281.701 464.268 289.297C467.966 296.211 471.705 303.09 475.907 309.716C480.921 317.617 486.557 325.47 493.687 331.61C495.821 333.447 498.094 335.005 500.558 336.358L500.563 336.357Z" fill="#CF7653"/>
<path d="M492.161 262.794C488.714 260.947 484.801 259.806 481.098 258.599C476.425 257.073 471.696 255.721 466.942 254.468C462.087 253.189 457.179 252.045 452.228 251.21C447.331 250.384 442.419 250.326 437.467 250.527C432.693 250.724 427.932 251.153 423.175 251.576C427.128 251.645 431.086 251.592 435.04 251.603C439.921 251.614 444.833 251.602 449.666 252.329C454.555 253.063 459.394 254.193 464.199 255.343C469.04 256.501 473.874 257.704 478.694 258.955C483.167 260.116 487.867 261.056 492.161 262.794Z" fill="#CF7653"/>
<path d="M433.087 281.19C433.822 282.894 434.394 284.733 434.513 286.595C434.636 288.952 433.834 290.893 433.125 293.079C434.934 291.704 436.234 289.453 436.095 287.123C436.001 284.906 435.046 282.424 433.087 281.19Z" fill="#CF7653"/>
<path d="M487.465 247.114C486.067 247.886 484.869 249.122 483.84 250.327C482.809 251.542 481.848 252.941 481.359 254.473C484.078 253.107 486.646 250.042 487.463 247.116L487.465 247.114Z" fill="#CF7653"/>
<path d="M289.286 289.97C297.949 287.166 309.926 283.489 316.463 281.869C326.394 279.408 329.132 275.623 328.747 272.249C328.362 268.875 322.227 260.572 305.809 262.575C295.277 263.857 290.408 264.898 281.971 267.588C282.864 275.414 285.341 286.834 289.286 289.97Z" fill="#E0906F"/>
<path d="M315.362 262.616C313.54 262.179 311.613 262.097 309.746 262.082C307.467 262.063 305.141 262.215 302.882 262.505C298.001 263.129 293.121 263.884 288.345 265.089C280.144 267.155 272.059 269.7 264.21 272.857C267.784 272.066 271.331 271.119 274.856 270.146C279.447 268.882 284.076 267.725 288.706 266.609C293.355 265.485 298.052 264.558 302.76 263.725C304.999 263.332 307.253 263.031 309.509 262.773C311.424 262.552 313.441 262.434 315.361 262.611L315.362 262.616Z" fill="#C77150"/>
<path d="M306.958 262.597C305.308 260.747 302.536 259.564 300.138 259.143C296.577 258.521 292.957 258.377 289.349 258.313C282.849 258.199 276.235 258.456 269.847 259.723C276.046 259.787 282.247 259.757 288.444 259.872C291.882 259.933 295.361 259.802 298.792 260.097C301.6 260.354 304.618 260.895 306.96 262.599L306.958 262.597Z" fill="#C77150"/>
<path d="M275.166 259.363C273.395 260.895 272.04 262.942 270.875 264.948C269.712 266.989 268.734 269.195 268.321 271.522C269.817 269.89 270.988 267.887 272.096 265.98C273.303 263.902 274.489 261.677 275.166 259.363Z" fill="#C77150"/>
<path d="M277.786 295.922C280.897 293.599 284.754 292.349 288.384 291.087C292.651 289.604 296.987 288.318 301.306 286.993C305.603 285.673 309.915 284.391 314.184 282.986C317.494 281.899 321.113 280.91 324.094 279.058C320.869 280.425 317.25 281.04 313.867 281.905C309.504 283.022 305.17 284.228 300.849 285.494C296.491 286.767 292.157 288.234 287.962 289.979C284.371 291.471 280.553 293.115 277.784 295.925L277.786 295.922Z" fill="#C77150"/>
<path d="M289.286 289.97C289.38 292.179 289.128 294.412 288.65 296.566C288.052 299.251 286.823 301.558 285.109 303.683C284.353 304.72 283.175 305.517 282.216 306.352C281.08 307.342 279.939 308.329 278.868 309.385C277.366 310.863 275.364 312.833 275.737 315.138C275.946 312.803 278.374 311.204 280.063 309.884C282.299 308.137 284.763 306.522 286.6 304.342C289.775 300.569 290.802 294.66 289.284 289.972L289.286 289.97Z" fill="#C77150"/>
<path d="M547.003 241.985L540.494 247.88L539.382 246.652L544.28 242.216L542.262 239.988L538.764 243.154L537.652 241.926L541.15 238.76L529.762 226.175C525.787 227.057 520.053 226.92 518.844 223.576C517.534 219.957 520.997 218.475 523.012 218.191C523.79 213.638 526.903 212.987 528.731 214.123C531.643 215.932 531.728 220.727 531.055 224.367L547.006 241.994L547.003 241.985ZM528.913 224.2C529.505 222.002 529.746 218.367 527.732 217.116C526.637 216.436 524.774 216.826 524.306 219.554C523.097 219.724 521.024 220.613 521.809 222.781C522.594 224.949 526.55 224.866 528.913 224.2Z" fill="#C48D3F"/>
<path d="M574.75 239.574C574.762 239.318 575.033 233.291 571.725 229.927C570.221 228.395 568.245 227.661 565.857 227.744C563.468 227.827 561.545 228.696 560.137 230.328C557.046 233.912 557.682 239.905 557.708 240.158L560.008 239.899C560.004 239.849 559.461 234.647 561.893 231.836C562.874 230.702 564.195 230.12 565.933 230.061C567.668 230 569.021 230.487 570.067 231.549C572.661 234.183 572.438 239.409 572.434 239.461L574.747 239.58L574.75 239.574Z" fill="#C48D3F"/>
<path d="M554.477 264.434C555.886 265.749 579.018 265.075 580.458 263.532C581.897 261.992 581.148 240.725 579.626 239.307C578.105 237.887 554.696 239.086 553.645 240.209C552.596 241.333 553.068 263.118 554.477 264.434Z" fill="#F0AC4D"/>
<path d="M565.189 248.354C565.155 247.341 565.945 246.493 566.958 246.458C567.971 246.424 568.819 247.214 568.853 248.227C568.879 248.982 568.445 249.644 567.804 249.948L568.091 258.316C568.105 258.716 567.791 259.051 567.39 259.066C566.99 259.08 566.655 258.766 566.641 258.366L566.354 249.998C565.693 249.741 565.215 249.11 565.189 248.354Z" fill="#8C642D"/>
<g opacity="0.4">
<path d="M579.092 242.789C579.031 240.954 578.414 239.154 566.734 239.854C572.198 240.175 577.41 240.417 579.092 242.789Z" fill="white"/>
<path d="M554.631 258.501C556.462 261.237 558.59 263.286 568.613 263.712C563.021 263.906 555.52 264.746 554.631 258.501Z" fill="white"/>
</g>
<path d="M322.625 336.686C322.801 336.501 326.931 332.102 326.613 327.393C326.469 325.25 325.448 323.407 323.582 321.912C321.717 320.421 319.69 319.827 317.56 320.147C312.881 320.854 309.462 325.817 309.318 326.027L311.235 327.328C311.263 327.286 314.239 322.987 317.913 322.436C319.396 322.215 320.777 322.634 322.136 323.719C323.492 324.803 324.199 326.054 324.304 327.54C324.558 331.231 320.986 335.051 320.95 335.088L322.626 336.683L322.625 336.686Z" fill="#C48D3F"/>
<path d="M291.059 342.349C291.271 344.266 309.26 358.819 311.353 358.588C313.449 358.353 326.727 341.726 326.496 339.657C326.267 337.586 307.729 323.248 306.2 323.421C304.673 323.591 290.845 340.436 291.058 342.351L291.059 342.349Z" fill="#F0AC4D"/>
<path d="M309.654 337.121C310.286 336.331 311.441 336.202 312.23 336.834C313.02 337.466 313.148 338.621 312.516 339.41C312.044 339.999 311.282 340.222 310.599 340.033L305.368 346.575C305.118 346.888 304.664 346.938 304.351 346.687C304.038 346.437 303.988 345.983 304.239 345.67L309.47 339.128C309.135 338.503 309.185 337.711 309.654 337.121Z" fill="#8C642D"/>
<g opacity="0.4">
<path d="M323.826 341.953C324.973 340.519 325.679 338.75 316.361 331.673C320.297 335.477 324.093 339.054 323.826 341.953Z" fill="white"/>
<path d="M295.037 337.946C294.644 341.215 294.924 344.158 302.251 351.009C297.884 347.513 291.647 343.267 295.037 337.946Z" fill="white"/>
</g>
<path d="M319.392 354.499C322.115 351.992 326.216 349.508 329.298 351.009C331.23 351.952 332.339 354.93 328.901 358.017C329.733 359.876 330.326 363.594 326.563 364.415C323.087 365.175 319.916 360.394 318.543 356.56L301.824 353.628L301.008 358.277L299.375 357.99L300.191 353.341L297.229 352.823L296.087 359.332L294.454 359.045L295.971 350.396L319.385 354.499L319.392 354.499ZM325.654 361.483C327.909 360.992 327.551 358.763 327.055 357.648C329.115 355.799 328.451 354.012 327.292 353.449C325.161 352.413 322.215 354.553 320.667 356.225C321.358 358.581 323.4 361.973 325.652 361.481L325.654 361.483Z" fill="#C48D3F"/>
<path d="M287.102 177.647C289.442 175.505 294.827 174.319 298.768 176.547C304.373 179.713 308.567 187.354 309.872 188.165C311.146 188.96 318.113 188.973 323.026 192.011C326.687 194.275 329.011 198.537 328.063 204.334C325.923 217.432 294.806 223.79 288.555 220.848C288.251 221.672 288.035 222.504 287.98 223.634C287.142 223.828 286.959 223.415 285.385 222.018C286.183 221.512 287.231 220.647 287.708 220.241C283.219 215.611 276.87 187.014 287.104 177.644L287.102 177.647Z" fill="#68BA9C"/>
<path opacity="0.3" d="M316.976 192.168C320.295 195.067 323.376 202.801 320.983 209.764C324.538 205.605 328.677 196.952 316.976 192.168Z" fill="white"/>
<path d="M287.513 220.495C287.513 220.495 287.522 220.5 287.524 220.502L288.372 221.108C288.515 221.209 288.713 221.177 288.814 221.034C288.915 220.89 288.874 220.683 288.74 220.591L287.892 219.985C287.749 219.884 287.551 219.916 287.45 220.059C287.351 220.2 287.379 220.392 287.513 220.495Z" fill="#572D35"/>
<path d="M431.353 406.441C433.605 405.459 437.847 405.936 440.177 408.556C443.492 412.281 444.651 418.935 445.404 419.857C446.141 420.758 451.242 422.513 454.084 425.971C456.201 428.549 456.835 432.254 454.69 436.267C449.842 445.331 425.444 442.196 421.6 438.473C421.173 439.004 420.803 439.556 420.478 440.373C419.816 440.306 419.786 439.959 418.98 438.537C419.692 438.365 420.679 437.993 421.129 437.817C418.997 433.299 421.509 410.744 431.354 406.438L431.353 406.441Z" fill="#68BA9C"/>
<path opacity="0.3" d="M449.608 424.574C451.315 427.532 451.635 433.976 448.137 438.48C451.787 436.321 456.986 431.015 449.608 424.574Z" fill="white"/>
<path d="M420.92 437.957C420.92 437.957 420.926 437.96 420.927 437.964L421.398 438.621C421.476 438.732 421.631 438.755 421.74 438.675C421.851 438.597 421.871 438.436 421.794 438.333L421.324 437.676C421.245 437.565 421.09 437.542 420.982 437.622C420.875 437.699 420.847 437.848 420.92 437.957Z" fill="#572D35"/>
<path d="M472.429 361.97C474.973 360.07 480.446 359.43 484.146 362.038C489.404 365.748 492.813 373.771 494.033 374.71C495.222 375.627 502.152 376.333 506.738 379.85C510.154 382.467 512.039 386.942 510.518 392.616C507.081 405.434 475.485 408.65 469.56 405.1C469.177 405.891 468.877 406.696 468.707 407.815C467.854 407.927 467.715 407.495 466.286 405.948C467.132 405.524 468.26 404.768 468.776 404.413C464.771 399.359 461.311 370.268 472.429 361.97Z" fill="#F0AC4D"/>
<path opacity="0.3" d="M500.702 379.403C503.716 382.62 506.008 390.624 502.93 397.313C506.884 393.53 511.865 385.335 500.702 379.403Z" fill="white"/>
<path d="M468.559 404.644C468.559 404.644 468.568 404.648 468.57 404.65L469.353 405.337C469.484 405.453 469.686 405.44 469.803 405.307C469.919 405.176 469.898 404.965 469.772 404.86L468.989 404.173C468.858 404.057 468.656 404.069 468.539 404.203C468.425 404.331 468.437 404.525 468.559 404.644Z" fill="#572D35"/>
<path d="M258.396 171.702C261.29 170.4 266.773 170.968 269.817 174.319C274.143 179.085 275.725 187.658 276.71 188.839C277.671 189.991 284.281 192.191 287.992 196.62C290.757 199.921 291.624 204.695 288.905 209.905C282.762 221.669 251.226 217.934 246.215 213.18C245.668 213.868 245.199 214.591 244.792 215.645C243.935 215.569 243.894 215.12 242.836 213.296C243.753 213.067 245.019 212.574 245.602 212.339C242.791 206.534 245.741 177.383 258.399 171.703L258.396 171.702Z" fill="#F0AC4D"/>
<path opacity="0.3" d="M282.197 194.869C284.439 198.663 284.937 206.976 280.48 212.836C285.164 210.002 291.805 203.088 282.197 194.869Z" fill="white"/>
<path d="M245.336 212.515C245.336 212.515 245.34 212.52 245.343 212.526L245.959 213.369C246.062 213.509 246.262 213.544 246.403 213.439C246.544 213.333 246.57 213.124 246.472 212.995L245.859 212.153C245.754 212.012 245.557 211.979 245.416 212.084C245.277 212.184 245.246 212.378 245.341 212.518L245.336 212.515Z" fill="#572D35"/>
<path d="M300.659 368.659C301.656 366.413 305.11 363.9 308.6 364.258C313.56 364.765 318.907 368.886 320.087 369.057C321.237 369.223 326.187 367.071 330.621 367.703C333.92 368.175 336.892 370.477 338.017 374.887C340.56 384.847 320.442 399.013 315.092 398.864C315.132 399.543 315.236 400.2 315.546 401.021C315.012 401.42 314.753 401.182 313.204 400.68C313.613 400.073 314.091 399.132 314.304 398.699C309.682 396.807 296.304 378.481 300.663 368.658L300.659 368.659Z" fill="#68BA9C"/>
<path opacity="0.3" d="M326.367 369.697C329.624 370.723 334.209 375.258 334.671 380.941C335.906 376.886 336.16 369.461 326.367 369.697Z" fill="white"/>
<path d="M314.239 398.939C314.239 398.939 314.244 398.942 314.247 398.944L315.037 399.111C315.171 399.14 315.301 399.054 315.33 398.921C315.36 398.787 315.264 398.655 315.14 398.628L314.35 398.461C314.217 398.432 314.086 398.518 314.057 398.651C314.029 398.782 314.11 398.909 314.237 398.942L314.239 398.939Z" fill="#572D35"/>
<path d="M80.7027 239.304C80.3753 241.013 108.802 282.69 111.321 284.35C113.838 286.012 136.637 268.794 136.999 266.885C137.361 264.976 108.689 222.277 106.383 221.836C104.075 221.398 81.029 237.59 80.7043 239.301L80.7027 239.304Z" fill="#F7C379"/>
<path d="M135.554 266.875C132.963 265.456 130.351 264.072 127.734 262.704C125.89 261.742 124.044 260.783 122.192 259.835C120.009 258.717 117.824 257.602 115.635 256.496C113.717 255.528 111.793 254.578 109.872 253.616C109.961 253.741 110.052 253.87 110.141 253.995C109.806 251.06 109.435 248.13 109.052 245.201C108.637 241.993 108.212 238.782 107.774 235.576C107.501 233.579 107.215 231.581 106.918 229.588C106.607 227.495 106.293 225.405 105.951 223.32C106.18 226.267 106.448 229.21 106.74 232.15C106.976 234.54 107.222 236.925 107.473 239.313C107.773 242.15 108.093 244.984 108.424 247.818C108.631 249.598 108.836 251.376 109.051 253.153C109.091 253.484 109.131 253.815 109.173 254.147C109.201 254.372 109.195 254.376 109.401 254.476C110.087 254.81 110.769 255.146 111.454 255.482C112.915 256.201 114.373 256.918 115.84 257.626C117.918 258.628 119.998 259.631 122.079 260.627C123.983 261.536 125.891 262.432 127.8 263.325C130.376 264.53 132.958 265.717 135.556 266.872C134.497 266.294 134.453 266.382 135.556 266.872L135.554 266.875Z" fill="#DB9F49"/>
<path d="M111.81 283.027C111.456 280.074 111.059 277.125 110.65 274.178C110.26 271.365 109.856 268.555 109.425 265.748C109.234 264.506 109.044 263.26 108.853 262.018C108.606 260.409 108.345 258.799 108.09 257.19C108.029 256.803 107.965 256.418 107.906 256.032C107.88 255.867 107.853 255.705 107.827 255.54C107.82 255.495 107.824 255.354 107.783 255.331C107.648 255.242 107.514 255.157 107.377 255.07C105.377 253.788 103.376 252.508 101.373 251.23C98.9828 249.704 96.5753 248.208 94.1661 246.714C92.3025 245.557 90.4377 244.396 88.557 243.263C86.446 241.989 84.3377 240.717 82.2076 239.476C84.6197 241.18 87.0568 242.848 89.5049 244.496C91.6906 245.97 93.881 247.436 96.0837 248.888C98.2974 250.345 100.517 251.799 102.745 253.239C104.189 254.176 105.637 255.107 107.085 256.038C107.014 255.927 106.938 255.818 106.866 255.707C107.565 259.859 108.244 264.011 108.989 268.154C109.445 270.682 109.906 273.209 110.375 275.734C110.83 278.17 111.309 280.601 111.811 283.024C111.575 281.891 111.673 281.874 111.811 283.024L111.81 283.027Z" fill="#DB9F49"/>
<path d="M112.35 251.507C113.93 252.323 116.36 254.543 114.235 257.15C112.111 259.757 106.701 257.744 103.772 255.686C104.018 252.373 105.435 247.254 108.806 246.503C110.639 246.095 113.019 247.524 112.347 251.505L112.35 251.507Z" fill="#FF0B2F"/>
<path d="M431.328 397.551C432.466 398.618 477.694 397.032 480.161 395.92C482.627 394.808 480.512 369.271 479.24 368.079C477.969 366.886 431.846 368.169 430.407 369.709C428.969 371.25 430.189 396.483 431.328 397.551Z" fill="#FF0B2F"/>
<path d="M478.541 369.17C476.223 370.456 473.921 371.773 471.626 373.101C470.012 374.038 468.4 374.977 466.792 375.928C464.896 377.047 463.005 378.173 461.119 379.301C459.466 380.293 457.82 381.296 456.171 382.293C456.311 382.286 456.448 382.277 456.586 382.273C454.199 381.122 451.8 379.997 449.4 378.882C446.768 377.66 444.132 376.446 441.491 375.24C439.847 374.489 438.193 373.75 436.541 373.02C434.807 372.253 433.072 371.49 431.324 370.748C433.669 371.985 436.027 373.192 438.397 374.38C440.32 375.344 442.247 376.303 444.177 377.256C446.471 378.39 448.772 379.506 451.08 380.611C452.529 381.305 453.975 382.004 455.425 382.691C455.696 382.818 455.965 382.948 456.238 383.072C456.422 383.16 456.423 383.164 456.594 383.058C457.176 382.698 457.759 382.342 458.342 381.985C459.587 381.224 460.833 380.463 462.071 379.689C463.828 378.593 465.584 377.5 467.338 376.397C468.941 375.392 470.536 374.374 472.13 373.352C474.279 371.976 476.416 370.585 478.538 369.168C477.591 369.692 477.639 369.767 478.538 369.168L478.541 369.17Z" fill="#A32236"/>
<path d="M479.39 394.914C476.982 393.766 474.557 392.656 472.128 391.553C469.807 390.503 467.484 389.463 465.15 388.441C464.117 387.991 463.083 387.537 462.049 387.087C460.71 386.501 459.365 385.93 458.024 385.353C457.701 385.214 457.378 385.076 457.058 384.938C456.92 384.88 456.783 384.82 456.644 384.761C456.607 384.744 456.501 384.679 456.465 384.691C456.335 384.751 456.203 384.815 456.073 384.875C454.14 385.779 452.211 386.684 450.282 387.59C447.979 388.672 445.688 389.779 443.4 390.891C441.629 391.752 439.856 392.609 438.097 393.491C436.118 394.482 434.141 395.47 432.18 396.493C434.627 395.479 437.059 394.432 439.485 393.365C441.65 392.413 443.814 391.456 445.971 390.481C448.138 389.5 450.306 388.512 452.467 387.517C453.87 386.869 455.268 386.218 456.669 385.568C456.551 385.569 456.432 385.573 456.313 385.575C459.794 387.034 463.269 388.509 466.768 389.929C468.902 390.794 471.038 391.657 473.18 392.509C475.245 393.331 477.316 394.135 479.397 394.915C478.46 394.469 478.424 394.551 479.397 394.915L479.39 394.914Z" fill="#A32236"/>
<path d="M455.726 379.797C456.955 379.077 459.495 378.382 460.348 380.934C461.204 383.488 457.526 386.286 454.882 387.387C452.749 385.804 449.892 382.655 450.826 380.054C451.335 378.64 453.322 377.64 455.726 379.797Z" fill="#80CCB1"/>
<path d="M55.3692 217.516C57.1257 216.13 60.9342 214.496 62.8183 218.288C64.7041 222.078 59.5806 227.233 55.6971 229.525C52.0294 227.521 46.8995 223.24 47.7913 218.979C48.2774 216.665 51.1559 214.681 55.3692 217.516Z" fill="#E67181"/>
<path d="M252.271 184.697C255.241 183.271 261.23 182.155 262.712 188.204C264.195 194.253 255.181 199.999 248.872 202.037C244.253 197.981 238.273 190.179 240.922 184.353C242.365 181.188 247.135 179.265 252.271 184.697Z" fill="#FF0B2F"/>
<path d="M273.799 344.345C276.032 344.253 280.068 345.161 279.372 349.329C278.679 353.499 271.518 354.672 267.036 354.25C265.244 350.481 263.601 344.013 266.813 341.089C268.562 339.5 272.051 339.58 273.799 344.345Z" fill="#E67181"/>
<path d="M414.068 312.102C415.652 312.969 418.064 315.289 415.841 317.883C413.617 320.479 408.172 318.292 405.249 316.128C405.583 312.77 407.155 307.605 410.599 306.925C412.47 306.558 414.852 308.073 414.068 312.102Z" fill="#E67181"/>
<path d="M555.753 269.407C557.519 269.019 560.86 269.178 560.888 272.595C560.918 276.013 555.378 277.949 551.749 278.239C549.795 275.488 547.583 270.568 549.731 267.788C550.902 266.28 553.694 265.854 555.75 269.405L555.753 269.407Z" fill="#E67181"/>
<path d="M333.354 153.762C335.043 153.121 338.372 152.793 338.899 156.168C339.425 159.547 334.225 162.265 330.679 163.084C328.345 160.648 325.439 156.1 327.163 153.039C328.102 151.374 330.801 150.551 333.354 153.762Z" fill="#E67181"/>
</g>
<defs>
<clipPath id="clip0_1_7">
<rect width="560.014" height="348.028" fill="white" transform="matrix(-0.866025 -0.5 -0.5 0.866025 659 280.007)"/>
</clipPath>
</defs>
</svg>
